<svg width="40" height="40" viewBox="0 0 40 40" fill="none" xmlns="http://www.w3.org/2000/svg">
<path d="M15.7979 19C15.5863 19 15.3833 18.9383 15.2337 18.8285C15.0841 18.7187 15 18.5698 15 18.4145C15.0403 16.9799 15.5528 15.5737 16.4937 14.3157C16.5912 14.1779 16.7594 14.0741 16.9612 14.0273C17.163 13.9804 17.3819 13.9943 17.5697 14.0659C17.7576 14.1375 17.899 14.2609 17.9628 14.4089C18.0267 14.557 18.0077 14.7176 17.9102 14.8555C17.088 15.9469 16.637 17.1678 16.5957 18.4145C16.5957 18.5698 16.5117 18.7187 16.362 18.8285C16.2124 18.9383 16.0095 19 15.7979 19Z" fill="#0C608F"/>
<path d="M10.2907 22C10.1617 22.0002 10.035 21.9704 9.92438 21.914C9.81374 21.8575 9.72331 21.7765 9.66281 21.6796C8.90857 20.4378 8.35605 19.1147 8.02035 17.7466C7.99785 17.6685 7.99396 17.5873 8.00892 17.5079C8.02389 17.4284 8.05739 17.3523 8.10748 17.284C8.15756 17.2158 8.2232 17.1567 8.30055 17.1103C8.37789 17.0639 8.46536 17.0312 8.55783 17.014C8.65029 16.9968 8.74587 16.9954 8.83894 17.0101C8.93201 17.0247 9.02069 17.0551 9.09976 17.0993C9.17883 17.1435 9.2467 17.2008 9.29936 17.2676C9.35202 17.3345 9.38842 17.4096 9.40641 17.4886C9.71493 18.7495 10.2232 19.969 10.9172 21.1139C10.9746 21.2058 11.003 21.3087 10.9997 21.4127C10.9965 21.5167 10.9616 21.6182 10.8986 21.7074C10.8355 21.7965 10.7464 21.8703 10.6399 21.9216C10.5334 21.9728 10.4131 21.9999 10.2907 22Z" fill="#0C608F"/>
<path d="M8 15C8.55228 15 9 14.7761 9 14.5C9 14.2239 8.55228 14 8 14C7.44772 14 7 14.2239 7 14.5C7 14.7761 7.44772 15 8 15Z" fill="#0C608F"/>
<path d="M18.5 13C18.7761 13 19 12.5523 19 12C19 11.4477 18.7761 11 18.5 11C18.2239 11 18 11.4477 18 12C18 12.5523 18.2239 13 18.5 13Z" fill="#0C608F"/>
<path d="M38.8604 26.2557C37.3284 24.3675 35.5088 22.7415 33.4708 21.4397C34.6121 18.4193 35.1505 15.1978 35.0548 11.9633C35.0462 11.7995 34.9784 11.6446 34.8644 11.5285C34.7504 11.4125 34.5983 11.3433 34.4373 11.3344C31.4568 11.2509 28.487 11.731 25.6787 12.7505C24.3455 10.2327 22.5585 7.99266 20.4111 6.14745C20.2945 6.05202 20.1494 6 19.9997 6C19.8501 6 19.705 6.05202 19.5884 6.14745C17.4409 7.99266 15.654 10.2327 14.3208 12.7505C11.5127 11.7309 8.54303 11.2507 5.56267 11.3342C5.40167 11.3431 5.24957 11.4122 5.1356 11.5283C5.02164 11.6444 4.95385 11.7992 4.94525 11.963C4.84944 15.1976 5.38794 18.4193 6.52931 21.4397C4.49125 22.7416 2.67159 24.3677 1.13964 26.256C1.04918 26.3732 1 26.5178 1 26.6668C1 26.8158 1.04918 26.9605 1.13964 27.0776C1.35716 27.3599 6.54156 34 13.1207 34C15.7764 34 18.1575 32.6938 20 31.4637C21.8425 32.6938 24.2236 34 26.8793 34C33.4584 34 38.6428 27.3599 38.8604 27.0773C38.9508 26.9602 39 26.8155 39 26.6665C39 26.5175 38.9508 26.3728 38.8604 26.2557ZM33.756 12.6554C33.747 14.7121 33.3925 21.4121 29.3643 25.5223C27.3338 27.4713 24.8438 28.8547 22.1346 29.5387C24.1505 27.3947 27.2068 23.3695 27.2068 18.6663C27.1886 17.0475 26.8565 15.4484 26.2295 13.9605C28.6508 13.1073 31.1937 12.6665 33.756 12.6554ZM20 7.54955C21.4012 8.83797 25.8965 13.3856 25.8965 18.6663C25.8965 23.947 21.4012 28.4947 20 29.7831C18.5988 28.4947 14.1035 23.947 14.1035 18.6663C14.1035 13.3856 18.5988 8.83797 20 7.54955ZM13.7705 13.9605C13.1435 15.4484 12.8114 17.0475 12.7932 18.6663C12.7932 23.3695 15.8495 27.3946 17.8655 29.5383C15.1566 28.8545 12.6667 27.4714 10.6364 25.5226C6.60747 21.4125 6.25329 14.7118 6.24405 12.6551C8.80632 12.6663 11.3492 13.1073 13.7705 13.9605ZM2.51202 26.6658C3.84412 25.1259 5.37957 23.7814 7.07454 22.6705C7.74572 24.0717 8.63549 25.353 9.70929 26.4647C12.0842 28.7537 15.0366 30.3277 18.238 31.0115C16.7041 32.0096 14.9395 32.5804 13.1207 32.6666C8.07596 32.6666 3.7322 28.0813 2.51202 26.6658ZM26.8793 32.6666C25.0605 32.5804 23.2959 32.0097 21.762 31.0116C24.9637 30.3276 27.9163 28.7534 30.2914 26.464C31.3649 25.3526 32.2545 24.0715 32.9256 22.6706C34.6201 23.7822 36.1554 25.1269 37.488 26.6665C36.2698 28.0825 31.9337 32.6666 26.8793 32.6666Z" fill="#0C608F"/>
</svg>
