<svg width="64" height="64" viewBox="0 0 64 64" fill="none" xmlns="http://www.w3.org/2000/svg">
<g filter="url(#filter0_i_1358_7407)">
<path d="M29.6367 30.0859H34.3617V40.8359H29.6367V30.0859Z" fill="#509ADC"/>
<path d="M26.6617 45.4359C26.6617 42.4859 29.0492 40.0734 31.9992 40.0734C34.9492 40.0734 37.3367 42.4859 37.3367 45.4359H26.6617Z" fill="#509ADC"/>
<path d="M24.4992 45.4359H39.4992C40.8742 45.4359 41.9992 46.5609 41.9992 47.9359V52.3109H21.9992V47.9359C21.9992 46.5609 23.1242 45.4359 24.4992 45.4359Z" fill="#509ADC"/>
<path d="M20.4367 52.3109H43.5617C45.4617 52.3109 46.9992 53.8484 46.9992 55.7484C46.9992 57.6484 45.4617 59.1859 43.5617 59.1859H20.4367C18.5367 59.1859 16.9992 57.6484 16.9992 55.7484C16.9992 53.8484 18.5367 52.3109 20.4367 52.3109Z" fill="#509ADC"/>
<path d="M37.0617 44.3609C36.7492 44.3609 36.4742 44.1234 36.4367 43.7984C36.3992 43.4484 36.6492 43.1484 36.9992 43.1109C37.0742 43.0984 41.7117 42.5734 46.1367 39.0484C51.9992 34.3734 54.8617 26.5109 54.3867 16.3359C54.3742 15.9859 54.6367 15.6984 54.9867 15.6859C55.3242 15.6609 55.6242 15.9359 55.6367 16.2859C55.8992 22.1984 55.1117 27.3484 53.2742 31.5984C51.7867 35.0234 49.6367 37.8734 46.8617 40.0734C42.1367 43.8109 37.3242 44.3484 37.1242 44.3609C37.1117 44.3609 37.0867 44.3609 37.0617 44.3609Z" fill="#509ADC"/>
<path d="M59.8367 23.5859C57.6367 25.4109 54.5242 25.2734 54.5242 25.2734C54.5242 25.2734 54.9742 22.1859 57.1742 20.3609C59.3742 18.5359 62.4867 18.6734 62.4867 18.6734C62.4867 18.6734 62.0367 21.7609 59.8367 23.5859Z" fill="#509ADC"/>
<path d="M53.2617 19.8359C54.8992 22.1734 54.5117 25.2734 54.5117 25.2734C54.5117 25.2734 51.4742 24.5734 49.8367 22.2359C48.1992 19.8984 48.5867 16.7984 48.5867 16.7984C48.5867 16.7984 51.6242 17.4984 53.2617 19.8359Z" fill="#509ADC"/>
<path d="M51.5992 26.5984C53.0367 29.0734 52.3867 32.1234 52.3867 32.1234C52.3867 32.1234 49.4117 31.1609 47.9867 28.6984C46.5492 26.2234 47.1992 23.1734 47.1992 23.1734C47.1992 23.1734 50.1742 24.1234 51.5992 26.5984Z" fill="#509ADC"/>
<path d="M48.8492 32.9484C49.4242 35.7484 47.8367 38.4359 47.8367 38.4359C47.8367 38.4359 45.3242 36.5859 44.7617 33.7859C44.1992 30.9859 45.7742 28.2984 45.7742 28.2984C45.7742 28.2984 48.2742 30.1484 48.8492 32.9484Z" fill="#509ADC"/>
<path d="M44.4617 37.9859C43.8742 40.7859 41.3492 42.6234 41.3492 42.6234C41.3492 42.6234 39.7742 39.9234 40.3617 37.1359C40.9492 34.3484 43.4742 32.4984 43.4742 32.4984C43.4742 32.4984 45.0492 35.1859 44.4617 37.9859Z" fill="#509ADC"/>
<path d="M57.8242 30.9234C55.4742 32.5359 52.3742 32.1234 52.3742 32.1234C52.3742 32.1234 53.0992 29.0859 55.4617 27.4734C57.8242 25.8609 60.9117 26.2734 60.9117 26.2734C60.9117 26.2734 60.1867 29.3109 57.8242 30.9234Z" fill="#509ADC"/>
<path d="M53.4242 38.4859C50.7617 39.5234 47.8492 38.4234 47.8492 38.4234C47.8492 38.4234 49.2492 35.6359 51.9117 34.5984C54.5742 33.5609 57.4867 34.6609 57.4867 34.6609C57.4867 34.6609 56.0867 37.4484 53.4242 38.4859Z" fill="#509ADC"/>
<path d="M46.4617 44.8234C43.5992 44.7484 41.3492 42.5984 41.3492 42.5984C41.3492 42.5984 43.7242 40.5734 46.5742 40.6484C49.4242 40.7234 51.6867 42.8734 51.6867 42.8734C51.6867 42.8734 49.3117 44.8984 46.4617 44.8234Z" fill="#509ADC"/>
<path d="M57.1617 14.7984C57.1617 17.6609 55.0742 19.9734 55.0742 19.9734C55.0742 19.9734 52.9867 17.6609 52.9867 14.7984C52.9867 11.9359 55.0617 9.62344 55.0617 9.62344C55.0617 9.62344 57.1617 11.9359 57.1617 14.7984Z" fill="#509ADC"/>
<path d="M26.9367 44.3609C27.2492 44.3609 27.5242 44.1234 27.5617 43.7984C27.5992 43.4484 27.3492 43.1484 26.9992 43.1109C26.9242 43.0984 22.2867 42.5734 17.8617 39.0484C11.9992 34.3734 9.13672 26.5109 9.61172 16.3359C9.62422 15.9859 9.36172 15.6984 9.01172 15.6859C8.67422 15.6609 8.37422 15.9359 8.36172 16.2859C8.08672 22.1984 8.88672 27.3484 10.7242 31.5984C12.2117 35.0234 14.3617 37.8734 17.1367 40.0734C21.8617 43.8109 26.6742 44.3484 26.8742 44.3609H26.9367Z" fill="#509ADC"/>
<path d="M4.16172 23.5859C6.36172 25.4109 9.48672 25.2734 9.48672 25.2734C9.48672 25.2734 9.03672 22.1859 6.83672 20.3609C4.63672 18.5359 1.51172 18.6734 1.51172 18.6734C1.51172 18.6734 1.96172 21.7609 4.16172 23.5859Z" fill="#509ADC"/>
<path d="M10.7367 19.8359C9.09922 22.1734 9.48672 25.2734 9.48672 25.2734C9.48672 25.2734 12.5242 24.5734 14.1617 22.2359C15.7992 19.8984 15.4117 16.7984 15.4117 16.7984C15.4117 16.7984 12.3742 17.4984 10.7367 19.8359Z" fill="#509ADC"/>
<path d="M12.3992 26.5984C10.9742 29.0734 11.6117 32.1234 11.6117 32.1234C11.6117 32.1234 14.5867 31.1609 16.0117 28.6984C17.4367 26.2359 16.7992 23.1734 16.7992 23.1734C16.7992 23.1734 13.8242 24.1234 12.3992 26.5984Z" fill="#509ADC"/>
<path d="M15.1492 32.9484C14.5742 35.7484 16.1617 38.4359 16.1617 38.4359C16.1617 38.4359 18.6742 36.5859 19.2492 33.7859C19.8242 30.9859 18.2367 28.2984 18.2367 28.2984C18.2367 28.2984 15.7242 30.1484 15.1492 32.9484Z" fill="#509ADC"/>
<path d="M19.5367 37.9859C20.1242 40.7859 22.6492 42.6234 22.6492 42.6234C22.6492 42.6234 24.2242 39.9234 23.6367 37.1359C23.0492 34.3484 20.5242 32.4984 20.5242 32.4984C20.5242 32.4984 18.9492 35.1859 19.5367 37.9859Z" fill="#509ADC"/>
<path d="M6.17422 30.9234C8.52422 32.5359 11.6242 32.1234 11.6242 32.1234C11.6242 32.1234 10.8992 29.0859 8.53672 27.4734C6.17422 25.8609 3.08672 26.2734 3.08672 26.2734C3.08672 26.2734 3.81172 29.3109 6.17422 30.9234Z" fill="#509ADC"/>
<path d="M10.5742 38.4859C13.2367 39.5234 16.1492 38.4234 16.1492 38.4234C16.1492 38.4234 14.7492 35.6359 12.0992 34.5984C9.43672 33.5609 6.52422 34.6609 6.52422 34.6609C6.52422 34.6609 7.91172 37.4484 10.5742 38.4859Z" fill="#509ADC"/>
<path d="M17.5367 44.8234C20.3992 44.7484 22.6492 42.5984 22.6492 42.5984C22.6492 42.5984 20.2742 40.5734 17.4242 40.6484C14.5742 40.7234 12.3117 42.8734 12.3117 42.8734C12.3117 42.8734 14.6867 44.8984 17.5367 44.8234Z" fill="#509ADC"/>
<path d="M6.83672 14.7984C6.83672 17.6609 8.92422 19.9734 8.92422 19.9734C8.92422 19.9734 11.0117 17.6609 11.0117 14.7984C11.0117 11.9359 8.92422 9.62344 8.92422 9.62344C8.92422 9.62344 6.83672 11.9359 6.83672 14.7984Z" fill="#509ADC"/>
<path d="M35.0992 6.68594L37.9492 12.1234L44.0117 13.1484C46.7992 13.6234 47.9117 17.0359 45.9367 19.0484L41.6367 23.4484L42.5242 29.5234C42.9367 32.3234 40.0367 34.4234 37.4992 33.1734L31.9992 30.4609L26.4992 33.1859C23.9617 34.4359 21.0617 32.3359 21.4742 29.5359L22.3617 23.4609L18.0617 19.0609C16.0867 17.0359 17.1992 13.6359 19.9867 13.1609L26.0492 12.1359L28.8992 6.69844C30.2117 4.18594 33.7867 4.18594 35.0992 6.68594Z" fill="#509ADC"/>
</g>
<defs>
<filter id="filter0_i_1358_7407" x="0" y="0" width="64" height="64" filterUnits="userSpaceOnUse" color-interpolation-filters="sRGB">
<feFlood flood-opacity="0" result="BackgroundImageFix"/>
<feBlend mode="normal" in="SourceGraphic" in2="BackgroundImageFix" result="shape"/>
<feColorMatrix in="SourceAlpha" type="matrix" values="0 0 0 0 0 0 0 0 0 0 0 0 0 0 0 0 0 0 127 0" result="hardAlpha"/>
<feOffset/>
<feGaussianBlur stdDeviation="2"/>
<feComposite in2="hardAlpha" operator="arithmetic" k2="-1" k3="1"/>
<feColorMatrix type="matrix" values="0 0 0 0 1 0 0 0 0 1 0 0 0 0 1 0 0 0 1 0"/>
<feBlend mode="normal" in2="shape" result="effect1_innerShadow_1358_7407"/>
</filter>
</defs>
</svg>
