<svg width="40" height="40" viewBox="0 0 40 40" fill="none" xmlns="http://www.w3.org/2000/svg">
<path d="M33.5009 23.7686C33.5009 18.6101 30.2873 13.9782 25.4808 12.1418C25.2218 11.4736 24.8014 10.8768 24.2544 10.4114L25.9102 7.29214C25.9102 7.29175 25.9106 7.29136 25.9106 7.29097C26.3522 6.45464 26.078 5.43339 25.3142 4.91042L26.0104 3.5991C26.1709 3.29691 26.2045 2.95058 26.1043 2.6237C26.0042 2.29683 25.7824 2.02831 25.4806 1.86792L23.1573 0.634017C22.5332 0.302377 21.757 0.540658 21.4259 1.16417L20.73 2.47441C19.8123 2.10824 18.8474 2.51628 18.4241 3.31456L10.3327 18.5469C9.89086 19.3828 10.1645 20.4039 10.9281 20.9275L10.2322 22.2381C10.0713 22.5405 10.0377 22.887 10.1383 23.214C10.2384 23.5409 10.4602 23.8093 10.762 23.9696L13.085 25.2035C13.7117 25.5364 14.487 25.2932 14.8163 24.6733L15.5086 23.37C15.7266 23.4573 15.9563 23.5028 16.188 23.5028C16.8439 23.5028 17.4859 23.1514 17.8189 22.521L20.3181 17.8181C20.6724 17.9173 21.0254 17.9825 21.4805 17.9825C22.508 17.9825 23.4795 17.6092 24.2388 16.9726C26.8762 18.2105 28.5633 20.8366 28.5633 23.7686C28.5633 27.9071 25.1965 31.2739 21.0578 31.2739C18.8851 31.2739 16.8585 30.3406 15.4433 28.7363H17.2074C17.5339 28.7363 17.7987 28.4716 17.7987 28.145C17.7987 27.8183 17.5339 27.5536 17.2074 27.5536C11.2118 27.5536 12.6848 27.5536 7.09133 27.5536C6.76484 27.5536 6.5 27.8183 6.5 28.145C6.5 28.4716 6.76484 28.7363 7.09133 28.7363H9.65727C10.6252 30.9452 12.2219 32.83 14.2155 34.1511H13.4749C12.2345 34.1511 11.225 35.1603 11.225 36.401V38.9221C11.225 39.2488 11.4898 39.5135 11.8163 39.5135H31.1408C31.4673 39.5135 31.7321 39.2488 31.7321 38.9221V36.401C31.7321 35.1603 30.7227 34.1511 29.4822 34.1511H27.8984C31.3602 31.8781 33.5009 28.0206 33.5009 23.7686ZM22.4708 1.71878C22.4962 1.6705 22.5543 1.65292 22.6024 1.67855L24.9259 2.91245C24.9555 2.92824 24.9682 2.95253 24.9736 2.97003C24.9786 2.98753 24.9816 3.01472 24.9659 3.04433L24.2795 4.3373L21.7839 3.01175L22.4708 1.71878ZM13.7141 24.1663C13.6971 24.1717 13.6694 24.1747 13.6398 24.1589L11.3167 22.925C11.2871 22.9091 11.2744 22.885 11.269 22.8675C11.2636 22.85 11.2605 22.823 11.2767 22.7932L11.963 21.5006L14.4583 22.8257L13.7715 24.1187C13.7556 24.1484 13.7318 24.1609 13.7141 24.1663ZM19.2295 17.3463L16.7741 21.9672C16.6912 22.1237 16.5527 22.2385 16.3837 22.2903C16.2147 22.3421 16.036 22.3247 15.8786 22.2412C10.1024 19.1727 12.8115 20.6122 11.6537 19.9973C11.331 19.8254 11.2075 19.4227 11.378 19.1008L19.4686 3.86933C19.6354 3.55402 20.0332 3.42089 20.3648 3.59714C26.3834 6.7941 23.2285 5.11808 24.5898 5.84105C24.9116 6.01277 25.0352 6.41472 24.8654 6.73769L23.2542 9.773C23.0684 9.68839 22.6755 9.54417 22.3152 9.47269C19.9955 9.01222 17.7252 10.5252 17.2626 12.8533C16.9173 14.6025 17.7113 16.4133 19.2295 17.3463ZM20.8742 16.74C19.3223 16.4324 18.2459 14.9962 18.377 13.4305C18.3781 13.4168 18.3783 13.403 18.3796 13.3892C18.5577 11.5521 20.2933 10.2775 22.0885 10.634C23.7388 10.9546 24.8669 12.5993 24.5305 14.2917C24.2017 15.9532 22.572 17.077 20.8742 16.74ZM30.5495 36.4008V38.3306H12.4078V36.4008C12.4078 35.8124 12.8867 35.3336 13.475 35.3336H29.4823C30.0706 35.3336 30.5495 35.8124 30.5495 36.4008ZM25.4087 34.151H16.704C14.2084 33.1005 12.1564 31.1578 10.9576 28.7362H13.937C15.5671 31.072 18.2051 32.4566 21.0579 32.4566C25.8484 32.4566 29.7461 28.5591 29.7461 23.7686C29.7461 20.4937 27.9313 17.5443 25.0615 16.0545C25.5645 15.2922 25.7991 14.399 25.771 13.5382C29.7257 15.3673 32.3182 19.3582 32.3182 23.7686C32.3182 28.3231 29.6102 32.3857 25.4087 34.151Z" fill="#0C608F"/>
</svg>
