<svg width="40" height="40" viewBox="0 0 40 40" fill="none" xmlns="http://www.w3.org/2000/svg">
<path d="M23.125 18.125C22.6937 18.125 22.3438 18.475 22.3438 18.9062C22.3438 19.3375 22.6937 19.6875 23.125 19.6875C23.5562 19.6875 23.9062 19.3375 23.9062 18.9062C23.9062 18.475 23.5562 18.125 23.125 18.125Z" fill="#0C608F"/>
<path d="M20 13.4375C19.5687 13.4375 19.2188 13.7875 19.2188 14.2188C19.2188 14.65 19.5687 15 20 15C20.4312 15 20.7812 14.65 20.7812 14.2188C20.7812 13.7875 20.4312 13.4375 20 13.4375Z" fill="#0C608F"/>
<path d="M10.625 33.75C10.1937 33.75 9.84375 34.1 9.84375 34.5312C9.84375 34.9625 10.1937 35.3125 10.625 35.3125C11.0562 35.3125 11.4062 34.9625 11.4062 34.5312C11.4062 34.1 11.0562 33.75 10.625 33.75Z" fill="#0C608F"/>
<path d="M35.502 31.8498L25.4695 14.0141V4.55359C26.3789 4.23117 27.032 3.36234 27.032 2.34375C27.032 1.05141 25.9806 0 24.6882 0H15.3132C14.0209 0 12.9695 1.05141 12.9695 2.34375C12.9695 3.36234 13.6225 4.23117 14.532 4.55359V14.0141L4.49948 31.8498C3.53635 33.562 3.55346 35.5966 4.5451 37.2923C5.53666 38.9877 7.30135 40 9.26557 40H30.7359C32.7001 40 34.4647 38.9877 35.4564 37.2923C36.448 35.5966 36.4651 33.562 35.502 31.8498ZM15.9942 14.6017C16.0599 14.4848 16.0945 14.3529 16.0945 14.2188V4.6875H16.8757C17.3071 4.6875 17.657 4.33766 17.657 3.90625C17.657 3.47484 17.3071 3.125 16.8757 3.125H15.3132C14.8824 3.125 14.532 2.77453 14.532 2.34375C14.532 1.91297 14.8824 1.5625 15.3132 1.5625H24.6882C25.119 1.5625 25.4695 1.91297 25.4695 2.34375C25.4695 2.77453 25.119 3.125 24.6882 3.125H23.1257C22.6943 3.125 22.3445 3.47484 22.3445 3.90625C22.3445 4.33766 22.6943 4.6875 23.1257 4.6875H23.907V14.2188C23.907 14.353 23.9415 14.4848 24.0073 14.6017L28.6121 22.7882C25.7999 22.5605 22.9976 23.1292 20.4229 24.4624C17.1131 26.1752 13.4285 26.4768 9.95416 25.3395L15.9942 14.6017ZM34.1075 36.5034C33.3993 37.7145 32.1388 38.4375 30.7359 38.4375H9.26557C7.8626 38.4375 6.60213 37.7145 5.89393 36.5034C5.18557 35.2923 5.1733 33.8389 5.86135 32.6158L9.17448 26.7258C10.782 27.2871 12.4432 27.5705 14.1305 27.5705C14.3803 27.5705 14.6306 27.5643 14.8815 27.5519C17.0616 27.4439 19.1676 26.8713 21.1412 25.85C23.7812 24.4831 26.6849 24.0113 29.5617 24.4765L34.1402 32.6158C34.8281 33.8389 34.816 35.2923 34.1075 36.5034Z" fill="#0C608F"/>
<path d="M16.875 18.125C15.5827 18.125 14.5312 19.1764 14.5312 20.4688C14.5312 21.7611 15.5827 22.8125 16.875 22.8125C18.1673 22.8125 19.2188 21.7611 19.2188 20.4688C19.2188 19.1764 18.1673 18.125 16.875 18.125ZM16.875 21.25C16.4442 21.25 16.0938 20.8995 16.0938 20.4688C16.0938 20.038 16.4442 19.6875 16.875 19.6875C17.3058 19.6875 17.6562 20.038 17.6562 20.4688C17.6562 20.8995 17.3058 21.25 16.875 21.25Z" fill="#0C608F"/>
<path d="M29.375 33.75H13.75C13.3186 33.75 12.9688 34.0998 12.9688 34.5312C12.9688 34.9627 13.3186 35.3125 13.75 35.3125H29.375C29.8064 35.3125 30.1562 34.9627 30.1562 34.5312C30.1562 34.0998 29.8064 33.75 29.375 33.75Z" fill="#0C608F"/>
</svg>
