<svg width="34" height="37" viewBox="0 0 34 37" fill="none" xmlns="http://www.w3.org/2000/svg">
<path d="M13.1939 21.9937C12.2252 21.9937 11.3314 21.55 10.7502 20.775C10.5439 20.5 10.5939 20.1063 10.8689 19.9C11.1439 19.6938 11.5377 19.7437 11.7439 20.0187C12.0939 20.4812 12.6189 20.7437 13.1939 20.7437C13.7689 20.7437 14.2939 20.4812 14.6439 20.0187C14.8502 19.7437 15.2439 19.6875 15.5189 19.9C15.7939 20.1063 15.8502 20.5 15.6377 20.775C15.0502 21.55 14.1564 21.9937 13.1939 21.9937ZM22.1439 20.0187C21.7939 20.4812 21.2689 20.7437 20.6939 20.7437C20.1189 20.7437 19.5939 20.4812 19.2439 20.0187C19.0377 19.7437 18.6439 19.6875 18.3689 19.9C18.0939 20.1063 18.0377 20.5 18.2502 20.775C18.8377 21.55 19.7314 21.9937 20.6939 21.9937C21.6564 21.9937 22.5564 21.55 23.1377 20.775C23.3439 20.5 23.2939 20.1063 23.0189 19.9C22.7439 19.6938 22.3502 19.7437 22.1439 20.0187ZM18.3314 26.475C18.0189 26.7625 17.5002 26.9312 16.9502 26.9312C16.4002 26.9312 15.8814 26.7625 15.5689 26.475C15.3127 26.2437 14.9189 26.2625 14.6877 26.5187C14.4564 26.775 14.4752 27.1688 14.7314 27.4C15.2752 27.8937 16.0877 28.175 16.9502 28.175C17.8127 28.175 18.6252 27.8937 19.1689 27.4C19.4252 27.1688 19.4439 26.775 19.2127 26.5187C18.9814 26.2625 18.5877 26.2437 18.3314 26.475ZM33.2502 31.25C33.2502 31.5063 33.0877 31.7375 32.8439 31.825C30.8689 32.5625 29.9877 34.6937 29.9752 34.7125C29.8814 34.95 29.6502 35.1 29.3939 35.1C29.1377 35.1 28.9127 34.9437 28.8127 34.7125C27.9502 32.5687 25.9689 31.8375 25.9502 31.8312C25.7127 31.7437 25.5439 31.5187 25.5377 31.2687C25.5252 31.0125 25.6752 30.775 25.9064 30.675C28.1627 29.675 28.7752 27.8875 28.8002 27.8125C28.8814 27.5562 29.1189 27.3875 29.3877 27.3812C29.6377 27.3562 29.8939 27.5437 29.9814 27.7937C30.6814 29.7625 32.8314 30.65 32.8502 30.6562C33.0877 30.75 33.2439 30.9875 33.2439 31.2437L33.2502 31.25ZM31.3002 31.225C30.7002 30.825 29.9564 30.2187 29.3939 29.3687C29.0064 29.9437 28.4002 30.6437 27.4877 31.2375C28.0877 31.6313 28.8252 32.25 29.4127 33.1562C29.8127 32.55 30.4314 31.8 31.3002 31.225ZM22.8189 31.6312V35.6312C22.8189 35.975 22.5377 36.2562 22.1939 36.2562C21.8502 36.2562 21.5689 35.975 21.5689 35.6312V32.3562C20.1564 33.05 18.5814 33.4437 16.9439 33.4437C16.8814 33.4437 16.8189 33.4437 16.7502 33.4437C15.0752 33.4125 13.4689 32.9562 12.0377 32.1687V35.6312C12.0377 35.975 11.7564 36.2562 11.4127 36.2562C11.0689 36.2562 10.7877 35.975 10.7877 35.6312V31.3625C9.31895 30.2562 8.11895 28.7625 7.3502 27C6.1377 28.1937 5.58145 29.55 5.5752 29.5687C5.48145 29.8062 5.2502 29.9625 4.99395 29.9625C4.7377 29.9625 4.50645 29.8062 4.4127 29.5687C3.21895 26.6 0.437696 25.5625 0.412696 25.5562C0.175196 25.4688 0.00644588 25.2437 0.000195882 24.9875C-0.00605412 24.7312 0.137696 24.5 0.368946 24.3937C2.1252 23.6125 3.1627 22.4937 3.74395 21.6312C3.3627 20.3875 3.21895 19.4437 3.2127 19.4C2.06895 13.3438 6.06895 9.0375 6.2377 8.85625C6.8877 8.05625 7.6377 7.38125 8.43145 6.80625C9.1252 2.90625 12.5564 0 16.5377 0H17.3502C21.3439 0 24.7814 2.91875 25.4627 6.83125C26.2627 7.4125 27.0252 8.08125 27.6814 8.8875C27.8189 9.03125 31.8189 13.3375 30.6752 19.4188C30.6439 19.6125 29.8377 24.8125 26.8564 27.05C26.7689 27.1187 26.6689 27.15 26.5627 27.1625C25.7502 29 24.4377 30.5375 22.8127 31.625L22.8189 31.6312ZM21.5064 6.1125C21.6377 6.39375 21.7314 6.66875 21.7814 6.9C22.2064 9.78125 20.6127 11.125 19.9127 11.5688C19.6939 11.7063 19.4439 11.8063 19.1814 11.8875C26.6252 14.7375 26.6939 19.5875 26.6752 20.1687L27.0189 25.1812C28.8689 22.95 29.4439 19.2625 29.4439 19.2188C30.4752 13.7563 26.7814 9.7625 26.7439 9.725C25.2939 7.95 23.3189 6.83125 21.5002 6.11875L21.5064 6.1125ZM9.9877 5.83125C13.3752 3.9875 16.9439 3.675 17.1564 3.6625C18.2752 3.5875 19.1564 3.84375 19.8377 4.25C21.0564 4.575 22.5002 5.0875 23.9127 5.85625C22.9189 3.15625 20.3189 1.2625 17.3502 1.2625H16.5377C13.5814 1.2625 10.9877 3.15 9.9877 5.8375V5.83125ZM4.44395 19.1938C4.44395 19.1938 4.5002 19.5562 4.6252 20.0812C4.7252 20.0062 4.8502 19.9625 4.98145 19.9625C5.24395 19.9563 5.4877 20.125 5.58145 20.375C5.9127 21.3 6.4627 22.0437 7.0502 22.6375L7.21895 20.1625C7.19395 19.4875 7.2752 13.1438 18.6439 10.7375C18.8689 10.6875 19.0689 10.6125 19.2439 10.5C20.0002 10.025 20.8377 9.05 20.5502 7.11875C20.5377 7.06875 19.9627 4.71875 17.2439 4.9C17.1877 4.9 10.5877 5.4875 7.1752 9.68125C7.10645 9.75625 3.41895 13.75 4.44395 19.1875V19.1938ZM7.9627 24.9375C7.0627 24.3875 5.83145 23.4375 4.98145 22.0187C4.45645 22.875 3.5252 24.025 1.99395 24.95C2.88145 25.4875 4.10645 26.4312 5.00645 27.9562C5.5627 27.05 6.51895 25.8 7.9627 24.9312V24.9375ZM25.8002 25.675L25.4252 20.2125C25.4252 20.2125 25.4252 20.1562 25.4252 20.125C25.4377 19.9187 25.5939 14.9438 16.9439 12.45C8.30645 14.9375 8.46895 19.9062 8.47519 20.1312V20.2125L8.2377 23.6187C8.9752 24.125 9.56895 24.3687 9.58145 24.375C9.81895 24.4688 9.9752 24.7062 9.9752 24.9625C9.9752 25.2188 9.8127 25.45 9.56894 25.5437C9.1252 25.7125 8.7252 25.9312 8.3627 26.175C9.7627 29.725 13.0814 32.1312 16.7752 32.2H16.9439C20.9877 32.2 24.5939 29.5438 25.8002 25.6812V25.675Z" fill="#0C608F"/>
</svg>
