<svg preserveAspectRatio="none" width="100%" height="100%" overflow="visible" style="display: block;" viewBox="0 0 20 20" fill="none" xmlns="http://www.w3.org/2000/svg">
<g id="Frame" clip-path="url(#clip0_0_111)">
<path id="Vector" d="M18.4177 8.80133L2.29407 0.936133C2.15541 0.868491 2.00314 0.833333 1.84885 0.833333C1.288 0.833333 0.833333 1.288 0.833333 1.84885V1.87816C0.833333 2.01442 0.850041 2.15018 0.883091 2.28238L2.42973 8.46892C2.47197 8.63792 2.61485 8.76275 2.78795 8.782L9.58592 9.53733C9.82167 9.5635 10 9.76275 10 10C10 10.2373 9.82167 10.4365 9.58592 10.4627L2.78795 11.218C2.61485 11.2373 2.47197 11.3621 2.42973 11.5311L0.883091 17.7176C0.850041 17.8498 0.833333 17.9856 0.833333 18.1218V18.1512C0.833333 18.712 1.288 19.1667 1.84885 19.1667C2.00314 19.1667 2.15541 19.1315 2.29407 19.0638L18.4177 11.1987C18.8759 10.9752 19.1667 10.5099 19.1667 10C19.1667 9.49008 18.8759 9.02483 18.4177 8.80133Z" fill="var(--fill-0, #0C608F)"/>
</g>
<defs>
<clipPath id="clip0_0_111">
<rect width="20" height="20" fill="white"/>
</clipPath>
</defs>
</svg>
