<svg preserveAspectRatio="none" width="100%" height="100%" overflow="visible" style="display: block;" viewBox="0 0 19.5002 22.5" fill="none" xmlns="http://www.w3.org/2000/svg">
<g id="Group">
<path id="Vector" d="M9.75011 10.5C10.1643 10.5 10.5001 10.8358 10.5001 11.25V13.5H12.7501C13.1643 13.5 13.5001 13.8358 13.5001 14.25C13.5001 14.6642 13.1643 15 12.7501 15H10.5001V17.25C10.5001 17.6642 10.1643 18 9.75011 18C9.33588 18 9.00011 17.6642 9.00011 17.25V15H6.75011C6.33588 15 6.00011 14.6642 6.00011 14.25C6.00011 13.8358 6.33588 13.5 6.75011 13.5H9.00011V11.25C9.00011 10.8358 9.33588 10.5 9.75011 10.5Z" fill="var(--fill-0, #0C608F)"/>
<path id="Vector_2" fill-rule="evenodd" clip-rule="evenodd" d="M5.25011 5.25V4.5C5.25011 2.01472 7.26483 0 9.75011 0C12.2354 0 14.2501 2.01472 14.2501 4.5V5.25H14.9058C16.397 5.25 17.6579 6.34991 17.8681 7.8261L19.4697 19.0761C19.7265 20.8803 18.3312 22.5 16.5075 22.5H2.99276C1.16901 22.5 -0.226306 20.8803 0.0305504 19.0761L1.63215 7.8261C1.8423 6.34991 3.1032 5.25 4.59438 5.25H5.25011ZM6.75011 8.25C6.75011 8.66422 6.41433 9 6.00011 9C5.58588 9 5.25011 8.66422 5.25011 8.25V6.75H4.59438C3.85383 6.75 3.22263 7.29679 3.11718 8.03752L1.5156 19.2875C1.38649 20.1942 2.08751 21 2.99276 21H16.5075C17.4127 21 18.1137 20.1942 17.9846 19.2875L16.383 8.03752C16.2776 7.29679 15.6464 6.75 14.9058 6.75H14.2501V8.25C14.2501 8.66422 13.9143 9 13.5001 9C13.0859 9 12.7501 8.66422 12.7501 8.25V6.75H6.75011V8.25ZM12.7501 5.25V4.5C12.7501 2.84314 11.407 1.5 9.75011 1.5C8.09325 1.5 6.75011 2.84314 6.75011 4.5V5.25H12.7501Z" fill="var(--fill-0, #0C608F)"/>
</g>
</svg>
