<svg width="19" height="20" viewBox="0 0 19 20" fill="none" xmlns="http://www.w3.org/2000/svg">
<path d="M18.5852 5.0145C18.4667 3.04387 16.8212 1.5 14.8394 1.5H13.8745V0.75C13.8745 0.336 13.5385 0 13.1245 0C12.7105 0 12.3745 0.336 12.3745 0.75V1.5H6.37449V0.75C6.37449 0.336 6.03849 0 5.62449 0C5.21049 0 4.87449 0.336 4.87449 0.75V1.5H3.90962C1.92737 1.5 0.281869 3.04387 0.163744 5.0145C-0.0586312 8.721 -0.0545062 12.4807 0.176119 16.1891C0.293119 18.0724 1.80174 19.581 3.68499 19.698C5.57237 19.8154 7.47324 19.8739 9.37412 19.8739C11.2746 19.8739 13.1759 19.8154 15.0632 19.698C16.9465 19.581 18.4551 18.0724 18.5721 16.1891C18.8031 12.4826 18.8072 8.72325 18.5852 5.0145ZM17.0755 16.0961C17.005 17.226 16.1001 18.1309 14.9706 18.201C11.2574 18.4316 7.49162 18.4316 3.77837 18.201C2.64849 18.1305 1.74362 17.2256 1.67349 16.0961C1.49612 13.245 1.45974 10.3639 1.55462 7.5H17.1947C17.2892 10.365 17.2529 13.2461 17.0755 16.0961ZM5.62449 4.5C6.03849 4.5 6.37449 4.164 6.37449 3.75V3H12.3745V3.75C12.3745 4.164 12.7105 4.5 13.1245 4.5C13.5385 4.5 13.8745 4.164 13.8745 3.75V3H14.8394C16.0292 3 17.017 3.92437 17.0879 5.10412C17.1055 5.40187 17.113 5.7015 17.1276 6H1.62137C1.63637 5.7015 1.64349 5.40187 1.66112 5.10412C1.73199 3.92437 2.71937 3 3.90962 3H4.87449V3.75C4.87449 4.164 5.21049 4.5 5.62449 4.5Z" fill="#4DBFD9"/>
<path d="M5.625 12C6.24632 12 6.75 11.4963 6.75 10.875C6.75 10.2537 6.24632 9.75 5.625 9.75C5.00368 9.75 4.5 10.2537 4.5 10.875C4.5 11.4963 5.00368 12 5.625 12Z" fill="#4DBFD9"/>
<path d="M9.375 12C9.99632 12 10.5 11.4963 10.5 10.875C10.5 10.2537 9.99632 9.75 9.375 9.75C8.75368 9.75 8.25 10.2537 8.25 10.875C8.25 11.4963 8.75368 12 9.375 12Z" fill="#4DBFD9"/>
<path d="M5.625 15.75C6.24632 15.75 6.75 15.2463 6.75 14.625C6.75 14.0037 6.24632 13.5 5.625 13.5C5.00368 13.5 4.5 14.0037 4.5 14.625C4.5 15.2463 5.00368 15.75 5.625 15.75Z" fill="#4DBFD9"/>
<path d="M13.125 12C13.7463 12 14.25 11.4963 14.25 10.875C14.25 10.2537 13.7463 9.75 13.125 9.75C12.5037 9.75 12 10.2537 12 10.875C12 11.4963 12.5037 12 13.125 12Z" fill="#4DBFD9"/>
<path d="M13.125 15.75C13.7463 15.75 14.25 15.2463 14.25 14.625C14.25 14.0037 13.7463 13.5 13.125 13.5C12.5037 13.5 12 14.0037 12 14.625C12 15.2463 12.5037 15.75 13.125 15.75Z" fill="#4DBFD9"/>
<path d="M9.375 15.75C9.99632 15.75 10.5 15.2463 10.5 14.625C10.5 14.0037 9.99632 13.5 9.375 13.5C8.75368 13.5 8.25 14.0037 8.25 14.625C8.25 15.2463 8.75368 15.75 9.375 15.75Z" fill="#4DBFD9"/>
</svg>
