<svg width="58" height="42" viewBox="0 0 58 42" fill="none" xmlns="http://www.w3.org/2000/svg">
<path d="M57.7873 30.3829C55.4491 27.5507 52.6717 25.1118 49.5611 23.1591C51.3031 18.6286 52.1249 13.7964 51.9787 8.94477C51.9656 8.699 51.8621 8.46675 51.6882 8.29264C51.5142 8.11853 51.2821 8.01483 51.0363 8.00147C46.4871 7.87613 41.9541 8.59633 37.6677 10.1255C35.6329 6.34884 32.9054 2.98892 29.6277 0.221167C29.4498 0.0780322 29.2282 0 28.9998 0C28.7715 0 28.5499 0.0780322 28.3719 0.221167C25.0943 2.98892 22.3668 6.34884 20.3319 10.1255C16.0459 8.59617 11.5131 7.87583 6.96414 8.00107C6.71839 8.01443 6.48624 8.11813 6.31229 8.29224C6.13834 8.46635 6.03487 8.6986 6.02174 8.94437C5.8755 13.7962 6.69744 18.6285 8.43954 23.1591C5.3288 25.1119 2.5514 27.5509 0.213141 30.3834C0.0750605 30.5591 0 30.7761 0 30.9996C0 31.223 0.0750605 31.44 0.213141 31.6158C0.545141 32.0391 8.45824 41.9991 18.5002 41.9991C22.5536 41.9991 26.1879 40.0399 29.0002 38.1948C31.8125 40.0399 35.4468 41.9991 39.5002 41.9991C49.5422 41.9991 57.4553 32.0391 57.7873 31.6153C57.9254 31.4395 58.0005 31.2225 58.0005 30.9991C58.0005 30.7756 57.9254 30.5586 57.7873 30.3829ZM49.9963 9.98287C49.9826 13.0679 49.4416 23.1177 43.2932 29.2829C40.194 32.2063 36.3934 34.2812 32.2583 35.3073C35.3353 32.0913 40.0002 26.0537 40.0002 18.9991C39.9725 16.5709 39.4655 14.1722 38.5085 11.9405C42.2041 10.6607 46.0855 9.99956 49.9963 9.98287ZM29.0002 2.32427C31.1389 4.25687 38.0002 11.0782 38.0002 18.9991C38.0002 26.92 31.1389 33.7413 29.0002 35.6739C26.8615 33.7413 20.0002 26.92 20.0002 18.9991C20.0002 11.0782 26.8615 4.25687 29.0002 2.32427ZM19.4919 11.9405C18.5349 14.1722 18.028 16.5709 18.0002 18.9991C18.0002 26.0537 22.6652 32.0912 25.7422 35.3067C21.6075 34.2809 17.8072 32.2063 14.7082 29.2833C8.55884 23.1182 8.01824 13.0675 8.00414 9.98247C11.915 9.99916 15.7964 10.6607 19.4919 11.9405ZM2.30784 30.9981C4.34106 28.6883 6.68466 26.6715 9.27174 25.0053C10.2962 27.107 11.6543 29.0289 13.2932 30.6964C16.9182 34.1299 21.4244 36.4907 26.3108 37.5164C23.9696 39.0136 21.2762 39.8697 18.5002 39.9991C10.8002 39.9991 4.17024 33.1212 2.30784 30.9981ZM39.5002 39.9991C36.7243 39.8697 34.0309 39.0137 31.6896 37.5166C36.5765 36.4906 41.0831 34.1293 44.7082 30.6954C46.3469 29.0282 47.7047 27.1067 48.7289 25.0054C51.3153 26.6728 53.6587 28.6898 55.6926 30.9991C53.8332 33.1231 47.215 39.9991 39.5002 39.9991Z" fill="#0C608F"/>
</svg>
