<svg preserveAspectRatio="none" width="100%" height="100%" overflow="visible" style="display: block;" viewBox="0 0 64 64" fill="none" xmlns="http://www.w3.org/2000/svg">
<g id="Layer_1" clip-path="url(#clip0_0_563)">
<path id="Vector" d="M11.1284 36.9688C14.1116 35.9595 16.9174 35.6148 19.7075 35.9111C24.8283 36.4559 28.9277 39.0954 32.9136 41.6641C36.5842 44.0296 40.1743 46.3448 44.565 47.0127C48.9608 47.6812 54.1447 46.6973 61.0093 42.5059C61.4393 42.2434 61.9561 42.1629 62.4458 42.2813C62.9356 42.3997 63.359 42.7076 63.6216 43.1377C63.8841 43.5677 63.9645 44.0845 63.8462 44.5742C63.7278 45.064 63.4198 45.4874 62.9898 45.75C56.668 49.6092 51.491 51.0264 47.0698 51.0264C40.4295 51.0267 35.4707 47.8329 30.855 44.8584C27.0694 42.4189 23.5177 40.1285 19.2193 39.6982C14.9153 39.2675 9.88104 40.7021 3.12356 45.6602C2.71733 45.9581 2.20939 46.0823 1.71145 46.0059C1.21342 45.9294 0.766393 45.6582 0.468282 45.252C0.170224 44.8458 0.0452016 44.3378 0.121602 43.8399C0.198088 43.3418 0.46923 42.8938 0.875508 42.5957C4.54993 39.8992 7.90341 38.06 11.1284 36.9688ZM11.1284 25.5527C14.1117 24.5434 16.9177 24.1981 19.7075 24.4951C24.8283 25.0398 28.9278 27.6794 32.9136 30.2481C36.5841 32.6134 40.1734 34.9287 44.564 35.5967C48.9599 36.2654 54.1445 35.2822 61.0093 31.0908C61.4394 30.8282 61.956 30.7468 62.4458 30.8652C62.9354 30.9836 63.358 31.2918 63.6206 31.7217C63.8832 32.1518 63.9647 32.6694 63.8462 33.1592C63.7277 33.6489 63.4188 34.0715 62.9888 34.334C56.6674 38.193 51.4909 39.6103 47.0698 39.6104C40.4295 39.6107 35.4709 36.417 30.855 33.4424C27.0693 31.0029 23.5177 28.7125 19.2193 28.2822C14.9152 27.8514 9.88115 29.286 3.12356 34.2441C2.71734 34.5422 2.20944 34.6663 1.71145 34.5899C1.21337 34.5134 0.765416 34.2422 0.467305 33.8359C0.169407 33.4297 0.0451412 32.9217 0.121602 32.4238C0.198085 31.9258 0.469325 31.4788 0.875508 31.1807C4.55005 28.484 7.90331 26.6438 11.1284 25.5527ZM11.1294 14.1377C14.1125 13.1282 16.9176 12.7825 19.7075 13.0791C24.828 13.6238 28.9273 16.2645 32.9136 18.833C36.5842 21.1985 40.1742 23.5128 44.565 24.1807C48.961 24.8493 54.1457 23.8663 61.0103 19.6748C61.4403 19.4124 61.9571 19.3318 62.4468 19.4502C62.9364 19.5687 63.3591 19.8767 63.6216 20.3066C63.8841 20.7367 63.9656 21.2535 63.8472 21.7432C63.7287 22.233 63.4199 22.6554 62.9898 22.918C56.6683 26.7775 51.4919 28.194 47.0708 28.1943C40.4306 28.1943 35.4716 25.0018 30.856 22.0274C27.0703 19.5878 23.5187 17.2966 19.2202 16.8662C14.9162 16.4353 9.88203 17.8698 3.12453 22.8281C2.92342 22.9757 2.69494 23.0822 2.45266 23.1416C2.21028 23.201 1.95811 23.2127 1.71145 23.1748C1.46489 23.1369 1.22845 23.0503 1.01516 22.9209C0.801781 22.7915 0.615878 22.6212 0.468282 22.4199C0.17032 22.0137 0.0451409 21.5058 0.121602 21.0078C0.198088 20.51 0.469481 20.0627 0.875508 19.7647C4.55059 17.0679 7.90488 15.2289 11.1294 14.1377Z" fill="var(--fill-0, #0C608F)" stroke="var(--stroke-0, white)" stroke-width="0.2"/>
</g>
<defs>
<clipPath id="clip0_0_563">
<rect width="64" height="64" fill="white"/>
</clipPath>
</defs>
</svg>
