<svg preserveAspectRatio="none" width="100%" height="100%" overflow="visible" style="display: block;" viewBox="0 0 72 57" fill="none" xmlns="http://www.w3.org/2000/svg">
<path id="&#226;&#128;&#156;" opacity="0.5" d="M65.0277 0L66.5929 3.07026C60.9012 4.67213 56.1107 7.74239 52.2213 12.281C48.332 16.8197 46.3874 21.4473 46.3874 26.1639C46.3874 30.2576 47.8577 32.3045 50.7984 32.3045C51.9368 32.3045 53.2648 31.993 54.7826 31.37C56.3004 30.6581 58.0553 30.3021 60.0474 30.3021C63.1779 30.3021 65.9289 31.5035 68.3004 33.9063C70.7668 36.3091 72 39.4239 72 43.2506C72 47.2553 70.6245 50.548 67.8735 53.1288C65.1225 55.7096 61.6601 57 57.4862 57C52.5534 57 48.6166 54.9977 45.6759 50.993C42.7352 46.9883 41.2648 41.4262 41.2648 34.3068C41.2648 24.9625 43.6364 17.3981 48.3794 11.6136C53.1225 5.74005 58.6719 1.86885 65.0277 0ZM23.7628 0L25.3281 3.07026C19.6364 4.67213 14.8458 7.74239 10.9565 12.281C7.06719 16.8197 5.12253 21.4473 5.12253 26.1639C5.12253 30.2576 6.59289 32.3045 9.5336 32.3045C10.6719 32.3045 12 31.993 13.5178 31.37C15.0356 30.6581 16.7905 30.3021 18.7826 30.3021C21.913 30.3021 24.664 31.5035 27.0356 33.9063C29.502 36.3091 30.7352 39.4239 30.7352 43.2506C30.7352 47.2553 29.3597 50.548 26.6087 53.1288C23.8577 55.7096 20.3953 57 16.2213 57C11.2885 57 7.35178 54.9977 4.41107 50.993C1.47036 46.9883 0 41.4262 0 34.3068C0 24.9625 2.37154 17.3981 7.11462 11.6136C11.8577 5.74005 17.4071 1.86885 23.7628 0Z" fill="var(--fill-0, #B8E2EC)"/>
</svg>
