<svg preserveAspectRatio="none" width="100%" height="100%" overflow="visible" style="display: block;" viewBox="0 0 57.193 58.4266" fill="none" xmlns="http://www.w3.org/2000/svg">
<g id="Group">
<path id="Vector" d="M46.6225 13.8443H39.6714V8.48803C39.6714 6.75083 41.0797 5.34255 42.8169 5.34255H43.4769C45.2141 5.34255 46.6223 6.75083 46.6223 8.48803V13.8443H46.6225Z" stroke="var(--stroke-0, white)" stroke-width="1.8" stroke-miterlimit="10" stroke-linecap="round" stroke-linejoin="round"/>
<path id="Vector_2" d="M50.421 20.6924H35.872C35.5531 20.6924 35.2945 20.4338 35.2945 20.1149V14.4217C35.2945 14.1027 35.5531 13.8441 35.872 13.8441H50.421C50.7399 13.8441 50.9985 14.1027 50.9985 14.4217V20.1149C50.9985 20.4339 50.7399 20.6924 50.421 20.6924Z" stroke="var(--stroke-0, white)" stroke-width="1.8" stroke-miterlimit="10" stroke-linecap="round" stroke-linejoin="round"/>
<path id="Vector_3" d="M52.3788 25.615C50.8855 25.615 49.6751 24.4045 49.6751 22.9113V20.6924H36.6194V22.9113C36.6194 24.4045 35.4089 25.615 33.9158 25.615C31.754 25.615 30.0015 27.3674 30.0015 29.5292V53.6123C30.0015 55.7741 31.754 57.5266 33.9158 57.5266H52.3788C54.5405 57.5266 56.293 55.7741 56.293 53.6123V29.5291C56.2929 27.3674 54.5405 25.615 52.3788 25.615Z" stroke="var(--stroke-0, white)" stroke-width="1.8" stroke-miterlimit="10" stroke-linecap="round" stroke-linejoin="round"/>
<path id="Vector_4" d="M46.9701 43.1916C46.9701 45.2871 45.2847 46.9891 43.1956 47.016C40.9545 47.0448 39.2197 45.1035 39.3286 42.8649C39.4697 39.9691 41.4326 37.0201 42.4868 35.6337C42.8119 35.2062 43.4564 35.2149 43.7676 35.6526C44.8512 37.1758 46.9701 40.4986 46.9701 43.1916Z" stroke="var(--stroke-0, white)" stroke-width="1.8" stroke-miterlimit="10" stroke-linecap="round" stroke-linejoin="round"/>
<path id="Vector_5" d="M8.99896 50.0935C8.99896 52.3131 7.21385 54.1159 5.00099 54.1443C2.6272 54.1749 0.789654 52.1187 0.905111 49.7475C1.05452 46.6804 3.13356 43.5568 4.25022 42.0883C4.5945 41.6354 5.27713 41.6447 5.60699 42.1083C6.75458 43.7217 8.99896 47.2412 8.99896 50.0935Z" stroke="var(--stroke-0, white)" stroke-width="1.8" stroke-miterlimit="10" stroke-linecap="round" stroke-linejoin="round"/>
<path id="Vector_6" d="M30.6617 9.57597L25.5405 5.92204L28.1827 2.21893C29.1917 0.804723 31.1561 0.476258 32.5702 1.48526C33.9844 2.49426 34.3128 4.45865 33.3038 5.87274L30.6617 9.57597Z" stroke="var(--stroke-0, white)" stroke-width="1.8" stroke-miterlimit="10" stroke-linecap="round" stroke-linejoin="round"/>
<path id="Vector_7" d="M12.8933 23.6502L21.9422 10.9675L27.0633 14.6214L11.793 36.0239C10.784 37.4381 8.81958 37.7666 7.4055 36.7576C5.99129 35.7486 5.66283 33.7842 6.67183 32.3701L10.5852 26.8851" stroke="var(--stroke-0, white)" stroke-width="1.8" stroke-miterlimit="10" stroke-linecap="round" stroke-linejoin="round"/>
<path id="Vector_8" d="M7.4066 36.7575L6.2983 38.141" stroke="var(--stroke-0, white)" stroke-width="1.8" stroke-miterlimit="10" stroke-linecap="round" stroke-linejoin="round"/>
<path id="Vector_9" d="M49.6734 31.5377H55.9417" stroke="var(--stroke-0, white)" stroke-width="1.8" stroke-miterlimit="10" stroke-linecap="round" stroke-linejoin="round"/>
<path id="Vector_10" d="M30.3511 31.5377H45.4867" stroke="var(--stroke-0, white)" stroke-width="1.8" stroke-miterlimit="10" stroke-linecap="round" stroke-linejoin="round"/>
<path id="Vector_11" d="M30.3511 50.8623H55.9407" stroke="var(--stroke-0, white)" stroke-width="1.8" stroke-miterlimit="10" stroke-linecap="round" stroke-linejoin="round"/>
</g>
</svg>
