<svg preserveAspectRatio="none" width="100%" height="100%" overflow="visible" style="display: block;" viewBox="0 0 59.062 60.0003" fill="none" xmlns="http://www.w3.org/2000/svg">
<g id="Outline">
<path id="Vector" d="M33.2918 26.671C34.331 27.7259 35.5697 28.5636 36.9358 29.1351C38.3019 29.7067 39.768 30.0008 41.2488 30.0003H41.2523C42.733 30.0006 44.1989 29.7065 45.5647 29.1349C46.9306 28.5633 48.1691 27.7258 49.2082 26.671C51.3221 24.5356 52.5055 21.6507 52.5 18.646C52.4768 17.7263 52.3124 16.8157 52.0125 15.946C51.6778 14.9458 51.2688 13.972 50.7891 13.0327C49.5609 10.5823 47.7012 7.69834 45.2613 4.45927C43.5164 2.14482 42.116 0.507712 41.9625 0.328415L41.9602 0.3249C41.8721 0.222852 41.763 0.141004 41.6404 0.0849383C41.5178 0.0288723 41.3845 -9.27645e-05 41.2497 1.84666e-05C41.1149 0.000129698 40.9817 0.0293147 40.8592 0.0855829C40.7367 0.141851 40.6278 0.223879 40.5398 0.326072L40.5363 0.329587C40.2574 0.655368 37.7309 3.61553 35.202 7.27529C35.0607 7.47995 35.0065 7.73235 35.0514 7.97695C35.0962 8.22155 35.2364 8.43833 35.441 8.57959C35.6457 8.72085 35.8981 8.77502 36.1427 8.73018C36.3873 8.68535 36.6041 8.54519 36.7453 8.34052C38.0812 6.40693 39.4301 4.66084 40.3266 3.53701C40.6395 3.14326 40.9512 2.76006 41.25 2.39677C42.2625 3.6249 44.2348 6.09287 46.1133 8.86318C47.4621 10.853 48.5285 12.6554 49.2844 14.221C50.1574 16.014 50.6344 17.5854 50.625 18.646C50.6335 21.1575 49.6446 23.5697 47.8758 25.3526C47.0102 26.2308 45.9787 26.9282 44.8413 27.4042C43.7038 27.8802 42.483 28.1253 41.25 28.1253C40.017 28.1253 38.7962 27.8802 37.6587 27.4042C36.5213 26.9282 35.4898 26.2308 34.6242 25.3526C32.8551 23.5699 31.8662 21.1576 31.875 18.646C31.868 17.6722 32.2711 16.2565 33.0094 14.6581C33.1126 14.4321 33.1219 14.1744 33.0354 13.9415C32.9488 13.7087 32.7734 13.5196 32.5477 13.4159C32.4254 13.3591 32.2922 13.3299 32.1574 13.3304C31.9779 13.3305 31.8022 13.3821 31.6512 13.4791C31.5002 13.5761 31.3802 13.7144 31.3055 13.8776C30.4207 15.8194 30.0059 17.3347 30 18.646C29.9945 21.6507 31.1779 24.5356 33.2918 26.671Z" fill="var(--fill-0, white)"/>
<path id="Vector_2" d="M33.4477 11.7624C33.6065 11.8579 33.7901 11.9041 33.9753 11.8952C34.1604 11.8864 34.3388 11.8228 34.4878 11.7126C34.6368 11.6024 34.7499 11.4505 34.8126 11.2761C34.8754 11.1017 34.885 10.9127 34.8403 10.7328C34.7956 10.5529 34.6986 10.3903 34.5616 10.2655C34.4245 10.1407 34.2535 10.0594 34.0703 10.0318C33.887 10.0041 33.6996 10.0314 33.5319 10.1102C33.3641 10.189 33.2235 10.3158 33.1277 10.4745C33.1277 10.4748 33.1276 10.4751 33.1274 10.4753C33.1272 10.4756 33.1269 10.4757 33.1266 10.4757C32.9989 10.689 32.961 10.9442 33.0212 11.1854C33.0814 11.4266 33.2348 11.6341 33.4477 11.7624Z" fill="var(--fill-0, white)"/>
<path id="Vector_3" d="M45.0008 25.0519C45.1951 25.0521 45.3845 24.9915 45.5427 24.8788C46.5353 24.1708 47.3443 23.2356 47.9023 22.1515C48.4602 21.0673 48.7508 19.8654 48.75 18.6461C48.75 18.3975 48.6512 18.159 48.4754 17.9832C48.2996 17.8074 48.0611 17.7086 47.8125 17.7086C47.5639 17.7086 47.3254 17.8074 47.1496 17.9832C46.9738 18.159 46.875 18.3975 46.875 18.6461C46.8761 19.5661 46.6572 20.473 46.2366 21.2912C45.8161 22.1095 45.206 22.8153 44.4573 23.3499C44.2951 23.465 44.1737 23.6288 44.1106 23.8175C44.0476 24.0062 44.0463 24.2101 44.1068 24.3996C44.1673 24.5891 44.2866 24.7545 44.4473 24.8718C44.608 24.989 44.8019 25.0521 45.0008 25.0519Z" fill="var(--fill-0, white)"/>
<path id="Vector_4" d="M41.25 26.2503C41.7678 26.2503 42.1875 25.8306 42.1875 25.3128C42.1875 24.795 41.7678 24.3753 41.25 24.3753C40.7322 24.3753 40.3125 24.795 40.3125 25.3128C40.3125 25.8306 40.7322 26.2503 41.25 26.2503Z" fill="var(--fill-0, white)"/>
<path id="Vector_5" d="M37.0678 43.1985L28.8592 45.0226C28.739 45.0493 28.6252 45.0994 28.5244 45.17C28.4236 45.2407 28.3377 45.3305 28.2716 45.4344C28.2055 45.5383 28.1605 45.6541 28.1391 45.7754C28.1178 45.8966 28.1206 46.0209 28.1473 46.1411C28.174 46.2613 28.2241 46.3751 28.2947 46.4759C28.3654 46.5767 28.4552 46.6626 28.5591 46.7287C28.663 46.7948 28.7788 46.8398 28.9001 46.8612C29.0214 46.8825 29.1456 46.8797 29.2658 46.853L37.7033 44.978C37.8536 44.9446 37.9933 44.8747 38.1102 44.7746L44.6727 39.1496C44.6909 39.134 44.7085 39.1177 44.7254 39.1007L48.4754 35.3507C48.5625 35.2637 48.6315 35.1603 48.6787 35.0466C48.7258 34.9328 48.75 34.8109 48.75 34.6878C48.75 34.5647 48.7258 34.4428 48.6787 34.329C48.6315 34.2153 48.5625 34.1119 48.4754 34.0249C47.563 33.1145 46.3297 32.5985 45.0408 32.5878C43.7519 32.5771 42.5103 33.0725 41.5828 33.9676L35.2567 38.4863L30.1549 39.3365C28.3847 38.4221 19.1377 33.7503 15 33.7503C14.7514 33.7503 14.5129 33.8491 14.3371 34.0249C14.1613 34.2007 14.0625 34.4391 14.0625 34.6878C14.0625 34.9364 14.1613 35.1749 14.3371 35.3507C14.5129 35.5265 14.7514 35.6253 15 35.6253C18.343 35.6253 26.6462 39.6079 29.5635 41.1425C29.7447 41.2379 29.9521 41.2712 30.1541 41.2375L35.7791 40.3C35.92 40.2765 36.0537 40.2212 36.1699 40.1382L42.7324 35.4507C42.7744 35.4206 42.8139 35.3872 42.8504 35.3507C43.3051 34.8972 43.8914 34.599 44.5257 34.4987C45.16 34.3984 45.8097 34.5012 46.3821 34.7923L43.4251 37.7493L37.0678 43.1985Z" fill="var(--fill-0, white)"/>
<path id="Vector_6" d="M58.9635 47.3935C58.3341 46.1342 57.3039 45.1198 56.0351 44.51C54.7662 43.9001 53.3306 43.7294 51.954 44.0246C51.8325 44.0493 51.7172 44.0978 51.6146 44.1673C51.512 44.2369 51.4242 44.3261 51.3563 44.4298C51.2884 44.5335 51.2417 44.6497 51.219 44.7715C51.1963 44.8934 51.198 45.0185 51.2239 45.1397C51.2499 45.261 51.2996 45.3758 51.3703 45.4777C51.4409 45.5795 51.5311 45.6663 51.6355 45.7331C51.74 45.7999 51.8566 45.8453 51.9787 45.8667C52.1008 45.8882 52.2259 45.8851 52.3468 45.8579C53.1101 45.6942 53.9029 45.7331 54.6464 45.9707C55.39 46.2082 56.0585 46.6361 56.5855 47.212L41.9722 50.6503C41.8517 50.6778 41.7378 50.7289 41.6371 50.8006C41.5364 50.8724 41.4509 50.9633 41.3855 51.0682C41.3201 51.1731 41.2761 51.2899 41.256 51.4119C41.2359 51.5339 41.2402 51.6587 41.2685 51.779C41.2968 51.8993 41.3487 52.0129 41.4211 52.1131C41.4935 52.2133 41.585 52.2983 41.6903 52.363C41.7956 52.4277 41.9127 52.4709 42.0348 52.4902C42.157 52.5095 42.2817 52.5044 42.4018 52.4753L58.3393 48.7253C58.4771 48.6929 58.6056 48.6297 58.7155 48.5406C58.8253 48.4514 58.9135 48.3385 58.9735 48.2104C59.0335 48.0822 59.0637 47.9422 59.0619 47.8007C59.0601 47.6593 59.0263 47.52 58.963 47.3935H58.9635Z" fill="var(--fill-0, white)"/>
<path id="Vector_7" d="M17.625 31.0772C20.3391 31.7042 22.725 32.8479 24.7195 34.4757C25.4063 35.037 26.6438 35.9827 28.5035 37.3655C28.6643 37.4864 28.8602 37.5515 29.0613 37.5507C29.2586 37.5511 29.451 37.4893 29.6111 37.374C29.7712 37.2588 29.8908 37.0959 29.953 36.9087C30.0152 36.7215 30.0167 36.5195 29.9574 36.3313C29.8981 36.1432 29.781 35.9785 29.6227 35.8608C28.3758 34.9339 26.7188 33.6894 25.9055 33.0237C23.6871 31.2108 21.0422 29.9417 18.0469 29.2503C17.9774 29.2339 17.9062 29.2256 17.8348 29.2257C17.6041 29.2253 17.3815 29.31 17.2094 29.4635C17.0372 29.617 16.9277 29.8285 16.9018 30.0576C16.8758 30.2868 16.9352 30.5175 17.0686 30.7056C17.2021 30.8937 17.4001 31.026 17.625 31.0772Z" fill="var(--fill-0, white)"/>
<path id="Vector_8" d="M0.9375 32.8128C1.03665 32.813 1.13519 32.7971 1.2293 32.7659L4.03242 31.8495C6.12141 31.201 8.27536 30.784 10.4555 30.6062C10.7035 30.5864 10.9335 30.469 11.0949 30.2796C11.2563 30.0903 11.3359 29.8446 11.3162 29.5966C11.2965 29.3486 11.179 29.1185 10.9897 28.9571C10.8004 28.7957 10.5547 28.7161 10.3066 28.7358C7.9879 28.9267 5.69696 29.3703 3.47461 30.0589L0.645703 30.9847C0.433979 31.0543 0.253972 31.197 0.137961 31.3873C0.0219509 31.5776 -0.0224734 31.803 0.0126549 32.0231C0.0477833 32.2431 0.160166 32.4435 0.329651 32.5882C0.499135 32.733 0.714633 32.8126 0.9375 32.8128Z" fill="var(--fill-0, white)"/>
<path id="Vector_9" d="M14.0695 30.5687C14.0883 30.5698 14.1082 30.571 14.1293 30.571C14.3776 30.5729 14.6167 30.4771 14.795 30.3042C14.9733 30.1314 15.0765 29.8953 15.0823 29.6471C15.0881 29.3988 14.996 29.1583 14.826 28.9773C14.656 28.7963 14.4217 28.6894 14.1735 28.6796C13.9254 28.6699 13.6834 28.7581 13.4997 28.9253C13.3161 29.0924 13.2055 29.325 13.1918 29.573C13.1782 29.8209 13.2626 30.0643 13.4268 30.2505C13.591 30.4368 13.8218 30.5511 14.0695 30.5687Z" fill="var(--fill-0, white)"/>
<path id="Vector_10" d="M50.694 53.0979L48.109 52.2363C47.8731 52.1576 47.6156 52.1759 47.3932 52.2871C47.1709 52.3983 47.0017 52.5933 46.9231 52.8292C46.8445 53.0651 46.8628 53.3225 46.974 53.5449C47.0851 53.7673 47.2801 53.9364 47.516 54.0151L50.1011 54.8767C50.7123 55.0805 51.2305 55.4963 51.562 56.0488C51.8934 56.6014 52.0163 57.2543 51.9083 57.8895L33.3135 51.9387L42.5755 47.7288C42.5934 47.7206 42.6113 47.7118 42.6287 47.7025L56.6912 40.2025C56.8105 40.1389 56.9147 40.0502 56.9965 39.9425C57.0783 39.8348 57.1359 39.7107 57.1652 39.5787C57.1945 39.4466 57.195 39.3098 57.1664 39.1776C57.1379 39.0454 57.0811 38.921 57 38.8128C56.0795 37.5844 54.7568 36.7182 53.2628 36.3655C51.7688 36.0128 50.1984 36.196 48.8257 36.8831C48.6039 36.9946 48.4353 37.1895 48.3571 37.4252C48.2788 37.6608 48.2972 37.9178 48.4083 38.1399C48.5193 38.362 48.7139 38.5309 48.9493 38.6097C49.1848 38.6885 49.4419 38.6707 49.6642 38.5601C50.4722 38.1557 51.3801 37.994 52.278 38.0945C53.176 38.1951 54.0256 38.5535 54.7242 39.1265L41.7727 46.034L31.6719 50.6253H26.4619L6.96551 41.3413C6.83961 41.2814 6.70193 41.2503 6.5625 41.2503H0.9375C0.68886 41.2503 0.450403 41.3491 0.274587 41.5249C0.0987721 41.7007 0 41.9391 0 42.1878C0 42.4364 0.0987721 42.6749 0.274587 42.8507C0.450403 43.0265 0.68886 43.1253 0.9375 43.1253H6.35063L25.847 52.4092C25.9729 52.4692 26.1106 52.5003 26.25 52.5003H28.9161L52.2143 59.9558C52.4274 60.0239 52.6578 60.0136 52.864 59.9268C53.0701 59.8399 53.2384 59.6822 53.3385 59.4821C53.6315 58.896 53.7951 58.2538 53.8183 57.599C53.8416 56.9441 53.7238 56.2919 53.4731 55.6866C53.2223 55.0812 52.8444 54.5368 52.3649 54.0902C51.8855 53.6436 51.3156 53.3052 50.694 53.0979Z" fill="var(--fill-0, white)"/>
</g>
</svg>
