<svg preserveAspectRatio="none" width="100%" height="100%" overflow="visible" style="display: block;" viewBox="0 0 702.957 92.256" fill="none" xmlns="http://www.w3.org/2000/svg">
<g id="Bioelements">
<path d="M47.244 44.516C58.652 47.368 65.1 55.304 65.1 66.96C65.1 80.972 55.676 91.264 36.456 91.264H0V3.224H31.744C50.468 3.224 60.512 10.664 60.512 24.676C60.512 32.612 56.916 40.672 47.244 44.392V44.516ZM17.112 18.6V39.308H29.636C36.58 39.308 42.904 36.084 42.904 28.892C42.904 22.692 38.688 18.6 28.52 18.6H17.112ZM31.248 75.888C40.548 75.888 46.872 72.292 46.872 64.728C46.872 57.784 41.788 53.32 31.372 53.32H17.112V75.888H31.248Z" fill="var(--fill-0, white)"/>
<path d="M87.9673 22.196C82.5113 22.196 77.9233 17.732 77.9233 12.276C77.9233 6.82 82.5113 2.35601 87.9673 2.35601C93.5473 2.35601 98.1353 6.82 98.1353 12.276C98.1353 17.732 93.5473 22.196 87.9673 22.196ZM79.7833 91.264V30.752H96.0273V91.264H79.7833Z" fill="var(--fill-0, white)"/>
<path d="M142.08 92.256C122.86 92.256 109.964 79.112 109.964 61.008C109.964 42.904 122.86 29.76 142.08 29.76C160.928 29.76 174.32 42.408 174.32 61.008C174.32 79.608 160.928 92.256 142.08 92.256ZM142.08 77.748C150.884 77.748 157.828 70.804 157.828 61.008C157.828 51.088 151.132 44.268 142.08 44.268C132.656 44.268 126.332 51.46 126.332 61.008C126.332 70.432 132.904 77.748 142.08 77.748Z" fill="var(--fill-0, white)"/>
<path d="M243.717 60.388C243.717 62.372 243.717 65.224 243.345 66.216H200.813C202.797 73.408 208.501 77.872 216.313 77.872C222.761 77.996 227.473 75.144 230.821 71.052L241.361 80.848C236.153 87.42 227.349 92.256 215.197 92.256C197.465 92.256 184.073 79.856 184.073 60.884C184.073 42.532 196.845 29.76 214.081 29.76C231.813 29.76 243.717 42.656 243.717 60.388ZM214.577 44.02C208.005 44.02 202.797 47.616 200.937 54.56H227.597C225.985 48.236 221.645 44.02 214.577 44.02Z" fill="var(--fill-0, white)"/>
<path d="M257.428 91.264V0H273.672V91.264H257.428Z" fill="var(--fill-0, white)"/>
<path d="M347.252 60.388C347.252 62.372 347.252 65.224 346.88 66.216H304.348C306.332 73.408 312.036 77.872 319.848 77.872C326.296 77.996 331.008 75.144 334.356 71.052L344.896 80.848C339.688 87.42 330.884 92.256 318.732 92.256C301 92.256 287.608 79.856 287.608 60.884C287.608 42.532 300.38 29.76 317.616 29.76C335.348 29.76 347.252 42.656 347.252 60.388ZM318.112 44.02C311.54 44.02 306.332 47.616 304.472 54.56H331.132C329.52 48.236 325.18 44.02 318.112 44.02Z" fill="var(--fill-0, white)"/>
<path d="M433.999 29.76C447.143 29.76 455.327 37.572 455.327 56.048V91.264H439.083V60.016C439.083 50.344 436.107 44.268 428.543 44.268C421.723 44.268 416.143 50.096 416.143 61.008V91.264H399.899V60.016C399.899 50.344 396.799 44.268 389.235 44.268C381.919 44.268 376.463 50.096 376.463 61.008V91.264H360.219V30.752H376.463V38.812H376.587C381.299 32.86 387.871 29.76 394.691 29.76C402.627 29.76 408.951 32.736 412.671 39.432H412.919C417.879 33.108 425.319 29.76 433.999 29.76Z" fill="var(--fill-0, white)"/>
<path d="M527.198 60.388C527.198 62.372 527.198 65.224 526.826 66.216H484.294C486.278 73.408 491.982 77.872 499.794 77.872C506.242 77.996 510.954 75.144 514.302 71.052L524.842 80.848C519.634 87.42 510.83 92.256 498.678 92.256C480.946 92.256 467.554 79.856 467.554 60.884C467.554 42.532 480.326 29.76 497.562 29.76C515.294 29.76 527.198 42.656 527.198 60.388ZM498.058 44.02C491.486 44.02 486.278 47.616 484.418 54.56H511.078C509.466 48.236 505.126 44.02 498.058 44.02Z" fill="var(--fill-0, white)"/>
<path d="M576 29.76C589.02 29.76 598.072 36.704 598.072 55.304V91.264H581.828V59.396C581.828 47.864 577.736 44.268 570.172 44.268C561.988 44.268 556.408 49.972 556.408 60.76V91.264H540.164V30.752H556.408V38.564H556.656C561.616 32.736 568.56 29.76 576 29.76Z" fill="var(--fill-0, white)"/>
<path d="M632.395 92.256C621.979 92.256 615.159 85.808 615.159 72.168V44.144H607.967V30.752H615.159V10.912L631.279 9.176V30.752H647.771V44.144H631.279V69.936C631.279 75.144 632.891 77.624 636.611 77.624C638.595 77.624 641.571 76.88 644.299 75.516L648.515 88.536C644.547 90.644 640.579 92.256 632.395 92.256Z" fill="var(--fill-0, white)"/>
<path d="M679.397 92.256C669.725 92.256 661.541 89.156 654.845 83.452L662.781 72.168C667.741 76.88 672.949 79.236 679.521 79.236C684.233 79.236 686.961 77.252 686.961 74.276C686.961 71.424 683.861 70.06 675.925 67.58C666.005 64.232 657.325 59.52 657.325 47.864C657.325 36.952 666.749 29.76 679.149 29.76C687.581 29.76 694.401 31.992 701.221 37.324L693.409 49.228C688.697 44.764 683.365 42.78 678.901 42.78C676.297 42.78 672.949 44.144 672.949 47.368C672.949 49.848 676.173 51.584 682.125 53.816C695.269 58.652 702.957 61.504 702.957 73.408C702.957 84.196 695.269 92.256 679.397 92.256Z" fill="var(--fill-0, white)"/>
</g>
</svg>
