<svg preserveAspectRatio="none" width="100%" height="100%" overflow="visible" style="display: block;" viewBox="0 0 64 64" fill="none" xmlns="http://www.w3.org/2000/svg">
<g id="Outline">
<path id="Vector" d="M26.51 38.18C24.96 38.18 23.53 37.47 22.6 36.23C22.27 35.79 22.35 35.16 22.79 34.83C23.23 34.5 23.86 34.58 24.19 35.02C24.75 35.76 25.59 36.18 26.51 36.18C27.43 36.18 28.27 35.76 28.83 35.02C29.16 34.58 29.79 34.49 30.23 34.83C30.67 35.16 30.76 35.79 30.42 36.23C29.48 37.47 28.05 38.18 26.51 38.18ZM40.83 35.02C40.27 35.76 39.43 36.18 38.51 36.18C37.59 36.18 36.75 35.76 36.19 35.02C35.86 34.58 35.23 34.49 34.79 34.83C34.35 35.16 34.26 35.79 34.6 36.23C35.54 37.47 36.97 38.18 38.51 38.18C40.05 38.18 41.49 37.47 42.42 36.23C42.75 35.79 42.67 35.16 42.23 34.83C41.79 34.5 41.16 34.58 40.83 35.02ZM34.73 45.35C34.23 45.81 33.4 46.08 32.52 46.08C31.64 46.08 30.81 45.81 30.31 45.35C29.9 44.98 29.27 45.01 28.9 45.42C28.53 45.83 28.56 46.46 28.97 46.83C29.84 47.62 31.14 48.07 32.52 48.07C33.9 48.07 35.2 47.62 36.07 46.83C36.48 46.46 36.51 45.83 36.14 45.42C35.77 45.01 35.14 44.98 34.73 45.35ZM58.6 52.99C58.6 53.4 58.34 53.77 57.95 53.91C54.79 55.09 53.38 58.5 53.36 58.53C53.21 58.91 52.84 59.15 52.43 59.15C52.02 59.15 51.66 58.9 51.5 58.53C50.12 55.1 46.95 53.93 46.92 53.92C46.54 53.78 46.27 53.42 46.26 53.02C46.24 52.61 46.48 52.23 46.85 52.07C50.46 50.47 51.44 47.61 51.48 47.49C51.61 47.08 51.99 46.81 52.42 46.8C52.82 46.76 53.23 47.06 53.37 47.46C54.49 50.61 57.93 52.03 57.96 52.04C58.34 52.19 58.59 52.57 58.59 52.98L58.6 52.99ZM55.48 52.95C54.52 52.31 53.33 51.34 52.43 49.98C51.81 50.9 50.84 52.02 49.38 52.97C50.34 53.6 51.52 54.59 52.46 56.04C53.1 55.07 54.09 53.87 55.48 52.95ZM41.91 53.6V60C41.91 60.55 41.46 61 40.91 61C40.36 61 39.91 60.55 39.91 60V54.76C37.65 55.87 35.13 56.5 32.51 56.5C32.41 56.5 32.31 56.5 32.2 56.5C29.52 56.45 26.95 55.72 24.66 54.46V60C24.66 60.55 24.21 61 23.66 61C23.11 61 22.66 60.55 22.66 60V53.17C20.31 51.4 18.39 49.01 17.16 46.19C15.22 48.1 14.33 50.27 14.32 50.3C14.17 50.68 13.8 50.93 13.39 50.93C12.98 50.93 12.61 50.68 12.46 50.3C10.55 45.55 6.1 43.89 6.06 43.88C5.68 43.74 5.41 43.38 5.4 42.97C5.39 42.56 5.62 42.19 5.99 42.02C8.8 40.77 10.46 38.98 11.39 37.6C10.78 35.61 10.55 34.1 10.54 34.03C8.71 24.34 15.11 17.45 15.38 17.16C16.42 15.88 17.62 14.8 18.89 13.88C20 7.64 25.49 2.99 31.86 2.99H33.16C39.55 2.99 45.05 7.66 46.14 13.92C47.42 14.85 48.64 15.92 49.69 17.21C49.91 17.44 56.31 24.33 54.48 34.06C54.43 34.37 53.14 42.69 48.37 46.27C48.23 46.38 48.07 46.43 47.9 46.45C46.6 49.39 44.5 51.85 41.9 53.59L41.91 53.6ZM39.81 12.77C40.02 13.22 40.17 13.66 40.25 14.03C40.93 18.64 38.38 20.79 37.26 21.5C36.91 21.72 36.51 21.88 36.09 22.01C48 26.57 48.11 34.33 48.08 35.26L48.63 43.28C51.59 39.71 52.51 33.81 52.51 33.74C54.16 25 48.25 18.61 48.19 18.55C45.87 15.71 42.71 13.92 39.8 12.78L39.81 12.77ZM21.38 12.32C26.8 9.37 32.51 8.87 32.85 8.85C34.64 8.73 36.05 9.14 37.14 9.79C39.09 10.31 41.4 11.13 43.66 12.36C42.07 8.04 37.91 5.01 33.16 5.01H31.86C27.13 5.01 22.98 8.03 21.38 12.33V12.32ZM12.51 33.7C12.51 33.7 12.6 34.28 12.8 35.12C12.96 35 13.16 34.93 13.37 34.93C13.79 34.92 14.18 35.19 14.33 35.59C14.86 37.07 15.74 38.26 16.68 39.21L16.95 35.25C16.91 34.17 17.04 24.02 35.23 20.17C35.59 20.09 35.91 19.97 36.19 19.79C37.4 19.03 38.74 17.47 38.28 14.38C38.26 14.3 37.34 10.54 32.99 10.83C32.9 10.83 22.34 11.77 16.88 18.48C16.77 18.6 10.87 24.99 12.51 33.69V33.7ZM18.14 42.89C16.7 42.01 14.73 40.49 13.37 38.22C12.53 39.59 11.04 41.43 8.59 42.91C10.01 43.77 11.97 45.28 13.41 47.72C14.3 46.27 15.83 44.27 18.14 42.88V42.89ZM46.68 44.07L46.08 35.33C46.08 35.33 46.08 35.24 46.08 35.19C46.1 34.86 46.35 26.9 32.51 22.91C18.69 26.89 18.95 34.84 18.96 35.2V35.33L18.58 40.78C19.76 41.59 20.71 41.98 20.73 41.99C21.11 42.14 21.36 42.52 21.36 42.93C21.36 43.34 21.1 43.71 20.71 43.86C20 44.13 19.36 44.48 18.78 44.87C21.02 50.55 26.33 54.4 32.24 54.51H32.51C38.98 54.51 44.75 50.26 46.68 44.08V44.07Z" fill="var(--fill-0, white)"/>
</g>
</svg>
