<svg width="80" height="35" viewBox="0 0 80 35" fill="none" xmlns="http://www.w3.org/2000/svg">
<path d="M57.6079 33.7099L78.817 18.9749V19.0008C80.1603 18.0686 80.1603 16.1263 78.817 15.1941L57.6079 0.459091C55.9804 -0.680345 53.7071 0.433193 53.7071 2.34952V10.3256C53.7071 11.4391 52.7771 12.3455 51.6146 12.3455H3.6683C1.67915 12.3455 0.0774995 13.8475 0 15.712V18.8972C0 20.8395 1.65332 22.4191 3.6683 22.4191H51.6146C52.7771 22.4191 53.7071 23.3255 53.7071 24.439V31.8195C53.7071 33.7099 55.9804 34.8493 57.6079 33.7099Z" fill="url(#paint0_linear_1440_7258)"/>
<defs>
<linearGradient id="paint0_linear_1440_7258" x1="-245.337" y1="13.8725" x2="570.164" y2="13.8725" gradientUnits="userSpaceOnUse">
<stop stop-color="#4DBFD9"/>
<stop offset="0.99" stop-color="#1B62A1"/>
</linearGradient>
</defs>
</svg>
