<svg width="80" height="35" viewBox="0 0 80 35" fill="none" xmlns="http://www.w3.org/2000/svg">
<path d="M57.608 0.454792L78.817 15.1898V15.1639C80.1603 16.0961 80.1603 18.0384 78.817 18.9706L57.608 33.7056C55.9805 34.845 53.7071 33.7315 53.7071 31.8152V24.4348C53.7071 23.3212 52.7771 22.4148 51.6146 22.4148H3.66833C1.65335 22.4148 0 20.8352 0 18.8929V15.7077C0.0774995 13.8432 1.70501 12.3412 3.66833 12.3412H51.6146C52.7771 12.3412 53.7071 11.4348 53.7071 10.3213V2.34522C53.7071 0.454791 55.9805 -0.684644 57.608 0.454792Z" fill="url(#paint0_linear_1440_7260)"/>
<defs>
<linearGradient id="paint0_linear_1440_7260" x1="-490.314" y1="13.894" x2="325.187" y2="13.894" gradientUnits="userSpaceOnUse">
<stop stop-color="#4DBFD9"/>
<stop offset="0.99" stop-color="#1B62A1"/>
</linearGradient>
</defs>
</svg>
