<svg width="40" height="40" viewBox="0 0 40 40" fill="none" xmlns="http://www.w3.org/2000/svg">
<path d="M28.9287 1.55957C30.4884 0.000602687 33.0252 -0.000114457 34.585 1.55957C36.1446 3.11892 36.1444 5.65635 34.585 7.21582L30.2129 11.5869L31.1982 12.5732H31.1992C31.8801 13.255 31.8886 14.3558 31.2275 15.0498V15.0537L31.1982 15.083C30.5037 15.7757 29.383 15.7756 28.6895 15.082L27.7041 14.0967L16.252 25.5488C15.2494 26.5517 14.0006 27.293 12.6396 27.6934C11.4994 28.0286 10.4584 28.647 9.62305 29.4824L8.65332 30.4531C7.84279 31.2631 6.47 31.2998 5.63086 30.374C4.82894 29.4923 4.95814 28.2327 5.69629 27.4951L6.66309 26.5293C7.50031 25.6918 8.11929 24.6474 8.45215 23.5107C8.85219 22.146 9.59378 20.8932 10.5986 19.8887L22.0469 8.43945L21.0625 7.45508C20.3697 6.76319 20.3688 5.64029 21.0625 4.94629C21.7339 4.27557 22.8997 4.27497 23.5723 4.94629L24.5566 5.93066L28.9287 1.55957ZM11.6025 20.8926C10.7654 21.7294 10.1473 22.773 9.81445 23.9102C9.41435 25.2745 8.67164 26.5269 7.66602 27.5322L6.69922 28.499C6.48785 28.7106 6.41398 29.099 6.66992 29.4023C6.94759 29.7282 7.40776 29.6907 7.64941 29.4492L8.62012 28.4785C9.62316 27.4755 10.8718 26.7341 12.2314 26.334C13.3723 25.9985 14.4136 25.3803 15.249 24.5449L22.3652 17.4287H15.0674L11.6025 20.8926ZM16.4863 16.0088H23.7852L26.7002 13.0928L23.0508 9.44336L16.4863 16.0088ZM22.5684 5.9502C22.4268 5.80987 22.2032 5.81215 22.0664 5.94922V5.9502C21.9444 6.07179 21.9297 6.25938 22.0205 6.39648L22.0664 6.45117V6.45215C24.8245 9.21031 26.9024 11.289 29.6924 14.0791H29.6934C29.8092 14.195 30.0041 14.2095 30.1406 14.1221L30.1953 14.0781C30.3332 13.9398 30.3332 13.7146 30.1953 13.5762L22.5684 5.9502ZM33.5811 2.56348C32.5746 1.55771 30.9391 1.55779 29.9326 2.56348L25.5605 6.93457L29.209 10.583L33.5811 6.21289C34.5869 5.20671 34.5869 3.56966 33.5811 2.56348Z" fill="#0C608F" stroke="#0C608F" stroke-width="0.2"/>
<path d="M6.83594 32.543C7.0572 32.543 7.28619 32.6368 7.42188 32.835C7.58846 33.0783 8.08687 33.8217 8.54395 34.6514C8.77241 35.0661 8.99102 35.5048 9.15332 35.9141C9.31463 36.3209 9.42383 36.709 9.42383 37.0205C9.42375 38.4478 8.26287 39.6084 6.83594 39.6084C5.40897 39.6084 4.24812 38.4478 4.24805 37.0205C4.24805 36.709 4.35723 36.3209 4.51855 35.9141C4.68086 35.5048 4.89946 35.0661 5.12793 34.6514C5.585 33.8217 6.08342 33.0783 6.25 32.835C6.38571 32.6368 6.61468 32.543 6.83594 32.543ZM6.83594 34.5449C6.53204 35.0418 6.24926 35.5455 6.03809 35.9795C5.9226 36.2169 5.82919 36.432 5.76465 36.6123C5.69908 36.7955 5.66699 36.9334 5.66699 37.0205C5.66707 37.6648 6.1916 38.1895 6.83594 38.1895C7.48024 38.1894 8.00481 37.6648 8.00488 37.0205C8.00488 36.9333 7.97272 36.7954 7.90723 36.6123C7.84271 36.432 7.74921 36.2167 7.63379 35.9795C7.42262 35.5455 7.1398 35.0416 6.83594 34.5449Z" fill="#0C608F" stroke="#0C608F" stroke-width="0.2"/>
</svg>
