<svg width="40" height="40" viewBox="0 0 40 40" fill="none" xmlns="http://www.w3.org/2000/svg">
<path d="M4.34766 35.6875H35.6536V38.0006H4.34766V35.6875Z" fill="#0C608F"/>
<path d="M18.5107 7.28906C19.8908 7.04099 21.3109 7.1409 22.6426 7.58008C23.9744 8.01936 25.1759 8.78404 26.1377 9.80469C27.0993 10.8252 27.7909 12.0695 28.1504 13.4248C28.4874 14.6957 28.5225 16.0269 28.2539 17.3115L28.1963 17.5674C28.1738 17.6612 28.1329 17.7501 28.0762 17.8281C28.0195 17.906 27.9483 17.9722 27.8662 18.0225C27.784 18.0728 27.6919 18.1061 27.5967 18.1211C27.5015 18.136 27.4042 18.132 27.3105 18.1094C27.1215 18.0637 26.9579 17.9451 26.8564 17.7793C26.755 17.6134 26.7241 17.4137 26.7695 17.2246C26.8986 16.6876 26.9639 16.1372 26.9639 15.585C26.9632 14.4971 26.7069 13.4244 26.2168 12.4531C25.7267 11.4819 25.0162 10.6391 24.1416 9.99219C23.267 9.34528 22.2528 8.91272 21.1807 8.72852C20.1085 8.54432 19.0082 8.61376 17.9678 8.93164C16.9274 9.24953 15.9756 9.80663 15.1895 10.5586C14.4035 11.3105 13.8051 12.2366 13.4414 13.2617C13.0777 14.2869 12.9593 15.3828 13.0957 16.4619C13.232 17.54 13.6183 18.5718 14.2246 19.4736C14.2818 19.5532 14.323 19.6437 14.3447 19.7393C14.3665 19.8349 14.3688 19.9347 14.3516 20.0312C14.3343 20.1277 14.2975 20.2196 14.2441 20.3018C14.1907 20.384 14.1213 20.4548 14.04 20.5098C13.9588 20.5647 13.8676 20.6031 13.7715 20.6221C13.6752 20.6411 13.5756 20.6401 13.4795 20.6201C13.3836 20.6001 13.2925 20.5616 13.2119 20.5059C13.1312 20.4501 13.0624 20.3787 13.0098 20.2959V20.2949C12.2272 19.1328 11.7465 17.794 11.6113 16.3994C11.4761 15.0036 11.6913 13.5954 12.2373 12.3037C12.7833 11.0121 13.6429 9.87661 14.7383 9.00098C15.8336 8.1254 17.1306 7.53721 18.5107 7.28906Z" fill="#0C608F" stroke="#0C608F" stroke-width="0.2"/>
<path d="M20.001 1.1543C20.1955 1.15431 20.3819 1.23156 20.5195 1.36914C20.6571 1.50673 20.7344 1.69313 20.7344 1.8877V5.22266C20.7344 5.41725 20.6571 5.60459 20.5195 5.74219C20.382 5.87957 20.1954 5.95701 20.001 5.95703C19.8066 5.95703 19.62 5.87954 19.4824 5.74219C19.3448 5.60459 19.2676 5.41725 19.2676 5.22266V1.8877C19.2676 1.6931 19.3448 1.50674 19.4824 1.36914C19.62 1.23154 19.8064 1.1543 20.001 1.1543Z" fill="#0C608F" stroke="#0C608F" stroke-width="0.2"/>
<path d="M33.6953 14.8516C33.8898 14.8517 34.0764 14.9289 34.2139 15.0664C34.3513 15.204 34.4287 15.3905 34.4287 15.585C34.4287 15.7795 34.3514 15.9659 34.2139 16.1035C34.0764 16.241 33.8898 16.3183 33.6953 16.3184H30.3604C30.1658 16.3184 29.9794 16.2411 29.8418 16.1035C29.7042 15.9659 29.627 15.7795 29.627 15.585C29.627 15.3904 29.7042 15.204 29.8418 15.0664C29.9794 14.9288 30.1658 14.8516 30.3604 14.8516H33.6953Z" fill="#0C608F" stroke="#0C608F" stroke-width="0.2"/>
<path d="M9.64062 14.8516C9.83509 14.8517 10.0217 14.9289 10.1592 15.0664C10.2966 15.204 10.374 15.3905 10.374 15.585C10.374 15.7795 10.2967 15.9659 10.1592 16.1035C10.0217 16.241 9.83509 16.3183 9.64062 16.3184H6.30566C6.1111 16.3184 5.9247 16.2411 5.78711 16.1035C5.64952 15.9659 5.57228 15.7795 5.57227 15.585C5.57227 15.3904 5.64951 15.204 5.78711 15.0664C5.92471 14.9288 6.11107 14.8516 6.30566 14.8516H9.64062Z" fill="#0C608F" stroke="#0C608F" stroke-width="0.2"/>
<path d="M29.6875 5.16602C29.8821 5.16602 30.0685 5.24331 30.2061 5.38086C30.3436 5.51845 30.4209 5.70488 30.4209 5.89941C30.4208 6.0939 30.3436 6.28042 30.2061 6.41797L27.8486 8.77637C27.7111 8.91404 27.5237 8.99212 27.3291 8.99219C27.1347 8.99217 26.9481 8.91471 26.8105 8.77734C26.6729 8.63977 26.5958 8.45244 26.5957 8.25781C26.5957 8.06332 26.6731 7.87684 26.8105 7.73926L29.1689 5.38086C29.3065 5.24332 29.493 5.16603 29.6875 5.16602Z" fill="#0C608F" stroke="#0C608F" stroke-width="0.2"/>
<path d="M10.3154 5.1582C10.4128 5.15905 10.5092 5.17939 10.5986 5.21777C10.6877 5.25602 10.7685 5.31132 10.8359 5.38086L13.1943 7.73926C13.297 7.84191 13.3672 7.97286 13.3955 8.11523C13.4238 8.25757 13.4091 8.40502 13.3535 8.53906C13.2979 8.67314 13.2037 8.7876 13.083 8.86816C12.9624 8.94864 12.8208 8.99221 12.6758 8.99219C12.4812 8.99215 12.2938 8.91398 12.1562 8.77637L9.79883 6.41797V6.41699C9.72952 6.34963 9.6739 6.26948 9.63574 6.18066C9.59736 6.09122 9.57702 5.99479 9.57617 5.89746C9.57539 5.80019 9.59402 5.70331 9.63086 5.61328C9.66775 5.52331 9.72226 5.44181 9.79102 5.37305C9.85978 5.30429 9.94128 5.24978 10.0312 5.21289C10.1213 5.17605 10.2182 5.15742 10.3154 5.1582Z" fill="#0C608F" stroke="#0C608F" stroke-width="0.2"/>
<path d="M37.0195 25.1992C37.0195 25.3937 36.9421 25.5802 36.8047 25.7178C36.6671 25.8554 36.4798 25.9326 36.2852 25.9326C36.0907 25.9325 35.9041 25.8553 35.7666 25.7178C35.6292 25.5802 35.5518 25.3937 35.5518 25.1992V21.6934L24.6318 32.5635C24.4982 32.6948 24.3191 32.7698 24.1318 32.7734C23.9446 32.7771 23.7627 32.7089 23.624 32.583L18.7461 28.1533L14.3135 32.5596C14.1802 32.6922 14.0015 32.7691 13.8135 32.7734C13.6255 32.7778 13.443 32.7093 13.3037 32.583L3.2168 23.4238V23.4229C3.14351 23.3594 3.0823 23.2831 3.03906 23.1963C2.99538 23.1086 2.97002 23.0128 2.96387 22.915C2.95775 22.8171 2.97142 22.7186 3.00391 22.626C3.03639 22.5334 3.08738 22.4486 3.15332 22.376C3.21925 22.3034 3.29872 22.2444 3.3877 22.2031C3.47673 22.1619 3.57381 22.1391 3.67188 22.1357C3.76978 22.1325 3.86751 22.1485 3.95898 22.1836C4.0495 22.2183 4.13197 22.271 4.20215 22.3379L13.7734 31.0264L17.6562 27.1641L13.5352 23.4229V23.4219C13.462 23.3585 13.4016 23.2819 13.3584 23.1953C13.3146 23.1075 13.2893 23.011 13.2832 22.9131C13.2771 22.8153 13.2908 22.7175 13.3232 22.625C13.3557 22.5324 13.4057 22.4467 13.4717 22.374C13.5376 22.3014 13.618 22.2434 13.707 22.2021C13.796 22.161 13.8922 22.1381 13.9902 22.1348C14.0882 22.1315 14.1858 22.1476 14.2773 22.1826C14.3678 22.2173 14.4503 22.2701 14.5205 22.3369H14.5215L18.6973 26.127L24.1924 20.6621H20.9268C20.7322 20.6621 20.5458 20.5848 20.4082 20.4473C20.2706 20.3097 20.1934 20.1233 20.1934 19.9287C20.1934 19.7341 20.2706 19.5478 20.4082 19.4102C20.5458 19.2726 20.7322 19.1953 20.9268 19.1953H25.9707C25.9825 19.1953 25.9928 19.1966 26 19.1982C26.0048 19.1994 26.0092 19.2013 26.0117 19.2021C26.0505 19.2035 26.089 19.2063 26.127 19.2139L26.252 19.251L26.2617 19.2549L26.2715 19.2617L26.374 19.3193C26.4065 19.3412 26.4372 19.3658 26.4658 19.3926L26.4688 19.3955L26.5195 19.4521H26.5186C26.5574 19.4968 26.5905 19.5459 26.6172 19.5986H26.6182L26.6514 19.668L26.6523 19.6699C26.6846 19.7514 26.7014 19.8382 26.7031 19.9258V25.1992C26.7031 25.3938 26.6259 25.5802 26.4883 25.7178C26.3507 25.8554 26.1643 25.9326 25.9697 25.9326C25.7752 25.9326 25.5888 25.8554 25.4512 25.7178C25.3136 25.5802 25.2363 25.3938 25.2363 25.1992V21.6924L19.7842 27.1172L24.0908 31.0273L34.5098 20.6621H31.2451C31.0506 20.6621 30.8642 20.5848 30.7266 20.4473C30.589 20.3097 30.5108 20.1233 30.5107 19.9287C30.5107 19.7341 30.589 19.5478 30.7266 19.4102C30.8642 19.2726 31.0505 19.1953 31.2451 19.1953H36.2891C36.3009 19.1953 36.3111 19.1966 36.3184 19.1982C36.3232 19.1994 36.3275 19.2013 36.3301 19.2021C36.3688 19.2035 36.4074 19.2063 36.4453 19.2139L36.5703 19.251L36.5732 19.252C36.58 19.255 36.5853 19.2597 36.5898 19.2627L36.6924 19.3193L36.7842 19.3936L36.7861 19.3945L36.835 19.4492C36.8751 19.4951 36.91 19.5462 36.9375 19.6006V19.6016C36.9488 19.6241 36.959 19.6472 36.9678 19.6709L37.0049 19.7959C37.0135 19.8386 37.0186 19.8821 37.0195 19.9258V25.1992Z" fill="#0C608F" stroke="#0C608F" stroke-width="0.2"/>
<path d="M20.1416 10.1895C20.2828 10.2176 20.4133 10.2873 20.5166 10.3906C20.6542 10.5282 20.7314 10.7146 20.7314 10.9092C20.7314 11.1038 20.6542 11.2901 20.5166 11.4277C20.379 11.5653 20.1926 11.6426 19.998 11.6426C18.9527 11.6438 17.9501 12.0597 17.2109 12.7988C16.4718 13.5379 16.056 14.5407 16.0547 15.5859C16.0545 15.7803 15.9773 15.967 15.8398 16.1045C15.7023 16.2419 15.5157 16.3193 15.3213 16.3193C15.1268 16.3193 14.9403 16.2419 14.8027 16.1045C14.6651 15.9669 14.5879 15.7796 14.5879 15.585C14.5897 14.1508 15.1597 12.7758 16.1738 11.7617C17.1881 10.7475 18.5637 10.1773 19.998 10.1758L20.1416 10.1895Z" fill="#0C608F" stroke="#0C608F" stroke-width="0.2"/>
</svg>
