<svg width="173" height="176" viewBox="0 0 173 176" fill="none" xmlns="http://www.w3.org/2000/svg">
<path d="M86.5 173.974C39.6306 173.974 1.5 135.841 1.5 88.974C1.5 86.1407 1.65746 83.2553 1.91988 80.448C2.02485 79.4862 2.12982 78.5245 2.26104 77.5627L6.87975 78.1865C6.74853 79.0963 6.66981 79.9801 6.56483 80.8899C6.30241 83.5413 6.17119 86.2446 6.17119 88.948C6.17119 133.242 42.2024 169.269 86.5 169.269C130.798 169.269 166.829 133.242 166.829 88.948C166.829 44.6544 130.798 8.6529 86.5 8.6529C72.8013 8.6529 59.2864 12.1621 47.3722 18.8165L45.1153 14.7355C57.6856 7.71713 72.014 4 86.5 4C133.369 4 171.5 42.133 171.5 89C171.5 135.867 133.369 174 86.5 174V173.974Z" fill="#EFEFEF" stroke="#EFEFEF" stroke-width="3" stroke-linejoin="round"/>
<path d="M86.5 164.654C128.474 164.654 162.5 130.628 162.5 88.6543C162.5 46.6807 128.474 12.6543 86.5 12.6543C44.5264 12.6543 10.5 46.6807 10.5 88.6543C10.5 130.628 44.5264 164.654 86.5 164.654Z" fill="white"/>
<path d="M134.329 17.0107C134.73 16.9448 135.141 17.044 135.467 17.2861L136.148 17.793L137.149 18.5254C137.49 18.7795 137.833 19.0429 138.172 19.3145C138.806 19.8229 138.92 20.7441 138.429 21.3916L135.639 25.0684C135.396 25.3885 135.034 25.5979 134.636 25.6494C134.237 25.7008 133.834 25.5908 133.518 25.3428C132.945 24.8934 132.351 24.465 131.706 23.9805L131.06 23.5137C130.398 23.0356 130.24 22.1159 130.704 21.4443L133.34 17.6367L133.432 17.5166C133.66 17.2486 133.978 17.0686 134.329 17.0107ZM44.7617 12.3682C63.0972 2.00454 85.3914 -1.10562 105.702 3.7207C106.504 3.91116 107.002 4.71265 106.817 5.51562L105.784 10.0215C105.721 10.2956 105.582 10.547 105.384 10.7461L105.358 10.7715C104.99 11.1404 104.456 11.2923 103.949 11.1719C85.4579 6.77903 65.153 9.59923 48.459 19.0205C48.1101 19.2174 47.6968 19.2667 47.3115 19.1572C46.9261 19.0476 46.6003 18.7876 46.4072 18.4365L44.1855 14.3975C43.7896 13.6776 44.0465 12.7725 44.7617 12.3682ZM117.721 7.99121C118.088 7.83808 118.501 7.83673 118.869 7.98828C120.805 8.7857 122.677 9.68483 124.498 10.5977C125.238 10.9684 125.537 11.8681 125.168 12.6084L123.102 16.752C122.922 17.1111 122.607 17.3841 122.226 17.5088C121.844 17.6334 121.428 17.5992 121.071 17.415C119.404 16.5541 117.709 15.7675 115.959 15.0303C115.2 14.7106 114.841 13.8396 115.154 13.0781L116.91 8.80469C117.062 8.43668 117.353 8.14435 117.721 7.99121Z" fill="url(#paint0_linear_1440_7205)" stroke="url(#paint1_linear_1440_7205)" stroke-width="3" stroke-linejoin="round"/>
<path d="M29.5961 22.02L20.86 64.2471H9.17169L14.8953 36.57C12.7063 38.013 10.6377 39.1754 8.6897 40.0572C6.74165 40.939 4.35178 41.8008 1.5 42.6025L3.44805 33.143C7.64538 31.8804 11.0193 30.3572 13.5498 28.5735C16.1003 26.7899 18.2492 24.6054 20.0165 22H29.576L29.5961 22.02Z" fill="#0C608F"/>
<defs>
<linearGradient id="paint0_linear_1440_7205" x1="45.535" y1="87.5652" x2="1150.59" y2="87.5652" gradientUnits="userSpaceOnUse">
<stop stop-color="#4DBFD9"/>
<stop offset="0.99" stop-color="#1B62A1"/>
</linearGradient>
<linearGradient id="paint1_linear_1440_7205" x1="45.5" y1="87.5956" x2="1150.59" y2="87.5956" gradientUnits="userSpaceOnUse">
<stop stop-color="#4DBFD9"/>
<stop offset="1" stop-color="#1B62A1"/>
</linearGradient>
</defs>
</svg>
