<svg width="176" height="177" viewBox="0 0 176 177" fill="none" xmlns="http://www.w3.org/2000/svg">
<path d="M86.5 173.974C39.6306 173.974 1.5 135.841 1.5 88.974C1.5 86.1407 1.65746 83.2553 1.91988 80.448C2.02485 79.4862 2.12982 78.5245 2.26104 77.5627L6.87975 78.1865C6.74853 79.0963 6.66981 79.9801 6.56483 80.8899C6.30241 83.5413 6.17119 86.2446 6.17119 88.948C6.17119 133.242 42.2024 169.269 86.5 169.269C130.798 169.269 166.829 133.242 166.829 88.948C166.829 44.6544 130.798 8.6529 86.5 8.6529C72.8013 8.6529 59.2864 12.1621 47.3722 18.8165L45.1153 14.7355C57.6856 7.71713 72.014 4 86.5 4C133.369 4 171.5 42.133 171.5 89C171.5 135.867 133.369 174 86.5 174V173.974Z" fill="#EFEFEF" stroke="#EFEFEF" stroke-width="3" stroke-linejoin="round"/>
<path d="M86.5 164.654C128.474 164.654 162.5 130.628 162.5 88.6543C162.5 46.6807 128.474 12.6543 86.5 12.6543C44.5264 12.6543 10.5 46.6807 10.5 88.6543C10.5 130.628 44.5264 164.654 86.5 164.654Z" fill="white"/>
<path d="M86.1182 1.5C134.555 1.5 173.986 40.5125 174 88.5C174 136.474 134.563 175.5 86.1182 175.5C79.3377 175.5 72.5831 174.729 66.0439 173.212C65.656 173.122 65.3197 172.881 65.1094 172.543C64.899 172.205 64.8319 171.796 64.9229 171.408L65.9893 166.857L66.0322 166.71C66.2792 165.992 67.0338 165.563 67.7891 165.738C73.7557 167.124 79.9092 167.818 86.1182 167.818C130.322 167.818 166.253 132.225 166.253 88.5C166.253 44.7749 130.322 9.18164 86.1182 9.18164C72.4218 9.18168 58.9365 12.6494 47.0791 19.1953C46.3579 19.5932 45.4505 19.3353 45.0469 18.6172L42.7539 14.5371C42.5581 14.1887 42.5089 13.7761 42.6182 13.3916C42.7274 13.0074 42.9854 12.6826 43.335 12.4893C56.3336 5.30361 71.1452 1.50004 86.1182 1.5ZM48.1885 159.951C48.5994 159.314 49.4337 159.078 50.125 159.427C51.8477 160.297 53.5993 161.092 55.4072 161.837C56.0693 162.11 56.4457 162.813 56.3066 163.516C56.2687 163.707 56.1942 163.884 56.0928 164.04L54.3779 168.121C54.2236 168.488 53.9293 168.779 53.5605 168.929C53.1919 169.079 52.7788 169.077 52.4121 168.922C50.466 168.1 48.5465 167.225 46.6543 166.297C46.2935 166.12 46.0187 165.806 45.8916 165.425C45.7646 165.044 45.7961 164.628 45.9785 164.27L48.1123 160.084L48.1885 159.951ZM35.2949 151.597C35.8169 151.048 36.679 150.97 37.293 151.44C37.7077 151.758 38.1297 152.07 38.5586 152.382L39.8652 153.319L39.957 153.391C39.9867 153.415 40.0153 153.442 40.043 153.469L40.0693 153.495C40.5992 154.014 40.6712 154.842 40.2383 155.443L37.4912 159.262C37.258 159.586 36.905 159.804 36.5107 159.867C36.1164 159.93 35.7134 159.833 35.3906 159.598C34.4871 158.939 33.5101 158.255 32.5781 157.529C31.9256 157.021 31.8079 156.08 32.3145 155.427L35.1953 151.712L35.2949 151.597Z" fill="url(#paint0_linear_1440_7224)" stroke="url(#paint1_linear_1440_7224)" stroke-width="3" stroke-linejoin="round"/>
<path d="M22.4857 56.4673H1.5L3.46055 46.9833L29.5877 22H39.6304L34.3689 47.5247H39.5703L37.7298 56.4874H32.5285L30.928 64.2471H20.8853L22.4857 56.4874V56.4673ZM24.3262 47.5247L27.027 34.4516L13.2432 47.5247H24.3262Z" fill="#0C608F"/>
<defs>
<linearGradient id="paint0_linear_1440_7224" x1="-715.416" y1="88.4824" x2="425.404" y2="88.4824" gradientUnits="userSpaceOnUse">
<stop stop-color="#4DBFD9"/>
<stop offset="0.99" stop-color="#1B62A1"/>
</linearGradient>
<linearGradient id="paint1_linear_1440_7224" x1="-715.452" y1="88.5131" x2="425.404" y2="88.5131" gradientUnits="userSpaceOnUse">
<stop stop-color="#4DBFD9"/>
<stop offset="1" stop-color="#1B62A1"/>
</linearGradient>
</defs>
</svg>
