<svg width="175" height="176" viewBox="0 0 175 176" fill="none" xmlns="http://www.w3.org/2000/svg">
<path d="M86.5 173.974C39.6306 173.974 1.5 135.841 1.5 88.974C1.5 86.1407 1.65746 83.2553 1.91988 80.448C2.02485 79.4862 2.12982 78.5245 2.26104 77.5627L6.87975 78.1865C6.74853 79.0963 6.66981 79.9801 6.56483 80.8899C6.30241 83.5413 6.17119 86.2446 6.17119 88.948C6.17119 133.242 42.2024 169.269 86.5 169.269C130.798 169.269 166.829 133.242 166.829 88.948C166.829 44.6544 130.798 8.6529 86.5 8.6529C72.8013 8.6529 59.2864 12.1621 47.3722 18.8165L45.1153 14.7355C57.6856 7.71713 72.014 4 86.5 4C133.369 4 171.5 42.133 171.5 89C171.5 135.867 133.369 174 86.5 174V173.974Z" fill="#EFEFEF" stroke="#EFEFEF" stroke-width="3" stroke-linejoin="round"/>
<path d="M86.5 164.654C128.474 164.654 162.5 130.628 162.5 88.6543C162.5 46.6807 128.474 12.6543 86.5 12.6543C44.5264 12.6543 10.5 46.6807 10.5 88.6543C10.5 130.628 44.5264 164.654 86.5 164.654Z" fill="white"/>
<path d="M166.797 93.6943L171.433 94.1357C171.834 94.174 172.203 94.372 172.457 94.6855C172.711 94.9992 172.827 95.4021 172.78 95.8027L172.388 99.1738C172.341 99.575 172.134 99.9406 171.814 100.188C171.495 100.434 171.089 100.542 170.688 100.485L166.079 99.8369C165.273 99.7234 164.704 98.9874 164.798 98.1787L165.165 95.0156L165.189 94.8662C165.349 94.1337 166.035 93.6219 166.797 93.6943ZM170.885 75.3027C171.644 75.282 172.311 75.8395 172.411 76.6094C172.676 78.658 172.891 80.7475 172.998 82.8721C173.04 83.6962 172.408 84.3991 171.584 84.4453L166.948 84.7051C166.128 84.751 165.424 84.1283 165.368 83.3086C165.239 81.3904 165.057 79.4727 164.825 77.582C164.725 76.7635 165.304 76.017 166.122 75.9111L170.731 75.3145L170.885 75.3027ZM86.8018 1.5C124.544 1.50006 158.474 26.6755 169.429 62.7236C169.502 62.9019 169.543 63.0942 169.543 63.292V63.3174C169.543 64.0612 168.998 64.6932 168.262 64.8018C168.247 64.8039 168.232 64.8039 168.218 64.8057L164.025 66.0762C163.644 66.1916 163.233 66.15 162.882 65.9619C162.531 65.7738 162.269 65.4543 162.154 65.0732C152.236 32.1524 121.236 9.14167 86.8018 9.1416C73.3586 9.1416 60.122 12.5779 48.4824 19.0654C48.1348 19.2591 47.7245 19.3071 47.3418 19.1982C46.9591 19.0894 46.635 18.8329 46.4414 18.4854L44.1895 14.4395C43.7869 13.7163 44.0461 12.8039 44.7686 12.4004C57.5385 5.27324 72.0906 1.5 86.8018 1.5Z" fill="url(#paint0_linear_1440_7206)" stroke="url(#paint1_linear_1440_7206)" stroke-width="3" stroke-linejoin="round"/>
<path d="M35.5179 64.2471H1.5C2.58337 60.8384 4.41526 57.6102 7.01536 54.6026C9.59575 51.595 14.0277 48.0259 20.2916 43.9356C24.1326 41.4292 26.6342 39.5244 27.8358 38.2011C29.0374 36.8977 29.7465 35.6546 29.9829 34.4917C30.2389 33.2285 29.9829 32.1457 29.254 31.2434C28.5055 30.3411 27.4615 29.9 26.063 29.9C24.6645 29.9 23.3447 30.3612 22.2417 31.2835C21.1386 32.2059 20.1931 33.85 19.4052 36.196L8.23662 35.2536C9.33969 32.0054 10.6791 29.4589 12.2352 27.6543C13.7914 25.8297 15.7414 24.4261 18.1051 23.4637C20.4689 22.4812 23.5614 22 27.3828 22C31.2041 22 34.3754 22.4612 36.4043 23.3835C38.4332 24.3058 39.8908 25.7294 40.7772 27.6543C41.6636 29.5792 41.8605 31.7246 41.3878 34.0906C40.8757 36.617 39.6544 39.0432 37.724 41.349C35.7937 43.6549 32.642 46.1813 28.2298 48.9483C25.6297 50.5523 23.8569 51.6752 22.9705 52.3168C22.0644 52.9584 21.0007 53.8006 19.7401 54.8432H37.4483L35.5376 64.2471H35.5179Z" fill="#0C608F"/>
<defs>
<linearGradient id="paint0_linear_1440_7206" x1="-203.189" y1="87.7541" x2="917.13" y2="87.7541" gradientUnits="userSpaceOnUse">
<stop stop-color="#4DBFD9"/>
<stop offset="0.99" stop-color="#1B62A1"/>
</linearGradient>
<linearGradient id="paint1_linear_1440_7206" x1="-203.225" y1="87.7844" x2="917.13" y2="87.7844" gradientUnits="userSpaceOnUse">
<stop stop-color="#4DBFD9"/>
<stop offset="1" stop-color="#1B62A1"/>
</linearGradient>
</defs>
</svg>
