<svg width="176" height="176" viewBox="0 0 176 176" fill="none" xmlns="http://www.w3.org/2000/svg">
<path d="M88 173.474C41.1306 173.474 3 135.341 3 88.474C3 85.6407 3.15746 82.7553 3.41988 79.948C3.52485 78.9862 3.62982 78.0245 3.76104 77.0627L8.37975 77.6865C8.24853 78.5963 8.16981 79.4801 8.06483 80.3899C7.80241 83.0413 7.67119 85.7446 7.67119 88.448C7.67119 132.742 43.7024 168.769 88 168.769C132.298 168.769 168.329 132.742 168.329 88.448C168.329 44.1544 132.298 8.1529 88 8.1529C74.3013 8.1529 60.7864 11.6621 48.8722 18.3165L46.6153 14.2355C59.1856 7.21713 73.514 3.5 88 3.5C134.869 3.5 173 41.633 173 88.5C173 135.367 134.869 173.5 88 173.5V173.474Z" fill="#EFEFEF" stroke="#EFEFEF" stroke-width="3" stroke-linejoin="round"/>
<path d="M88 164.154C129.974 164.154 164 130.128 164 88.1543C164 46.1807 129.974 12.1543 88 12.1543C46.0264 12.1543 12 46.1807 12 88.1543C12 130.128 46.0264 164.154 88 164.154Z" fill="white"/>
<path d="M87.9346 1.5C135.656 1.50013 174.5 40.3094 174.5 88.0127C174.5 135.69 135.682 174.5 87.9346 174.5C50.0747 174.5 16.0217 149.24 5.05859 113.068C4.9432 112.688 4.98424 112.277 5.17188 111.926C5.3596 111.575 5.67872 111.313 6.05957 111.197L10.5254 109.846L10.6699 109.81C11.0084 109.743 11.3612 109.795 11.668 109.959C12.0187 110.147 12.2803 110.466 12.3955 110.847C22.3704 143.801 53.4431 166.82 87.9346 166.82C131.453 166.82 166.849 131.458 166.85 87.9873C166.85 44.5169 131.453 9.15345 87.9346 9.15332C74.4506 9.15332 61.1459 12.6236 49.4424 19.1543C48.7211 19.5567 47.8108 19.3006 47.4053 18.5811L45.1191 14.5254C44.9237 14.1785 44.8741 13.7681 44.9814 13.3848C45.089 13.0012 45.3449 12.6753 45.6924 12.4805C58.5293 5.28188 73.153 1.5 87.9346 1.5ZM7.71484 91.2461C8.06006 91.261 8.39175 91.3944 8.65137 91.627C8.94805 91.8928 9.12602 92.2663 9.14746 92.6641C9.25031 94.5725 9.43031 96.4554 9.6875 98.3389C9.74158 98.7349 9.63548 99.1367 9.39258 99.4541C9.14978 99.7712 8.79056 99.9779 8.39453 100.029L3.77051 100.628C2.94914 100.734 2.19736 100.154 2.09082 99.333C1.82491 97.2805 1.60962 95.2111 1.50195 93.0801C1.46043 92.256 2.09221 91.553 2.91602 91.5068L7.56641 91.2471L7.71484 91.2461ZM3.77832 75.4258L8.34961 76.042C8.74032 76.0738 9.105 76.2565 9.36328 76.5557C9.64813 76.8857 9.77557 77.3236 9.71191 77.7549C9.56049 78.7789 9.45819 79.8092 9.35254 80.8809C9.2714 81.7032 8.5404 82.3048 7.71777 82.2266L3.06836 81.7852C2.24429 81.7068 1.63939 80.9755 1.7168 80.1514C1.821 79.0429 1.92932 77.8613 2.09277 76.7021C2.20811 75.8855 2.96096 75.3156 3.77832 75.4258Z" fill="url(#paint0_linear_1440_7231)" stroke="url(#paint1_linear_1440_7231)" stroke-width="3" stroke-linejoin="round"/>
<path d="M14.5728 21.5401H42.1338L40.2184 30.739H21.5488L19.2503 36.9719C20.6616 36.3706 22.0326 35.9097 23.3633 35.6091C24.694 35.3085 25.9641 35.1481 27.2142 35.1481C31.3876 35.1481 34.5127 36.4107 36.6095 38.9159C38.6862 41.421 39.3313 44.5876 38.545 48.3954C37.9805 51.081 36.7909 53.6462 34.9361 56.1314C33.0812 58.5964 30.7828 60.5004 28.0609 61.803C25.3391 63.1057 22.0528 63.7471 18.2019 63.7471C15.4398 63.7471 13.1413 63.4865 11.2865 62.9654C9.4316 62.4444 7.91948 61.6628 6.7501 60.6406C5.58072 59.6185 4.71374 58.4561 4.12905 57.1334C3.54436 55.8307 3.16129 54.2074 3 52.2634L14.9962 50.9807C14.8954 52.8446 15.2583 54.2675 16.1051 55.2495C16.9519 56.2316 18.1011 56.7126 19.5326 56.7126C21.1455 56.7126 22.6173 56.1113 23.9076 54.8888C25.2181 53.6663 26.1254 51.8425 26.6295 49.4376C27.1335 46.9725 26.9924 45.1487 26.1657 44.0064C25.3391 42.864 24.0488 42.2828 22.2745 42.2828C21.1455 42.2828 20.0165 42.5634 18.8471 43.1045C17.9801 43.5053 16.972 44.2268 15.843 45.2489L6.24606 43.826L14.5527 21.5L14.5728 21.5401Z" fill="#0C608F"/>
<defs>
<linearGradient id="paint0_linear_1440_7231" x1="-950.789" y1="87.9695" x2="172.999" y2="87.9695" gradientUnits="userSpaceOnUse">
<stop stop-color="#4DBFD9"/>
<stop offset="0.99" stop-color="#1B62A1"/>
</linearGradient>
<linearGradient id="paint1_linear_1440_7231" x1="-950.824" y1="88" x2="172.999" y2="88" gradientUnits="userSpaceOnUse">
<stop stop-color="#4DBFD9"/>
<stop offset="1" stop-color="#1B62A1"/>
</linearGradient>
</defs>
</svg>
