<svg width="175" height="176" viewBox="0 0 175 176" fill="none" xmlns="http://www.w3.org/2000/svg">
<path d="M86.5 173.974C39.6306 173.974 1.5 135.841 1.5 88.974C1.5 86.1407 1.65746 83.2553 1.91988 80.448C2.02485 79.4862 2.12982 78.5245 2.26104 77.5627L6.87975 78.1865C6.74853 79.0963 6.66981 79.9801 6.56483 80.8899C6.30241 83.5413 6.17119 86.2446 6.17119 88.948C6.17119 133.242 42.2024 169.269 86.5 169.269C130.798 169.269 166.829 133.242 166.829 88.948C166.829 44.6544 130.798 8.6529 86.5 8.6529C72.8013 8.6529 59.2864 12.1621 47.3722 18.8165L45.1153 14.7355C57.6856 7.71713 72.014 4 86.5 4C133.369 4 171.5 42.133 171.5 89C171.5 135.867 133.369 174 86.5 174V173.974Z" fill="#EFEFEF" stroke="#EFEFEF" stroke-width="3" stroke-linejoin="round"/>
<path d="M86.5 164.654C128.474 164.654 162.5 130.628 162.5 88.6543C162.5 46.6807 128.474 12.6543 86.5 12.6543C44.5264 12.6543 10.5 46.6807 10.5 88.6543C10.5 130.628 44.5264 164.654 86.5 164.654Z" fill="white"/>
<path d="M166.797 93.6943L171.433 94.1357C171.834 94.174 172.203 94.372 172.457 94.6855C172.711 94.9992 172.827 95.4021 172.78 95.8027L172.388 99.1738C172.341 99.575 172.134 99.9406 171.814 100.188C171.495 100.434 171.089 100.542 170.688 100.485L166.079 99.8369C165.273 99.7234 164.704 98.9874 164.798 98.1787L165.165 95.0156L165.189 94.8662C165.349 94.1337 166.035 93.6219 166.797 93.6943ZM170.885 75.3027C171.644 75.282 172.311 75.8395 172.411 76.6094C172.676 78.658 172.891 80.7475 172.998 82.8721C173.04 83.6962 172.408 84.3991 171.584 84.4453L166.948 84.7051C166.128 84.751 165.424 84.1283 165.368 83.3086C165.239 81.3904 165.057 79.4727 164.825 77.582C164.725 76.7635 165.304 76.017 166.122 75.9111L170.731 75.3145L170.885 75.3027ZM86.8018 1.5C124.544 1.50006 158.474 26.6755 169.429 62.7236C169.502 62.9019 169.543 63.0942 169.543 63.292V63.3174C169.543 64.0612 168.998 64.6932 168.262 64.8018C168.247 64.8039 168.232 64.8039 168.218 64.8057L164.025 66.0762C163.644 66.1916 163.233 66.15 162.882 65.9619C162.531 65.7738 162.269 65.4543 162.154 65.0732C152.236 32.1524 121.236 9.14167 86.8018 9.1416C73.3586 9.1416 60.122 12.5779 48.4824 19.0654C48.1348 19.2591 47.7245 19.3071 47.3418 19.1982C46.9591 19.0894 46.635 18.8329 46.4414 18.4854L44.1895 14.4395C43.7869 13.7163 44.0461 12.8039 44.7686 12.4004C57.5385 5.27324 72.0906 1.5 86.8018 1.5Z" fill="url(#paint0_linear_1440_7212)" stroke="url(#paint1_linear_1440_7212)" stroke-width="3" stroke-linejoin="round"/>
<path d="M119.743 160.998C120.105 160.833 120.518 160.818 120.891 160.957C121.263 161.096 121.566 161.377 121.731 161.739L123.683 166.014C123.849 166.377 123.863 166.792 123.722 167.166C123.581 167.54 123.296 167.843 122.931 168.006C121.865 168.483 120.827 168.933 119.764 169.382C119.396 169.537 118.981 169.539 118.611 169.388C118.242 169.236 117.947 168.943 117.794 168.574L116.001 164.248C115.685 163.485 116.045 162.609 116.808 162.29C117.79 161.879 118.776 161.44 119.743 160.998ZM135.907 151.567C136.303 151.619 136.663 151.826 136.905 152.144L139.615 155.686C139.792 155.851 139.93 156.06 140.011 156.3C140.216 156.911 140.008 157.585 139.494 157.974C137.817 159.244 136.129 160.47 134.354 161.646C134.022 161.867 133.615 161.946 133.225 161.866C132.834 161.786 132.491 161.553 132.271 161.22L129.688 157.287C129.233 156.595 129.425 155.665 130.117 155.21C131.721 154.156 133.271 153.051 134.795 151.869C135.111 151.624 135.511 151.516 135.907 151.567ZM86.5859 1.5C134.517 1.5 173.5 40.6413 173.5 88.7383C173.5 88.8349 173.49 88.9299 173.472 89.0225C173.394 111.208 165.031 132.297 149.915 148.442C149.642 148.734 149.264 148.905 148.865 148.917C148.466 148.929 148.078 148.781 147.788 148.506L144.387 145.281C143.788 144.714 143.76 143.77 144.323 143.168C158.171 128.37 165.806 109.019 165.806 88.7119C165.806 44.8569 130.266 9.19336 86.5859 9.19336C73.0497 9.1934 59.7209 12.6674 48 19.2275C47.652 19.4223 47.241 19.4704 46.8574 19.3613C46.4739 19.2522 46.1495 18.9952 45.9561 18.6465L43.6885 14.5557C43.2882 13.8336 43.5465 12.9242 44.2666 12.5205C57.1232 5.31501 71.7741 1.50004 86.5859 1.5Z" fill="url(#paint2_linear_1440_7212)" stroke="url(#paint3_linear_1440_7212)" stroke-width="3" stroke-linejoin="round"/>
<path d="M16.3427 34.4142L6.18922 32.4983C7.75876 29.1162 9.96772 26.516 12.8355 24.6979C15.7033 22.8993 19.4043 22 23.9773 22C29.2091 22 32.7938 22.9775 34.7315 24.952C36.6692 26.9266 37.328 29.3899 36.708 32.381C36.3592 34.1209 35.5453 35.724 34.3052 37.1316C33.0651 38.5588 31.3793 39.7904 29.2478 40.8656C30.7205 41.2566 31.8056 41.7063 32.5225 42.2146C33.6851 43.0357 34.499 44.1305 34.964 45.4794C35.4291 46.8284 35.4678 48.451 35.0803 50.3278C34.5958 52.6933 33.5301 54.9416 31.8637 57.1116C30.1973 59.2816 28.1046 60.9434 25.5468 62.1164C23.0084 63.2894 19.8693 63.8759 16.1296 63.8759C12.3898 63.8759 9.67707 63.4458 7.75875 62.5856C5.82106 61.7254 4.34841 60.4546 3.34081 58.7929C2.31383 57.1312 1.71315 55.0393 1.5 52.4978L12.9518 51.012C12.9324 53.2798 13.2812 54.8438 14.0369 55.7236C14.7732 56.6033 15.8583 57.0334 17.2922 57.0334C18.7842 57.0334 20.1406 56.486 21.3614 55.3717C22.5821 54.2573 23.3766 52.7911 23.7641 50.9534C24.1517 49.0766 23.9579 47.6104 23.2216 46.5938C22.4659 45.5576 21.2839 45.0493 19.6368 45.0493C18.7649 45.0493 17.5054 45.2644 15.8777 45.714L18.106 37.679C18.7067 37.7768 19.1718 37.8159 19.5206 37.8159C20.9738 37.8159 22.2915 37.3467 23.4735 36.4083C24.6361 35.4699 25.353 34.3555 25.6243 33.0652C25.8762 31.8336 25.7212 30.8366 25.1399 30.1132C24.5586 29.3703 23.6285 29.0184 22.3496 29.0184C21.0707 29.0184 19.8887 29.4094 18.9005 30.211C17.9123 31.0125 17.0791 32.4201 16.3621 34.4337L16.3427 34.4142Z" fill="#0C608F"/>
<defs>
<linearGradient id="paint0_linear_1440_7212" x1="-203.189" y1="87.7541" x2="917.13" y2="87.7541" gradientUnits="userSpaceOnUse">
<stop stop-color="#4DBFD9"/>
<stop offset="0.99" stop-color="#1B62A1"/>
</linearGradient>
<linearGradient id="paint1_linear_1440_7212" x1="-203.225" y1="87.7844" x2="917.13" y2="87.7844" gradientUnits="userSpaceOnUse">
<stop stop-color="#4DBFD9"/>
<stop offset="1" stop-color="#1B62A1"/>
</linearGradient>
<linearGradient id="paint2_linear_1440_7212" x1="-455.502" y1="88.6943" x2="672.536" y2="88.6943" gradientUnits="userSpaceOnUse">
<stop stop-color="#4DBFD9"/>
<stop offset="0.99" stop-color="#1B62A1"/>
</linearGradient>
<linearGradient id="paint3_linear_1440_7212" x1="-455.538" y1="88.725" x2="672.536" y2="88.725" gradientUnits="userSpaceOnUse">
<stop stop-color="#4DBFD9"/>
<stop offset="1" stop-color="#1B62A1"/>
</linearGradient>
</defs>
</svg>
