<svg width="40" height="40" viewBox="0 0 40 40" fill="none" xmlns="http://www.w3.org/2000/svg">
<g clip-path="url(#clip0_1358_11931)">
<path d="M26.8164 0.682617L26.8203 0.685547L26.8164 0.682617ZM34.7246 12.6201C34.7281 14.5993 33.949 16.4996 32.5566 17.9062C31.8719 18.6013 31.0553 19.1536 30.1553 19.5303C29.2555 19.9067 28.2898 20.1008 27.3145 20.1006H27.3115C26.3358 20.1009 25.3698 19.9069 24.4697 19.5303C23.5695 19.1536 22.7532 18.6014 22.0684 17.9062C20.676 16.4996 19.8969 14.5993 19.9004 12.6201V12.6191C19.9044 11.7465 20.1802 10.7463 20.7578 9.47852L20.8066 9.38965C20.8614 9.30483 20.934 9.23271 21.0195 9.17773C21.1338 9.10433 21.2665 9.06452 21.4023 9.06445C21.5045 9.06416 21.6056 9.08684 21.6982 9.12988C21.8688 9.2084 22.001 9.35135 22.0664 9.52734C22.1155 9.65952 22.1247 9.80225 22.0928 9.9375L22.0469 10.0693C21.569 11.1041 21.314 12.0084 21.3184 12.6191V12.6201C21.3128 14.2261 21.9459 15.7692 23.0771 16.9092C23.6304 17.4705 24.2896 17.9165 25.0166 18.2207C25.7437 18.525 26.5243 18.6816 27.3125 18.6816C28.1007 18.6816 28.8813 18.525 29.6084 18.2207C30.3354 17.9165 30.9946 17.4705 31.5479 16.9092C32.6789 15.7691 33.312 14.2261 33.3066 12.6201V12.6191C33.3125 11.9536 33.011 10.9489 32.4453 9.78711H32.4443C31.9558 8.77518 31.2655 7.60805 30.3906 6.31738C29.2182 4.58843 27.9892 3.04051 27.3125 2.21582C27.1424 2.42325 26.967 2.63981 26.791 2.86133H26.79C26.2082 3.59075 25.3334 4.72428 24.4668 5.97852C24.3599 6.13324 24.1957 6.23953 24.0107 6.27344C23.8257 6.30732 23.6343 6.26604 23.4795 6.15918C23.3247 6.05229 23.2185 5.88813 23.1846 5.70312C23.1506 5.51805 23.1919 5.32673 23.2988 5.17188C24.9449 2.78972 26.5894 0.863289 26.7725 0.649414L26.7773 0.643555C26.8434 0.567629 26.9251 0.506882 27.0166 0.464844C27.1093 0.422267 27.2105 0.400475 27.3125 0.400391C27.4142 0.400341 27.5149 0.42163 27.6074 0.463867C27.7001 0.506238 27.783 0.568424 27.8496 0.645508L27.8584 0.655273H27.8574C27.9832 0.802295 28.8835 1.85698 30 3.33789C31.588 5.44604 32.8006 7.3267 33.6025 8.92676H33.6016C33.9155 9.54152 34.1843 10.1784 34.4033 10.833H34.4023C34.6005 11.4078 34.7093 12.0094 34.7246 12.6172V12.6201Z" fill="#0C608F" stroke="#0C608F" stroke-width="0.2"/>
<path d="M22.6602 6.92188C22.7988 6.94279 22.9285 7.00422 23.0322 7.09863C23.1358 7.19302 23.2094 7.31612 23.2432 7.45215C23.2769 7.58821 23.2691 7.73137 23.2217 7.86328C23.1742 7.99506 23.0891 8.11004 22.9766 8.19336C22.8639 8.27664 22.7288 8.32525 22.5889 8.33203C22.4489 8.33873 22.3096 8.30353 22.1895 8.23145C22.0285 8.13442 21.9118 7.97725 21.8662 7.79492C21.8232 7.62267 21.8486 7.44169 21.9326 7.28613V7.28027L21.9473 7.25684L21.9756 7.20898H21.9814C22.0517 7.1118 22.1438 7.03272 22.2529 6.98145C22.3798 6.92183 22.5215 6.90098 22.6602 6.92188Z" fill="#0C608F" stroke="#0C608F" stroke-width="0.2"/>
<path d="M31.5781 11.9121C31.7662 11.9121 31.947 11.9861 32.0801 12.1191C32.2131 12.2522 32.2871 12.433 32.2871 12.6211L32.2783 12.9238C32.2367 13.6277 32.0492 14.3164 31.7256 14.9453C31.3557 15.6642 30.8193 16.2844 30.1611 16.7539C30.0415 16.8392 29.8979 16.8848 29.751 16.8848C29.6006 16.8849 29.4536 16.8376 29.332 16.749C29.2105 16.6603 29.12 16.5349 29.0742 16.3916C29.0285 16.2483 29.0296 16.0939 29.0771 15.9512C29.1248 15.8084 29.2171 15.6838 29.3398 15.5967C29.8132 15.2586 30.1989 14.8123 30.4648 14.2949C30.7309 13.7772 30.8698 13.2031 30.8691 12.6211C30.8691 12.433 30.9432 12.2522 31.0762 12.1191C31.2092 11.9861 31.39 11.9121 31.5781 11.9121Z" fill="#0C608F" stroke="#0C608F" stroke-width="0.2"/>
<path d="M27.3125 16.2441C27.7043 16.2441 28.0215 16.5613 28.0215 16.9531C28.0215 17.3449 27.7043 17.6621 27.3125 17.6621C26.9207 17.6621 26.6035 17.3449 26.6035 16.9531C26.6035 16.5613 26.9207 16.2441 27.3125 16.2441Z" fill="#0C608F" stroke="#0C608F" stroke-width="0.2"/>
<path d="M29.7773 21.582C30.6413 21.5892 31.4684 21.9347 32.0801 22.5449C32.1459 22.6108 32.1978 22.6893 32.2334 22.7754C32.269 22.8614 32.2871 22.9537 32.2871 23.0469C32.2871 23.14 32.269 23.2323 32.2334 23.3184C32.1977 23.4044 32.1459 23.483 32.0801 23.5488L29.6426 25.9863C29.6299 25.999 29.6162 26.0107 29.6025 26.0225L25.3369 29.6787C25.2486 29.7544 25.1428 29.8077 25.0293 29.833L19.5449 31.0518C19.454 31.072 19.3593 31.0738 19.2676 31.0576C19.176 31.0415 19.0883 31.0079 19.0098 30.958C18.9312 30.908 18.863 30.8429 18.8096 30.7666C18.7561 30.6903 18.7184 30.6036 18.6982 30.5127C18.6781 30.4219 18.6763 30.328 18.6924 30.2363C18.7085 30.1447 18.7421 30.057 18.792 29.9785C18.842 29.8999 18.9071 29.8318 18.9834 29.7783C19.0596 29.7249 19.1456 29.6872 19.2363 29.667L24.5479 28.4863L28.6553 24.9658L30.4766 23.1445C30.1557 23.0103 29.8024 22.9679 29.457 23.0225C29.0657 23.0844 28.7044 23.269 28.4238 23.5488C28.3962 23.5764 28.3657 23.6013 28.334 23.624L24.0684 26.6709C23.9804 26.7337 23.879 26.7752 23.7725 26.793L20.1162 27.4023C19.9636 27.4278 19.8069 27.4031 19.6699 27.3311C18.724 26.8335 16.9033 25.9384 15.0488 25.168C14.1215 24.7827 13.1866 24.4289 12.3496 24.1719C11.5104 23.9142 10.7776 23.7559 10.25 23.7559C10.0619 23.7559 9.88107 23.6818 9.74805 23.5488C9.61504 23.4158 9.54105 23.235 9.54102 23.0469C9.54102 22.8588 9.61505 22.6779 9.74805 22.5449C9.88108 22.4119 10.0619 22.3369 10.25 22.3369C10.9376 22.3369 11.829 22.5305 12.791 22.8252C13.755 23.1205 14.7981 23.5201 15.791 23.9375C17.7435 24.7583 19.5094 25.651 20.1162 25.9639L23.377 25.4199L27.4658 22.5C28.0868 21.9041 28.9165 21.5749 29.7773 21.582Z" fill="#0C608F" stroke="#0C608F" stroke-width="0.2"/>
<path d="M34.249 29.0215C35.1655 28.8249 36.122 28.9387 36.9668 29.3447C37.8111 29.7506 38.4961 30.4258 38.915 31.2637H38.916V31.2646L38.9883 31.4092H38.9688C38.9821 31.4624 38.9895 31.517 38.9902 31.5723C38.9916 31.6792 38.9691 31.785 38.9238 31.8818C38.8785 31.9787 38.8115 32.0644 38.7285 32.1318C38.6454 32.1993 38.5476 32.247 38.4434 32.2715L28.084 34.708L28.085 34.709C27.9941 34.731 27.8999 34.7352 27.8076 34.7207C27.7152 34.7061 27.6266 34.673 27.5469 34.624C27.4672 34.5751 27.3975 34.5113 27.3428 34.4355C27.288 34.3598 27.249 34.2736 27.2275 34.1826C27.2061 34.0916 27.2026 33.9966 27.2178 33.9043C27.233 33.8121 27.267 33.7238 27.3164 33.6445C27.3659 33.5652 27.4307 33.4966 27.5068 33.4424C27.583 33.3882 27.6687 33.349 27.7598 33.3281L37.0859 31.1338C36.7764 30.835 36.4015 30.6109 35.9902 30.4795C35.5237 30.3304 35.0258 30.3046 34.5469 30.4072L34.5479 30.4082C34.4565 30.4288 34.3618 30.4312 34.2695 30.415C34.1771 30.3988 34.0888 30.364 34.0098 30.3135C33.9307 30.2629 33.8621 30.1972 33.8086 30.1201C33.7554 30.0433 33.7179 29.9566 33.6982 29.8652C33.6786 29.7735 33.6771 29.6781 33.6943 29.5859C33.7115 29.494 33.7467 29.4064 33.7979 29.3281C33.8492 29.2497 33.9156 29.1815 33.9932 29.1289C34.0703 29.0766 34.1577 29.0412 34.249 29.0225V29.0215Z" fill="#0C608F" stroke="#0C608F" stroke-width="0.2"/>
<path d="M12.1758 19.4023C12.2026 19.4055 12.2295 19.4108 12.2559 19.417C14.2163 19.8696 15.9498 20.701 17.4043 21.8896C17.9308 22.3206 19.0056 23.1277 19.8164 23.7305C19.9362 23.8195 20.0245 23.9446 20.0693 24.0869C20.1142 24.2292 20.1134 24.3818 20.0664 24.5234C20.0194 24.6651 19.9288 24.7888 19.8076 24.876C19.6865 24.9631 19.5408 25.0091 19.3916 25.0088C19.2775 25.0091 19.1656 24.9821 19.0654 24.9297L18.9697 24.8691C17.7613 23.9706 16.9553 23.3548 16.5068 22.9883C15.2232 21.9407 13.686 21.2032 11.9355 20.7988V20.7979C11.7658 20.7589 11.6164 20.6597 11.5156 20.5176C11.4147 20.3752 11.369 20.2007 11.3887 20.0273C11.4084 19.854 11.4919 19.6942 11.6221 19.5781C11.7523 19.4621 11.9203 19.3982 12.0947 19.3984L12.1758 19.4023Z" fill="#0C608F" stroke="#0C608F" stroke-width="0.2"/>
<path d="M7.19043 19.0781C7.37808 19.0632 7.56476 19.123 7.70801 19.2451C7.8512 19.3672 7.94015 19.5419 7.95508 19.7295C7.96993 19.917 7.90918 20.1029 7.78711 20.2461C7.66505 20.3892 7.49121 20.4782 7.30371 20.4932C5.89415 20.6082 4.50105 20.8766 3.15039 21.2959L3.15137 21.2969L1.3291 21.8916C1.25789 21.9152 1.18341 21.9279 1.1084 21.9277C0.939858 21.9275 0.776612 21.8673 0.648438 21.7578C0.520288 21.6483 0.435749 21.4965 0.40918 21.3301C0.382609 21.1636 0.416131 20.9926 0.503906 20.8486C0.591641 20.705 0.727784 20.5976 0.887695 20.5449V20.5439L2.72656 19.9424H2.72852C4.17993 19.4927 5.67607 19.2028 7.19043 19.0781Z" fill="#0C608F" stroke="#0C608F" stroke-width="0.2"/>
<path d="M9.7168 19.041C9.90413 19.0484 10.0815 19.1291 10.21 19.2656C10.3384 19.4024 10.4087 19.5849 10.4043 19.7725C10.3999 19.96 10.3212 20.138 10.1865 20.2686C10.052 20.399 9.87192 20.4709 9.68457 20.4697V20.4707C9.66753 20.4707 9.65182 20.4695 9.63965 20.4688H9.63867C9.45164 20.4555 9.27739 20.3691 9.15332 20.2285C9.02923 20.0877 8.96527 19.9032 8.97559 19.7158C8.98601 19.5286 9.06933 19.3528 9.20801 19.2266C9.34669 19.1004 9.52947 19.0338 9.7168 19.041Z" fill="#0C608F" stroke="#0C608F" stroke-width="0.2"/>
<path d="M32.1924 24.3848C33.1055 23.9278 34.1498 23.8055 35.1436 24.04C36.1374 24.2747 37.0175 24.8508 37.6299 25.668C37.6913 25.7498 37.7343 25.8443 37.7559 25.9443C37.7774 26.0443 37.7771 26.1482 37.7549 26.248C37.7327 26.3477 37.6887 26.4411 37.627 26.5225C37.5651 26.6039 37.4868 26.6716 37.3965 26.7197L28.2559 31.5947C28.2428 31.6016 28.2292 31.6081 28.2158 31.6143L22.4297 34.2432L34.1553 37.9961C34.19 37.6438 34.1127 37.2888 33.9297 36.9834C33.7265 36.6447 33.4088 36.3896 33.0342 36.2646L31.3535 35.7041C31.1752 35.6446 31.0274 35.5168 30.9434 35.3486C30.8593 35.1804 30.8458 34.9851 30.9053 34.8066C30.9648 34.6284 31.0926 34.4805 31.2607 34.3965C31.429 34.3124 31.6243 34.2989 31.8027 34.3584L33.4824 34.9189C33.9 35.0582 34.2834 35.2849 34.6055 35.585C34.9276 35.885 35.1811 36.2515 35.3496 36.6582C35.518 37.0648 35.5976 37.5026 35.582 37.9424C35.5664 38.3823 35.4566 38.8142 35.2598 39.208C35.1841 39.3594 35.0563 39.4782 34.9004 39.5439C34.7445 39.6096 34.5703 39.6179 34.4092 39.5664L19.2803 34.7246H17.5625C17.4571 34.7246 17.353 34.7015 17.2578 34.6562L4.60547 28.6309H1.10938C0.921247 28.6309 0.740454 28.5568 0.607422 28.4238C0.474398 28.2908 0.400401 28.11 0.400391 27.9219C0.400391 27.7337 0.474401 27.553 0.607422 27.4199C0.740456 27.2869 0.921237 27.2129 1.10938 27.2129H4.76562C4.87103 27.2129 4.97512 27.236 5.07031 27.2812L17.7227 33.3066H21.0645L27.6113 30.3311L35.8857 25.917C35.471 25.6114 34.9835 25.4179 34.4697 25.3604C33.9757 25.3051 33.4769 25.3764 33.0195 25.5654L32.8262 25.6533C32.658 25.7369 32.4633 25.751 32.2852 25.6914C32.107 25.6318 31.96 25.503 31.876 25.335C31.7922 25.1671 31.7779 24.973 31.8369 24.7949C31.8961 24.6168 32.0238 24.4692 32.1914 24.3848H32.1924Z" fill="#0C608F" stroke="#0C608F" stroke-width="0.2"/>
</g>
<defs>
<clipPath id="clip0_1358_11931">
<rect width="40" height="40" fill="white"/>
</clipPath>
</defs>
</svg>
