<svg preserveAspectRatio="none" width="100%" height="100%" overflow="visible" style="display: block;" viewBox="0 0 18.1128 19.2023" fill="none" xmlns="http://www.w3.org/2000/svg">
<g id="Group">
<path id="Vector" d="M8.35715 0.152316L0.97172 3.52296C0.343851 3.80936 -0.0416717 4.46256 0.00383097 5.161C0.132172 7.12288 0.619033 11.1446 2.46247 14.1447C4.78777 17.929 7.67511 18.9194 8.68583 19.1591C8.92968 19.2165 9.1822 19.2165 9.42588 19.1591C10.4364 18.9194 13.3239 17.929 15.6492 14.1447C17.4928 11.1448 17.9795 7.12272 18.1079 5.161C18.1534 4.46256 17.7675 3.80936 17.14 3.52296L9.75456 0.152316C9.3102 -0.050772 8.80134 -0.050772 8.35715 0.152316Z" fill="var(--fill-0, #FFA91A)"/>
<path id="Vector_2" d="M5.24884 16.3834C5.1645 16.3834 5.08016 16.3525 5.01533 16.2903C4.28378 15.5893 3.61858 14.7546 3.03804 13.81C1.73997 11.6978 1.15227 9.04378 0.887753 7.18914C0.862419 7.01111 0.989593 6.84675 1.17194 6.82202C1.35461 6.79565 1.52262 6.92128 1.54812 7.09947C1.80414 8.8939 2.36951 11.4566 3.60974 13.4749C4.16128 14.3726 4.79131 15.1634 5.48235 15.8256C5.61386 15.9515 5.61569 16.1576 5.48669 16.2859C5.42152 16.3509 5.33518 16.3834 5.24884 16.3834ZM1.0651 6.17614C0.894754 6.17614 0.749412 6.04937 0.733577 5.88046L0.72391 5.7755C0.708076 5.59633 0.844084 5.43881 1.02743 5.42335C1.20961 5.40545 1.37228 5.54051 1.38812 5.71952L1.39745 5.8209C1.41428 5.9999 1.27928 6.15824 1.09593 6.17467C1.0856 6.17565 1.07526 6.17614 1.0651 6.17614Z" fill="var(--fill-0, #FFC91D)"/>
<path id="Vector_3" d="M17.1382 3.52304L14.2654 2.21191C14.6119 2.54812 14.8054 3.02866 14.7726 3.53378C14.6441 5.49549 14.1575 9.51755 12.3139 12.5175C9.98863 16.3018 7.1013 17.2922 6.09057 17.5319C5.88439 17.5805 5.67221 17.5854 5.46387 17.5517C6.85445 18.6192 8.09169 19.0187 8.68405 19.1592C8.9279 19.2166 9.18042 19.2166 9.4241 19.1592C10.4347 18.9195 13.3222 17.9289 15.6475 14.1448C17.4911 11.1447 17.9778 7.1228 18.1061 5.16108C18.1516 4.46264 17.7657 3.80944 17.1382 3.52304Z" fill="var(--fill-0, #F79219)"/>
<path id="Vector_4" d="M17.1411 3.52308L15.8115 2.91626C16.2356 3.25214 16.4791 3.78508 16.4424 4.34748C16.3139 6.30919 15.8274 10.3312 13.9838 13.3312C11.6585 17.1155 8.77114 18.1059 7.76041 18.3456C7.51673 18.403 7.26422 18.403 7.02037 18.3456C6.83703 18.3021 6.59118 18.2334 6.29883 18.1283C7.33789 18.7726 8.21627 19.0476 8.68713 19.1592C8.93098 19.2167 9.18349 19.2167 9.42718 19.1592C10.4377 18.9195 13.3252 17.929 15.6505 14.1448C17.4941 11.1447 17.9808 7.12285 18.1092 5.16113C18.1545 4.46269 17.7687 3.80949 17.1411 3.52308Z" fill="var(--fill-0, #EF7816)"/>
<path id="Vector_5" d="M8.5631 2.95066L3.3648 5.32311C2.92277 5.52474 2.65159 5.98445 2.68342 6.47606C2.77376 7.85699 3.11645 10.6877 4.41402 12.7993C6.05078 15.4629 8.0829 16.16 8.79428 16.3288C8.96595 16.3693 9.14363 16.3693 9.31514 16.3288C10.0265 16.16 12.0588 15.4629 13.6954 12.7993C14.993 10.6877 15.3355 7.85683 15.426 6.47606C15.458 5.98445 15.1865 5.52474 14.7446 5.32311L9.54649 2.95066C9.2338 2.80795 8.87562 2.80795 8.5631 2.95066Z" fill="var(--fill-0, #F1F2F2)"/>
<path id="Vector_6" d="M14.746 5.32271L11.7855 3.97156C11.9975 4.20443 12.1152 4.51817 12.0937 4.84835C12.0033 6.22912 11.6608 9.05998 10.3631 11.1716C8.72631 13.8352 6.69419 14.5323 5.98282 14.7009C5.97265 14.7033 5.96232 14.7041 5.95215 14.7063C7.15455 15.8328 8.29795 16.2102 8.79531 16.3282C8.96699 16.3687 9.14467 16.3687 9.31618 16.3282C10.0276 16.1594 12.0598 15.4623 13.6964 12.7989C14.994 10.6873 15.3365 7.85643 15.427 6.47566C15.4592 5.98421 15.1877 5.52433 14.746 5.32271Z" fill="var(--fill-0, #E6E7E8)"/>
<path id="Vector_7" d="M8.71771 12.857C8.51086 12.857 8.31052 12.7818 8.15634 12.6446L5.7652 10.5167C5.42502 10.2141 5.40052 9.69951 5.7107 9.36737C6.02055 9.03524 6.54775 9.01132 6.88794 9.31416L8.60504 10.8422L11.4647 7.16205C11.7427 6.8042 12.2656 6.73406 12.6324 7.00566C12.999 7.27726 13.0708 7.78775 12.7926 8.14575L9.38158 12.5354C9.24007 12.7173 9.02673 12.833 8.79371 12.8539C8.76838 12.8558 8.74304 12.857 8.71771 12.857Z" fill="var(--fill-0, #414042)"/>
</g>
</svg>
