<svg preserveAspectRatio="none" width="100%" height="100%" overflow="visible" style="display: block;" viewBox="0 0 20 20" fill="none" xmlns="http://www.w3.org/2000/svg">
<g id="uiw:cloud-upload" clip-path="url(#clip0_0_315)">
<path id="Vector" fill-rule="evenodd" clip-rule="evenodd" d="M11.5 3C12.1137 2.99999 12.7209 3.1255 13.2843 3.36882C13.8477 3.61215 14.3554 3.96814 14.7761 4.41492C15.1969 4.86169 15.5218 5.3898 15.7309 5.96678C15.94 6.54376 16.0288 7.15741 15.992 7.77H16L15.999 8.997C17.0253 8.99673 18.0123 9.39091 18.7561 10.098C19.4999 10.8051 19.9434 11.771 19.995 12.796L20 12.996C19.9992 14.0217 19.6045 15.008 18.8972 15.7509C18.19 16.4938 17.2244 16.9367 16.2 16.988L16 16.993H15.999L16 17H10.999V13.077H13.463L10 9.003L6.546 13.078H9L8.999 17H4C2.93908 16.9974 1.92244 16.5744 1.17273 15.8237C0.423012 15.0731 0.00131955 14.0559 0 12.995C0.0001785 12.0735 0.318519 11.1803 0.901213 10.4664C1.48391 9.75256 2.29521 9.26176 3.198 9.077C2.97601 8.49704 2.93946 7.86249 3.0934 7.26088C3.24734 6.65927 3.58418 6.12025 4.05745 5.7182C4.53072 5.31615 5.11709 5.07087 5.73567 5.0162C6.35425 4.96154 6.97456 5.10018 7.511 5.413C7.89216 4.68487 8.46545 4.07503 9.16866 3.64965C9.87186 3.22427 10.6781 2.9996 11.5 3Z" fill="var(--fill-0, #B33A1B)"/>
</g>
<defs>
<clipPath id="clip0_0_315">
<rect width="20" height="20" fill="white"/>
</clipPath>
</defs>
</svg>
