<svg preserveAspectRatio="none" width="100%" height="100%" overflow="visible" style="display: block;" viewBox="0 0 56 56" fill="none" xmlns="http://www.w3.org/2000/svg">
<g id="Frame" clip-path="url(#clip0_0_358)">
<path id="Vector" d="M55.4326 16.6993L36.6201 6.36938C36.2924 6.18951 35.8951 6.18951 35.5674 6.36938L28.493 10.2539C28.3333 10.2983 28.1841 10.3799 28.0577 10.4927L16.7549 16.6993C16.405 16.8916 16.1875 17.259 16.1875 17.6581V19.8943H3.56836C2.96423 19.8943 2.47461 20.3843 2.47461 20.988C2.47461 21.5922 2.96423 22.0818 3.56836 22.0818H16.1875V26.0193H9.91681C9.31268 26.0193 8.82306 26.5093 8.82306 27.113C8.82306 27.7172 9.31268 28.2068 9.91681 28.2068H16.1875V33.8943H7C6.39587 33.8943 5.90625 34.3843 5.90625 34.988C5.90625 35.5922 6.39587 36.0818 7 36.0818H16.1875V38.3184C16.1875 38.7175 16.405 39.0849 16.7549 39.2772L35.5674 49.6071C35.7314 49.6973 35.9126 49.7421 36.0937 49.7421C36.2749 49.7421 36.4561 49.6973 36.6201 49.6071L55.4326 39.2772C55.7825 39.0849 56 38.7175 56 38.3184V33.4205C56 32.8168 55.5104 32.3267 54.9062 32.3267C54.3021 32.3267 53.8125 32.8168 53.8125 33.4205V37.6711L37.1875 46.8001V28.6353L42.4747 25.7322V30.3396C42.4747 30.7267 42.6789 31.0847 43.0117 31.2812C43.183 31.3825 43.3757 31.4333 43.5684 31.4333C43.7496 31.4333 43.9312 31.3885 44.0956 31.2979L48.1271 29.0792C48.4762 28.887 48.6932 28.52 48.6932 28.1209V22.3176L53.8125 19.5068V24.6705C53.8125 25.2746 54.3021 25.7642 54.9062 25.7642C55.5104 25.7642 56 25.2746 56 24.6705V17.6581C56 17.259 55.7825 16.8916 55.4326 16.6993ZM35 46.8001L18.375 37.6711V19.5068L35 28.6353V46.8001ZM36.0937 26.7405L19.5538 17.6581L24.7521 14.8036L41.2925 23.886L36.0937 26.7405ZM43.565 22.6381L27.0246 13.5557L28.8177 12.5713L45.3577 21.6537L43.565 22.6381ZM46.5057 27.4745L44.6622 28.4892V24.5312L46.5057 23.5186V27.4745ZM47.6302 20.4057L31.0903 11.3233L36.0937 8.57611L52.6337 17.6581L47.6302 20.4057Z" fill="var(--fill-0, #4E2921)"/>
<path id="Vector_2" d="M54.9062 27.9521C54.6187 27.9521 54.3363 28.0679 54.1329 28.2726C53.9296 28.476 53.8125 28.7571 53.8125 29.0459C53.8125 29.3334 53.9296 29.6158 54.1329 29.8192C54.3363 30.0226 54.6187 30.1396 54.9062 30.1396C55.1938 30.1396 55.4762 30.0226 55.6796 29.8192C55.8829 29.6158 56 29.3334 56 29.0459C56 28.7571 55.8829 28.476 55.6796 28.2726C55.4762 28.0679 55.1938 27.9521 54.9062 27.9521Z" fill="var(--fill-0, #4E2921)"/>
<path id="Vector_3" d="M2.66132 33.8943H1.09375C0.489623 33.8943 -8.34465e-07 34.3843 -8.34465e-07 34.988C-8.34465e-07 35.5922 0.489623 36.0818 1.09375 36.0818H2.66132C3.26544 36.0818 3.75507 35.5922 3.75507 34.988C3.75507 34.3843 3.26544 33.8943 2.66132 33.8943Z" fill="var(--fill-0, #4E2921)"/>
<path id="Vector_4" d="M6.63599 27.113C6.63599 26.8255 6.51892 26.5435 6.31512 26.3401C6.11175 26.1364 5.82977 26.0193 5.54224 26.0193C5.25427 26.0193 4.97229 26.1364 4.76892 26.3401C4.56427 26.5435 4.44849 26.8255 4.44849 27.113C4.44849 27.401 4.56427 27.683 4.76892 27.8864C4.97229 28.0897 5.25427 28.2068 5.54224 28.2068C5.82977 28.2068 6.11175 28.0901 6.31512 27.8864C6.51892 27.683 6.63599 27.401 6.63599 27.113Z" fill="var(--fill-0, #4E2921)"/>
</g>
<defs>
<clipPath id="clip0_0_358">
<rect width="56" height="56" fill="white"/>
</clipPath>
</defs>
</svg>
