<svg preserveAspectRatio="none" width="100%" height="100%" overflow="visible" style="display: block;" viewBox="0 0 32.7859 37.3969" fill="none" xmlns="http://www.w3.org/2000/svg">
<g id="Group">
<path id="Vector" fill-rule="evenodd" clip-rule="evenodd" d="M17.1562 0.210176L32.0227 8.7933C32.508 9.07354 32.7859 9.55479 32.7859 10.1153V27.2816C32.7859 27.8421 32.5081 28.3233 32.0227 28.6035L17.1562 37.1867C16.6708 37.467 16.1151 37.467 15.6297 37.1867L0.763281 28.6036C0.277812 28.3234 0 27.8421 0 27.2817V10.1153C0 9.55479 0.277812 9.07354 0.763281 8.79338L15.6298 0.210176C16.1152 -0.0700586 16.6708 -0.0700586 17.1562 0.210176Z" fill="var(--fill-0, #D7B68B)"/>
<path id="Vector_2" fill-rule="evenodd" clip-rule="evenodd" d="M32.5863 9.34916C32.716 9.57377 32.7855 9.83322 32.7859 10.1124V27.2846C32.785 27.8438 32.5073 28.3238 32.0227 28.6036L17.1562 37.1867C16.9134 37.3269 16.6532 37.3969 16.393 37.3969V18.6985L32.5863 9.34916Z" fill="var(--fill-0, #C9905A)"/>
<path id="Vector_3" fill-rule="evenodd" clip-rule="evenodd" d="M17.1562 0.210176L32.0227 8.79338C32.2653 8.93346 32.4562 9.12385 32.5863 9.34924L16.393 18.6985L0.199609 9.34916C0.329766 9.12377 0.520547 8.93346 0.763281 8.7933L15.6298 0.210176C16.1152 -0.0700585 16.6708 -0.0700585 17.1562 0.210176Z" fill="var(--fill-0, #AA774C)"/>
<path id="Vector_4" fill-rule="evenodd" clip-rule="evenodd" d="M5.81953 12.5938L10.5735 15.3385L26.9664 5.87408L22.2124 3.12939L5.81953 12.5938Z" fill="var(--fill-0, #D1D1D6)"/>
<path id="Vector_5" fill-rule="evenodd" clip-rule="evenodd" d="M10.001 22.4619L6.20117 20.2681C5.95844 20.1279 5.81953 19.8874 5.81953 19.6071V12.5938L10.5734 15.3385V22.1314C10.5734 22.2715 10.504 22.3918 10.3827 22.4619C10.2613 22.532 10.1224 22.532 10.001 22.4619Z" fill="var(--fill-0, #ECEFF1)"/>
</g>
</svg>
