<svg preserveAspectRatio="none" width="100%" height="100%" overflow="visible" style="display: block;" viewBox="0 0 24 24" fill="none" xmlns="http://www.w3.org/2000/svg">
<g id="HeartStraight">
<g id="Vector">
</g>
<path id="Vector_2" d="M12 20L19.7326 11.7603C20.5441 10.9078 21 9.75153 21 8.54588C21 7.34024 20.5441 6.18398 19.7326 5.33146C18.9211 4.47894 17.8204 4 16.6728 4C15.5251 4 14.4245 4.47894 13.613 5.33146L12 6.90958L10.387 5.33146C9.57551 4.47894 8.47487 4 7.32722 4C6.17957 4 5.07892 4.47894 4.26741 5.33146C3.4559 6.18398 3 7.34024 3 8.54588C3 9.75153 3.4559 10.9078 4.26741 11.7603L12 20Z" stroke="var(--stroke-0, #0A293A)" stroke-width="1.7" stroke-linecap="round" stroke-linejoin="round"/>
</g>
</svg>
