<svg preserveAspectRatio="none" width="100%" height="100%" overflow="visible" style="display: block;" viewBox="0 0 17.3519 20.5" fill="none" xmlns="http://www.w3.org/2000/svg">
<g id="ngicon">
<path id="Vector" fill-rule="evenodd" clip-rule="evenodd" d="M3.93543 5H2.60693C1.68893 5 0.926928 5.7095 0.861428 6.6255L0.00443321 18.6255C-0.0300668 19.11 0.137926 19.587 0.468926 19.9425C0.800426 20.298 1.26393 20.5 1.74993 20.5H15.6019C16.0879 20.5 16.5514 20.298 16.8829 19.9425C17.2139 19.587 17.3819 19.11 17.3474 18.6255L16.4904 6.6255C16.4249 5.7095 15.6629 5 14.7449 5H13.4259V4.75C13.4259 2.1265 11.2994 0 8.67593 0C6.14843 0 3.81243 2.013 3.92593 4.75C3.92943 4.833 3.93243 4.9165 3.93543 5ZM13.4259 6.5V10.25C13.4259 10.664 13.0899 11 12.6759 11C12.2619 11 11.9259 10.664 11.9259 10.25V6.5H5.42593V10.25C5.42593 10.664 5.08993 11 4.67593 11C4.26193 11 3.92593 10.664 3.92593 10.25C3.92593 10.25 3.99093 8.4975 3.96943 6.5H2.60693C2.47593 6.5 2.36693 6.60149 2.35793 6.73199L1.50042 18.732C1.49542 18.8015 1.51943 18.8695 1.56693 18.9205C1.61443 18.971 1.68043 19 1.74993 19H15.6019C15.6714 19 15.7374 18.971 15.7849 18.9205C15.8324 18.8695 15.8564 18.8015 15.8514 18.732L14.9939 6.73199C14.9849 6.60149 14.8759 6.5 14.7449 6.5H13.4259ZM11.9259 5V4.75C11.9259 2.955 10.4709 1.5 8.67593 1.5C6.88093 1.5 5.42593 2.955 5.42593 4.75V5H11.9259Z" fill="var(--fill-0, #0A293A)"/>
</g>
</svg>
