<svg width="257" height="257" viewBox="0 0 257 257" fill="none" xmlns="http://www.w3.org/2000/svg">
<path opacity="0.4" d="M133.02 0V98.6692C133.02 111.764 143.652 122.389 156.781 122.389H256.968C253.941 55.714 199.995 2.32864 133.03 0H133.02Z" fill="url(#paint0_linear_1436_7086)"/>
<path opacity="0.4" d="M133.019 157.915V256.584C199.984 254.255 253.94 200.87 256.956 134.195H156.769C143.651 134.195 133.008 144.81 133.008 157.915H133.019Z" fill="url(#paint1_linear_1436_7086)"/>
<path opacity="0.4" d="M123.937 98.6692V0C56.9724 2.32864 3.01625 55.714 0 122.389H100.187C113.305 122.389 123.948 111.775 123.948 98.6692H123.937Z" fill="url(#paint2_linear_1436_7086)"/>
<path opacity="0.4" d="M100.187 134.195H0C3.0271 200.87 56.9724 254.255 123.937 256.584V157.915C123.937 144.82 113.305 134.195 100.176 134.195H100.187Z" fill="url(#paint3_linear_1436_7086)"/>
<path d="M132.812 6.01172V100.056C132.812 112.544 142.946 122.66 155.456 122.66H250.945C248.059 59.1155 196.642 8.23205 132.812 6.01172Z" fill="url(#paint4_linear_1436_7086)"/>
<path d="M132.812 156.528V250.572C196.642 248.352 248.059 197.469 250.945 133.924H155.456C142.946 133.924 132.812 144.04 132.812 156.528Z" fill="url(#paint5_linear_1436_7086)"/>
<path d="M124.156 100.056V6.01172C60.3268 8.23205 8.90949 59.1155 6.02344 122.66H101.513C114.023 122.66 124.156 112.544 124.156 100.056Z" fill="url(#paint6_linear_1436_7086)"/>
<path d="M101.513 133.924H6.02344C8.90949 197.469 60.3268 248.352 124.156 250.572V156.528C124.156 144.04 114.023 133.924 101.513 133.924Z" fill="url(#paint7_linear_1436_7086)"/>
<path d="M189.454 189.984C223.457 156.04 223.457 101.007 189.454 67.063C155.451 33.1193 100.321 33.1193 66.318 67.063C32.3149 101.007 32.3149 156.04 66.3179 189.984C100.321 223.928 155.451 223.928 189.454 189.984Z" fill="white"/>
<path d="M185.301 185.843C217.013 154.186 217.013 102.861 185.301 71.2043C153.589 39.5479 102.174 39.5479 70.4624 71.2043C38.7505 102.861 38.7505 154.186 70.4624 185.843C102.174 217.499 153.589 217.499 185.301 185.843Z" fill="#0C608F"/>
<path d="M66.7248 121.651C64.9848 121.651 63.4248 121.401 62.0448 120.901C60.6848 120.381 59.5248 119.681 58.5648 118.801C57.6248 117.901 56.9048 116.871 56.4048 115.711C55.9248 114.551 55.6848 113.301 55.6848 111.961C55.6848 110.501 55.9748 109.181 56.5548 108.001C57.1348 106.801 57.9448 105.771 58.9848 104.911C60.0248 104.051 61.2448 103.391 62.6448 102.931C64.0448 102.451 65.5748 102.211 67.2348 102.211C68.2148 102.211 69.1748 102.291 70.1148 102.451C71.0748 102.611 71.8548 102.841 72.4548 103.141C72.6548 103.221 72.7648 103.291 72.7848 103.351C72.8248 103.391 72.8548 103.551 72.8748 103.831L73.2648 107.761C73.2648 107.821 73.2148 107.861 73.1148 107.881C73.0148 107.901 72.9448 107.881 72.9048 107.821C72.7448 107.321 72.4848 106.781 72.1248 106.201C71.7848 105.621 71.3448 105.081 70.8048 104.581C70.2648 104.061 69.6148 103.631 68.8548 103.291C68.1148 102.951 67.2548 102.781 66.2748 102.781C64.8948 102.781 63.6448 103.131 62.5248 103.831C61.4048 104.531 60.5148 105.521 59.8548 106.801C59.1948 108.081 58.8648 109.611 58.8648 111.391C58.8648 112.771 59.0648 114.051 59.4648 115.231C59.8648 116.391 60.4348 117.421 61.1748 118.321C61.9348 119.221 62.8448 119.921 63.9048 120.421C64.9648 120.921 66.1548 121.171 67.4748 121.171C68.2948 121.171 68.9548 121.071 69.4548 120.871C69.9548 120.671 70.3148 120.311 70.5348 119.791C70.7548 119.251 70.8648 118.491 70.8648 117.511C70.8648 116.551 70.8048 115.851 70.6848 115.411C70.5848 114.951 70.3148 114.651 69.8748 114.511C69.4348 114.371 68.7248 114.301 67.7448 114.301C67.6248 114.301 67.5648 114.221 67.5648 114.061C67.5648 113.901 67.6148 113.821 67.7148 113.821C69.0748 113.901 70.2948 113.951 71.3748 113.971C72.4748 113.971 73.6248 113.941 74.8248 113.881C74.9048 113.881 74.9448 113.951 74.9448 114.091C74.9648 114.231 74.9248 114.301 74.8248 114.301C74.4448 114.281 74.1648 114.351 73.9848 114.511C73.8048 114.651 73.6848 114.971 73.6248 115.471C73.5848 115.971 73.5648 116.751 73.5648 117.811C73.5648 118.471 73.5848 118.961 73.6248 119.281C73.6648 119.601 73.6948 119.841 73.7148 120.001C73.7548 120.141 73.7748 120.291 73.7748 120.451C73.7748 120.571 73.7548 120.651 73.7148 120.691C73.6748 120.731 73.5848 120.771 73.4448 120.811C72.3848 121.051 71.2648 121.251 70.0848 121.411C68.9048 121.571 67.7848 121.651 66.7248 121.651ZM82.4631 118.861C82.4631 119.441 82.5131 119.881 82.6131 120.181C82.7331 120.481 82.9531 120.681 83.2731 120.781C83.5931 120.881 84.0831 120.931 84.7431 120.931C84.8031 120.931 84.8331 120.991 84.8331 121.111C84.8331 121.231 84.8031 121.291 84.7431 121.291C84.2431 121.291 83.6831 121.281 83.0631 121.261C82.4431 121.241 81.7531 121.231 80.9931 121.231C80.2931 121.231 79.6231 121.241 78.9831 121.261C78.3431 121.281 77.7731 121.291 77.2731 121.291C77.2131 121.291 77.1831 121.231 77.1831 121.111C77.1831 120.991 77.2131 120.931 77.2731 120.931C77.9131 120.931 78.4031 120.881 78.7431 120.781C79.0831 120.681 79.3031 120.481 79.4031 120.181C79.5231 119.881 79.5831 119.441 79.5831 118.861V104.971C79.5831 104.391 79.5231 103.961 79.4031 103.681C79.3031 103.381 79.0831 103.181 78.7431 103.081C78.4031 102.961 77.9131 102.901 77.2731 102.901C77.2131 102.901 77.1831 102.841 77.1831 102.721C77.1831 102.601 77.2131 102.541 77.2731 102.541C77.7731 102.541 78.3431 102.561 78.9831 102.601C79.6231 102.621 80.2931 102.631 80.9931 102.631C81.7531 102.631 82.4431 102.621 83.0631 102.601C83.7031 102.561 84.2631 102.541 84.7431 102.541C84.8031 102.541 84.8331 102.601 84.8331 102.721C84.8331 102.841 84.8031 102.901 84.7431 102.901C84.1031 102.901 83.6131 102.961 83.2731 103.081C82.9531 103.201 82.7331 103.411 82.6131 103.711C82.5131 104.011 82.4631 104.451 82.4631 105.031V118.861ZM91.4891 113.941L91.8791 113.191H100.279L100.489 113.941H91.4891ZM107.449 120.931C107.529 120.931 107.569 120.991 107.569 121.111C107.569 121.231 107.529 121.291 107.449 121.291C106.849 121.291 106.229 121.271 105.589 121.231C104.969 121.191 104.369 121.171 103.789 121.171C103.129 121.171 102.549 121.191 102.049 121.231C101.569 121.271 101.029 121.291 100.429 121.291C100.349 121.291 100.309 121.231 100.309 121.111C100.309 120.991 100.349 120.931 100.429 120.931C101.329 120.931 101.869 120.771 102.049 120.451C102.229 120.131 102.079 119.501 101.599 118.561L95.3291 105.811L96.5591 103.801L90.6191 117.181C90.0991 118.401 90.0791 119.331 90.5591 119.971C91.0591 120.611 91.8991 120.931 93.0791 120.931C93.1791 120.931 93.2291 120.991 93.2291 121.111C93.2291 121.231 93.1791 121.291 93.0791 121.291C92.4791 121.291 91.9291 121.271 91.4291 121.231C90.9291 121.191 90.2991 121.171 89.5391 121.171C88.7791 121.171 88.1691 121.191 87.7091 121.231C87.2691 121.271 86.7191 121.291 86.0591 121.291C85.9791 121.291 85.9391 121.231 85.9391 121.111C85.9391 120.991 85.9791 120.931 86.0591 120.931C86.5991 120.931 87.0591 120.821 87.4391 120.601C87.8391 120.381 88.2291 119.981 88.6091 119.401C88.9891 118.801 89.4091 117.971 89.8691 116.911L96.3191 102.361C96.3591 102.301 96.4491 102.271 96.5891 102.271C96.7291 102.271 96.8091 102.301 96.8291 102.361L104.179 117.181C104.639 118.141 105.049 118.901 105.409 119.461C105.769 120.001 106.109 120.381 106.429 120.601C106.749 120.821 107.089 120.931 107.449 120.931ZM96.6491 101.761C96.6491 101.781 96.5891 101.801 96.4691 101.821C96.3691 101.821 96.3091 101.801 96.2891 101.761C96.2091 101.321 96.2091 100.921 96.2891 100.561C96.3691 100.201 96.4791 99.871 96.6191 99.571C96.7591 99.271 96.8891 98.971 97.0091 98.671C97.1491 98.371 97.2191 98.051 97.2191 97.711C97.2191 97.331 97.1191 97.051 96.9191 96.871C96.7391 96.691 96.5091 96.601 96.2291 96.601C96.0691 96.601 95.8991 96.621 95.7191 96.661C95.5591 96.701 95.3891 96.771 95.2091 96.871C95.1691 96.891 95.1091 96.861 95.0291 96.781C94.9491 96.701 94.9391 96.651 94.9991 96.631C95.3391 96.371 95.7091 96.181 96.1091 96.061C96.5091 95.921 96.9091 95.851 97.3091 95.851C97.9291 95.851 98.4191 95.991 98.7791 96.271C99.1391 96.551 99.3191 96.931 99.3191 97.411C99.3191 97.851 99.1791 98.261 98.8991 98.641C98.6191 99.001 98.2991 99.351 97.9391 99.691C97.5791 100.031 97.2691 100.371 97.0091 100.711C96.7491 101.031 96.6291 101.381 96.6491 101.761ZM113.957 118.861C113.957 119.441 114.007 119.881 114.107 120.181C114.227 120.481 114.447 120.681 114.767 120.781C115.087 120.881 115.577 120.931 116.237 120.931C116.297 120.931 116.327 120.991 116.327 121.111C116.327 121.231 116.297 121.291 116.237 121.291C115.737 121.291 115.177 121.281 114.557 121.261C113.937 121.241 113.247 121.231 112.487 121.231C111.787 121.231 111.117 121.241 110.477 121.261C109.837 121.281 109.267 121.291 108.767 121.291C108.707 121.291 108.677 121.231 108.677 121.111C108.677 120.991 108.707 120.931 108.767 120.931C109.407 120.931 109.897 120.881 110.237 120.781C110.577 120.681 110.797 120.481 110.897 120.181C111.017 119.881 111.077 119.441 111.077 118.861V104.971C111.077 104.391 111.017 103.961 110.897 103.681C110.797 103.381 110.577 103.181 110.237 103.081C109.897 102.961 109.407 102.901 108.767 102.901C108.707 102.901 108.677 102.841 108.677 102.721C108.677 102.601 108.707 102.541 108.767 102.541C109.267 102.541 109.837 102.561 110.477 102.601C111.117 102.621 111.787 102.631 112.487 102.631C113.247 102.631 113.937 102.621 114.557 102.601C115.197 102.561 115.757 102.541 116.237 102.541C116.297 102.541 116.327 102.601 116.327 102.721C116.327 102.841 116.297 102.901 116.237 102.901C115.597 102.901 115.107 102.961 114.767 103.081C114.447 103.201 114.227 103.411 114.107 103.711C114.007 104.011 113.957 104.451 113.957 105.031V118.861ZM130.885 118.741C130.885 119.341 130.955 119.801 131.095 120.121C131.235 120.421 131.525 120.631 131.965 120.751C132.425 120.871 133.105 120.931 134.005 120.931C134.065 120.931 134.095 120.991 134.095 121.111C134.095 121.231 134.065 121.291 134.005 121.291C133.365 121.291 132.665 121.281 131.905 121.261C131.165 121.241 130.355 121.231 129.475 121.231C128.775 121.231 128.105 121.241 127.465 121.261C126.825 121.281 126.255 121.291 125.755 121.291C125.695 121.291 125.665 121.231 125.665 121.111C125.665 120.991 125.695 120.931 125.755 120.931C126.415 120.931 126.905 120.881 127.225 120.781C127.545 120.681 127.755 120.481 127.855 120.181C127.975 119.881 128.035 119.441 128.035 118.861V104.971C128.035 104.391 127.975 103.961 127.855 103.681C127.755 103.381 127.545 103.181 127.225 103.081C126.905 102.961 126.415 102.901 125.755 102.901C125.695 102.901 125.665 102.841 125.665 102.721C125.665 102.601 125.695 102.541 125.755 102.541C126.255 102.541 126.815 102.561 127.435 102.601C128.075 102.621 128.745 102.631 129.445 102.631C129.925 102.631 130.545 102.601 131.305 102.541C132.085 102.481 132.835 102.451 133.555 102.451C134.775 102.451 135.855 102.621 136.795 102.961C137.755 103.281 138.515 103.801 139.075 104.521C139.635 105.241 139.935 106.191 139.975 107.371C139.995 108.411 139.815 109.311 139.435 110.071C139.055 110.831 138.535 111.461 137.875 111.961C137.235 112.441 136.525 112.811 135.745 113.071C134.965 113.311 134.185 113.431 133.405 113.431C133.185 113.431 132.945 113.421 132.685 113.401C132.445 113.381 132.205 113.341 131.965 113.281C131.905 113.261 131.885 113.191 131.905 113.071C131.925 112.931 131.975 112.871 132.055 112.891C132.215 112.931 132.395 112.961 132.595 112.981C132.795 113.001 132.965 113.011 133.105 113.011C133.765 113.011 134.375 112.831 134.935 112.471C135.495 112.111 135.945 111.561 136.285 110.821C136.645 110.081 136.825 109.151 136.825 108.031C136.825 106.971 136.655 106.071 136.315 105.331C135.975 104.591 135.495 104.031 134.875 103.651C134.275 103.251 133.535 103.051 132.655 103.051C132.195 103.051 131.835 103.101 131.575 103.201C131.315 103.281 131.135 103.461 131.035 103.741C130.935 104.021 130.885 104.451 130.885 105.031V118.741ZM157.699 105.031C157.699 104.451 157.639 104.011 157.519 103.711C157.399 103.411 157.159 103.201 156.799 103.081C156.439 102.961 155.889 102.901 155.149 102.901C155.089 102.901 155.059 102.841 155.059 102.721C155.059 102.601 155.089 102.541 155.149 102.541C155.649 102.541 156.219 102.561 156.859 102.601C157.519 102.621 158.279 102.631 159.139 102.631C159.839 102.631 160.529 102.621 161.209 102.601C161.889 102.561 162.479 102.541 162.979 102.541C163.039 102.541 163.069 102.601 163.069 102.721C163.069 102.841 163.039 102.901 162.979 102.901C162.279 102.901 161.749 102.961 161.389 103.081C161.049 103.181 160.819 103.381 160.699 103.681C160.579 103.961 160.519 104.391 160.519 104.971V118.861C160.519 119.441 160.579 119.881 160.699 120.181C160.819 120.481 161.049 120.681 161.389 120.781C161.749 120.881 162.279 120.931 162.979 120.931C163.039 120.931 163.069 120.991 163.069 121.111C163.069 121.231 163.039 121.291 162.979 121.291C162.479 121.291 161.889 121.281 161.209 121.261C160.529 121.241 159.839 121.231 159.139 121.231C158.279 121.231 157.519 121.241 156.859 121.261C156.219 121.281 155.649 121.291 155.149 121.291C155.089 121.291 155.059 121.231 155.059 121.111C155.059 120.991 155.089 120.931 155.149 120.931C155.889 120.931 156.439 120.881 156.799 120.781C157.159 120.681 157.399 120.481 157.519 120.181C157.639 119.881 157.699 119.441 157.699 118.861V105.031ZM145.849 111.931V111.151H158.989V111.931H145.849ZM144.529 118.861V104.971C144.529 104.391 144.469 103.961 144.349 103.681C144.229 103.381 143.999 103.181 143.659 103.081C143.319 102.961 142.799 102.901 142.099 102.901C142.059 102.901 142.039 102.841 142.039 102.721C142.039 102.601 142.059 102.541 142.099 102.541C142.619 102.541 143.199 102.561 143.839 102.601C144.479 102.621 145.149 102.631 145.849 102.631C146.709 102.631 147.469 102.621 148.129 102.601C148.789 102.561 149.379 102.541 149.899 102.541C149.939 102.541 149.959 102.601 149.959 102.721C149.959 102.841 149.939 102.901 149.899 102.901C149.179 102.901 148.639 102.961 148.279 103.081C147.919 103.201 147.679 103.411 147.559 103.711C147.439 104.011 147.379 104.451 147.379 105.031V118.861C147.379 119.441 147.439 119.881 147.559 120.181C147.679 120.481 147.919 120.681 148.279 120.781C148.659 120.881 149.199 120.931 149.899 120.931C149.939 120.931 149.959 120.991 149.959 121.111C149.959 121.231 149.939 121.291 149.899 121.291C149.359 121.291 148.759 121.281 148.099 121.261C147.459 121.241 146.709 121.231 145.849 121.231C145.149 121.231 144.469 121.241 143.809 121.261C143.149 121.281 142.569 121.291 142.069 121.291C142.029 121.291 142.009 121.231 142.009 121.111C142.009 120.991 142.029 120.931 142.069 120.931C142.769 120.931 143.289 120.881 143.629 120.781C143.969 120.681 144.199 120.481 144.319 120.181C144.459 119.881 144.529 119.441 144.529 118.861ZM169.331 113.941L169.721 113.191H178.121L178.331 113.941H169.331ZM185.291 120.931C185.371 120.931 185.411 120.991 185.411 121.111C185.411 121.231 185.371 121.291 185.291 121.291C184.691 121.291 184.071 121.271 183.431 121.231C182.811 121.191 182.211 121.171 181.631 121.171C180.971 121.171 180.391 121.191 179.891 121.231C179.411 121.271 178.871 121.291 178.271 121.291C178.191 121.291 178.151 121.231 178.151 121.111C178.151 120.991 178.191 120.931 178.271 120.931C179.171 120.931 179.711 120.771 179.891 120.451C180.071 120.131 179.921 119.501 179.441 118.561L173.171 105.811L174.401 103.801L168.461 117.181C167.941 118.401 167.921 119.331 168.401 119.971C168.901 120.611 169.741 120.931 170.921 120.931C171.021 120.931 171.071 120.991 171.071 121.111C171.071 121.231 171.021 121.291 170.921 121.291C170.321 121.291 169.771 121.271 169.271 121.231C168.771 121.191 168.141 121.171 167.381 121.171C166.621 121.171 166.011 121.191 165.551 121.231C165.111 121.271 164.561 121.291 163.901 121.291C163.821 121.291 163.781 121.231 163.781 121.111C163.781 120.991 163.821 120.931 163.901 120.931C164.441 120.931 164.901 120.821 165.281 120.601C165.681 120.381 166.071 119.981 166.451 119.401C166.831 118.801 167.251 117.971 167.711 116.911L174.161 102.361C174.201 102.301 174.291 102.271 174.431 102.271C174.571 102.271 174.651 102.301 174.671 102.361L182.021 117.181C182.481 118.141 182.891 118.901 183.251 119.461C183.611 120.001 183.951 120.381 184.271 120.601C184.591 120.821 184.931 120.931 185.291 120.931ZM171.551 100.951C171.471 100.971 171.411 100.931 171.371 100.831C171.331 100.711 171.341 100.641 171.401 100.621C172.181 100.121 172.901 99.611 173.561 99.091C174.221 98.571 174.881 98.071 175.541 97.591C175.621 97.551 175.831 97.571 176.171 97.651C176.511 97.731 176.871 97.841 177.251 97.981C177.631 98.121 177.921 98.251 178.121 98.371C178.341 98.491 178.371 98.571 178.211 98.611C176.871 98.951 175.681 99.311 174.641 99.691C173.601 100.071 172.571 100.491 171.551 100.951ZM191.529 118.741C191.529 119.341 191.599 119.801 191.739 120.121C191.879 120.421 192.169 120.631 192.609 120.751C193.069 120.871 193.749 120.931 194.649 120.931C194.709 120.931 194.739 120.991 194.739 121.111C194.739 121.231 194.709 121.291 194.649 121.291C194.009 121.291 193.309 121.281 192.549 121.261C191.809 121.241 190.999 121.231 190.119 121.231C189.419 121.231 188.749 121.241 188.109 121.261C187.469 121.281 186.899 121.291 186.399 121.291C186.339 121.291 186.309 121.231 186.309 121.111C186.309 120.991 186.339 120.931 186.399 120.931C187.059 120.931 187.549 120.881 187.869 120.781C188.189 120.681 188.399 120.481 188.499 120.181C188.619 119.881 188.679 119.441 188.679 118.861V104.971C188.679 104.391 188.619 103.961 188.499 103.681C188.399 103.381 188.189 103.181 187.869 103.081C187.549 102.961 187.059 102.901 186.399 102.901C186.339 102.901 186.309 102.841 186.309 102.721C186.309 102.601 186.339 102.541 186.399 102.541C186.899 102.541 187.459 102.561 188.079 102.601C188.719 102.621 189.389 102.631 190.089 102.631C190.569 102.631 191.189 102.601 191.949 102.541C192.729 102.481 193.479 102.451 194.199 102.451C195.419 102.451 196.499 102.621 197.439 102.961C198.399 103.281 199.159 103.801 199.719 104.521C200.279 105.241 200.579 106.191 200.619 107.371C200.639 108.411 200.459 109.311 200.079 110.071C199.699 110.831 199.179 111.461 198.519 111.961C197.879 112.441 197.169 112.811 196.389 113.071C195.609 113.311 194.829 113.431 194.049 113.431C193.829 113.431 193.589 113.421 193.329 113.401C193.089 113.381 192.849 113.341 192.609 113.281C192.549 113.261 192.529 113.191 192.549 113.071C192.569 112.931 192.619 112.871 192.699 112.891C192.859 112.931 193.039 112.961 193.239 112.981C193.439 113.001 193.609 113.011 193.749 113.011C194.409 113.011 195.019 112.831 195.579 112.471C196.139 112.111 196.589 111.561 196.929 110.821C197.289 110.081 197.469 109.151 197.469 108.031C197.469 106.971 197.299 106.071 196.959 105.331C196.619 104.591 196.139 104.031 195.519 103.651C194.919 103.251 194.179 103.051 193.299 103.051C192.839 103.051 192.479 103.101 192.219 103.201C191.959 103.281 191.779 103.461 191.679 103.741C191.579 104.021 191.529 104.451 191.529 105.031V118.741ZM60.8377 155.301C60.8377 154.481 61.0477 153.751 61.4677 153.111C61.8877 152.451 62.4377 151.841 63.1177 151.281C63.7977 150.721 64.5177 150.171 65.2777 149.631C66.0377 149.071 66.7577 148.491 67.4377 147.891C68.1177 147.291 68.6677 146.631 69.0877 145.911C69.5077 145.191 69.7177 144.381 69.7177 143.481C69.7177 142.581 69.4977 141.891 69.0577 141.411C68.6177 140.911 68.0577 140.661 67.3777 140.661C66.7577 140.661 66.2977 140.861 65.9977 141.261C65.6977 141.661 65.5477 142.261 65.5477 143.061C65.5477 144.141 65.7877 145.241 66.2677 146.361C66.7477 147.481 67.3977 148.581 68.2177 149.661C69.0577 150.741 69.9877 151.781 71.0077 152.781C72.0477 153.761 73.1177 154.661 74.2177 155.481C75.5977 156.501 76.8177 157.301 77.8777 157.881C78.9377 158.441 79.7577 158.791 80.3377 158.931C80.4377 158.951 80.4777 159.021 80.4577 159.141C80.4377 159.241 80.3977 159.291 80.3377 159.291C79.7777 159.291 79.1077 159.291 78.3277 159.291C77.5677 159.291 76.7977 159.291 76.0177 159.291C75.7777 159.291 75.4677 159.211 75.0877 159.051C74.7077 158.891 74.2077 158.611 73.5877 158.211C72.9677 157.791 72.1677 157.191 71.1877 156.411C70.3077 155.691 69.3977 154.891 68.4577 154.011C67.5177 153.111 66.6477 152.191 65.8477 151.251C65.0677 150.291 64.4377 149.351 63.9577 148.431C63.6977 147.911 63.4877 147.391 63.3277 146.871C63.1677 146.351 63.0877 145.791 63.0877 145.191C63.0877 144.191 63.3077 143.291 63.7477 142.491C64.2077 141.691 64.8477 141.061 65.6677 140.601C66.4877 140.141 67.4577 139.911 68.5777 139.911C69.2977 139.911 69.9477 140.021 70.5277 140.241C71.1077 140.461 71.5677 140.791 71.9077 141.231C72.2477 141.651 72.4177 142.211 72.4177 142.911C72.4177 143.731 72.1977 144.451 71.7577 145.071C71.3377 145.691 70.7877 146.261 70.1077 146.781C69.4277 147.301 68.7077 147.811 67.9477 148.311C67.1877 148.811 66.4677 149.331 65.7877 149.871C65.1077 150.391 64.5477 150.971 64.1077 151.611C63.6877 152.251 63.4777 152.991 63.4777 153.831C63.4777 154.611 63.6977 155.351 64.1377 156.051C64.5777 156.731 65.1977 157.291 65.9977 157.731C66.7977 158.171 67.7477 158.391 68.8477 158.391C69.7077 158.391 70.4677 158.241 71.1277 157.941C71.8077 157.621 72.3677 157.191 72.8077 156.651C73.2677 156.091 73.6077 155.431 73.8277 154.671C74.0677 153.891 74.1877 153.041 74.1877 152.121C74.1877 151.141 74.0177 150.411 73.6777 149.931C73.3577 149.431 72.7477 149.181 71.8477 149.181C71.8077 149.181 71.7777 149.121 71.7577 149.001C71.7577 148.881 71.7877 148.821 71.8477 148.821L78.6877 148.791C78.7677 148.791 78.8077 148.851 78.8077 148.971C78.8077 149.091 78.7677 149.151 78.6877 149.151C78.0677 149.151 77.5977 149.221 77.2777 149.361C76.9577 149.501 76.7277 149.721 76.5877 150.021C76.4477 150.321 76.2977 150.731 76.1377 151.251C75.9777 151.871 75.7577 152.561 75.4777 153.321C75.1977 154.061 74.8377 154.801 74.3977 155.541C73.9577 156.281 73.3977 156.971 72.7177 157.611C72.0577 158.231 71.2377 158.731 70.2577 159.111C69.2977 159.471 68.1677 159.651 66.8677 159.651C65.4677 159.651 64.3177 159.441 63.4177 159.021C62.5377 158.601 61.8877 158.061 61.4677 157.401C61.0477 156.721 60.8377 156.021 60.8377 155.301ZM93.2785 143.001V156.741C93.2785 157.241 93.3285 157.621 93.4285 157.881C93.5285 158.141 93.7185 158.311 93.9985 158.391C94.2785 158.471 94.6885 158.511 95.2285 158.511H97.0285C98.4485 158.511 99.6485 158.111 100.628 157.311C101.608 156.511 102.258 155.451 102.578 154.131C102.598 154.071 102.658 154.051 102.758 154.071C102.858 154.091 102.908 154.131 102.908 154.191C102.848 154.811 102.788 155.561 102.728 156.441C102.668 157.301 102.638 158.101 102.638 158.841C102.638 159.141 102.488 159.291 102.188 159.291H88.1485C88.1085 159.291 88.0885 159.231 88.0885 159.111C88.0885 158.991 88.1085 158.931 88.1485 158.931C88.7885 158.931 89.2685 158.881 89.5885 158.781C89.9285 158.681 90.1485 158.481 90.2485 158.181C90.3685 157.881 90.4285 157.441 90.4285 156.861V142.971C90.4285 142.391 90.3685 141.961 90.2485 141.681C90.1485 141.381 89.9285 141.181 89.5885 141.081C89.2685 140.961 88.7885 140.901 88.1485 140.901C88.1085 140.901 88.0885 140.841 88.0885 140.721C88.0885 140.601 88.1085 140.541 88.1485 140.541C88.6285 140.541 89.1885 140.561 89.8285 140.601C90.4685 140.621 91.1385 140.631 91.8385 140.631C92.5785 140.631 93.2585 140.621 93.8785 140.601C94.5185 140.561 95.0785 140.541 95.5585 140.541C95.6185 140.541 95.6485 140.601 95.6485 140.721C95.6485 140.841 95.6185 140.901 95.5585 140.901C94.9185 140.901 94.4285 140.961 94.0885 141.081C93.7685 141.181 93.5485 141.381 93.4285 141.681C93.3285 141.981 93.2785 142.421 93.2785 143.001ZM114.399 159.651C112.959 159.651 111.649 159.401 110.469 158.901C109.309 158.381 108.309 157.671 107.469 156.771C106.649 155.871 106.009 154.841 105.549 153.681C105.109 152.501 104.889 151.251 104.889 149.931C104.889 148.311 105.199 146.891 105.819 145.671C106.459 144.451 107.299 143.441 108.339 142.641C109.379 141.821 110.519 141.211 111.759 140.811C112.999 140.411 114.229 140.211 115.449 140.211C116.929 140.211 118.249 140.481 119.409 141.021C120.589 141.541 121.589 142.251 122.409 143.151C123.229 144.051 123.849 145.071 124.269 146.211C124.709 147.351 124.929 148.521 124.929 149.721C124.929 151.121 124.649 152.421 124.089 153.621C123.529 154.821 122.759 155.871 121.779 156.771C120.819 157.671 119.699 158.381 118.419 158.901C117.159 159.401 115.819 159.651 114.399 159.651ZM115.419 158.931C116.619 158.931 117.689 158.611 118.629 157.971C119.589 157.331 120.339 156.391 120.879 155.151C121.439 153.891 121.719 152.371 121.719 150.591C121.719 148.731 121.419 147.081 120.819 145.641C120.219 144.201 119.359 143.071 118.239 142.251C117.119 141.411 115.779 140.991 114.219 140.991C112.279 140.991 110.769 141.691 109.689 143.091C108.629 144.471 108.099 146.391 108.099 148.851C108.099 150.291 108.279 151.631 108.639 152.871C108.999 154.091 109.499 155.161 110.139 156.081C110.799 157.001 111.569 157.711 112.449 158.211C113.349 158.691 114.339 158.931 115.419 158.931ZM121.419 143.331L121.299 142.911C122.779 142.351 123.519 141.711 123.519 140.991C123.519 140.791 123.459 140.631 123.339 140.511C123.239 140.371 123.129 140.221 123.009 140.061C122.909 139.901 122.859 139.671 122.859 139.371C122.859 138.891 123.009 138.541 123.309 138.321C123.629 138.081 123.969 137.961 124.329 137.961C124.789 137.961 125.129 138.121 125.349 138.441C125.569 138.761 125.679 139.101 125.679 139.461C125.679 140.121 125.459 140.691 125.019 141.171C124.599 141.651 124.059 142.071 123.399 142.431C122.739 142.771 122.079 143.071 121.419 143.331ZM114.969 165.321C114.449 165.321 114.039 165.181 113.739 164.901C113.459 164.621 113.319 164.221 113.319 163.701C113.319 163.221 113.459 162.841 113.739 162.561C114.039 162.281 114.449 162.141 114.969 162.141C115.469 162.141 115.849 162.281 116.109 162.561C116.389 162.841 116.529 163.221 116.529 163.701C116.529 164.781 116.009 165.321 114.969 165.321ZM132.898 156.861C132.898 157.441 132.948 157.881 133.048 158.181C133.168 158.481 133.388 158.681 133.708 158.781C134.028 158.881 134.518 158.931 135.178 158.931C135.238 158.931 135.268 158.991 135.268 159.111C135.268 159.231 135.238 159.291 135.178 159.291C134.678 159.291 134.118 159.281 133.498 159.261C132.878 159.241 132.188 159.231 131.428 159.231C130.728 159.231 130.058 159.241 129.418 159.261C128.778 159.281 128.208 159.291 127.708 159.291C127.648 159.291 127.618 159.231 127.618 159.111C127.618 158.991 127.648 158.931 127.708 158.931C128.348 158.931 128.838 158.881 129.178 158.781C129.518 158.681 129.738 158.481 129.838 158.181C129.958 157.881 130.018 157.441 130.018 156.861V142.971C130.018 142.391 129.958 141.961 129.838 141.681C129.738 141.381 129.518 141.181 129.178 141.081C128.838 140.961 128.348 140.901 127.708 140.901C127.648 140.901 127.618 140.841 127.618 140.721C127.618 140.601 127.648 140.541 127.708 140.541C128.208 140.541 128.778 140.561 129.418 140.601C130.058 140.621 130.728 140.631 131.428 140.631C132.188 140.631 132.878 140.621 133.498 140.601C134.138 140.561 134.698 140.541 135.178 140.541C135.238 140.541 135.268 140.601 135.268 140.721C135.268 140.841 135.238 140.901 135.178 140.901C134.538 140.901 134.048 140.961 133.708 141.081C133.388 141.201 133.168 141.411 133.048 141.711C132.948 142.011 132.898 142.451 132.898 143.031V156.861ZM150.095 156.861C150.095 157.441 150.145 157.881 150.245 158.181C150.365 158.481 150.585 158.681 150.905 158.781C151.225 158.881 151.715 158.931 152.375 158.931C152.435 158.931 152.465 158.991 152.465 159.111C152.465 159.231 152.435 159.291 152.375 159.291C151.875 159.291 151.315 159.281 150.695 159.261C150.075 159.241 149.385 159.231 148.625 159.231C147.925 159.231 147.255 159.241 146.615 159.261C145.975 159.281 145.405 159.291 144.905 159.291C144.845 159.291 144.815 159.231 144.815 159.111C144.815 158.991 144.845 158.931 144.905 158.931C145.545 158.931 146.035 158.881 146.375 158.781C146.715 158.681 146.935 158.481 147.035 158.181C147.155 157.881 147.215 157.441 147.215 156.861V142.971C147.215 142.391 147.155 141.961 147.035 141.681C146.935 141.381 146.715 141.181 146.375 141.081C146.035 140.961 145.545 140.901 144.905 140.901C144.845 140.901 144.815 140.841 144.815 140.721C144.815 140.601 144.845 140.541 144.905 140.541C145.405 140.541 145.975 140.561 146.615 140.601C147.255 140.621 147.925 140.631 148.625 140.631C149.385 140.631 150.075 140.621 150.695 140.601C151.335 140.561 151.895 140.541 152.375 140.541C152.435 140.541 152.465 140.601 152.465 140.721C152.465 140.841 152.435 140.901 152.375 140.901C151.735 140.901 151.245 140.961 150.905 141.081C150.585 141.201 150.365 141.411 150.245 141.711C150.145 142.011 150.095 142.451 150.095 143.031V156.861ZM145.745 138.921C145.665 138.961 145.605 138.931 145.565 138.831C145.525 138.711 145.535 138.641 145.595 138.621C146.395 138.121 147.125 137.611 147.785 137.091C148.445 136.551 149.105 136.051 149.765 135.591C149.845 135.531 150.055 135.541 150.395 135.621C150.735 135.701 151.095 135.821 151.475 135.981C151.855 136.121 152.145 136.251 152.345 136.371C152.565 136.491 152.585 136.571 152.405 136.611C151.065 136.931 149.875 137.281 148.835 137.661C147.795 138.041 146.765 138.461 145.745 138.921ZM166.381 140.211C167.081 140.211 167.751 140.251 168.391 140.331C169.051 140.391 169.661 140.491 170.221 140.631C170.801 140.751 171.321 140.921 171.781 141.141C171.941 141.221 172.041 141.301 172.081 141.381C172.141 141.461 172.181 141.611 172.201 141.831L172.561 145.791C172.561 145.851 172.511 145.891 172.411 145.911C172.311 145.931 172.241 145.901 172.201 145.821C171.681 144.201 170.911 142.961 169.891 142.101C168.871 141.221 167.591 140.781 166.051 140.781C164.571 140.781 163.261 141.151 162.121 141.891C160.981 142.611 160.091 143.651 159.451 145.011C158.811 146.351 158.491 147.951 158.491 149.811C158.491 151.171 158.681 152.421 159.061 153.561C159.461 154.701 160.011 155.681 160.711 156.501C161.431 157.321 162.261 157.961 163.201 158.421C164.141 158.861 165.171 159.081 166.291 159.081C167.791 159.081 169.021 158.691 169.981 157.911C170.941 157.131 171.781 155.911 172.501 154.251C172.521 154.191 172.581 154.171 172.681 154.191C172.781 154.211 172.831 154.241 172.831 154.281L172.441 157.851C172.421 158.091 172.381 158.251 172.321 158.331C172.281 158.391 172.181 158.461 172.021 158.541C171.041 158.941 170.081 159.221 169.141 159.381C168.201 159.561 167.241 159.651 166.261 159.651C164.121 159.651 162.221 159.251 160.561 158.451C158.901 157.631 157.591 156.491 156.631 155.031C155.691 153.551 155.221 151.861 155.221 149.961C155.221 148.521 155.501 147.201 156.061 146.001C156.621 144.801 157.401 143.771 158.401 142.911C159.421 142.051 160.611 141.391 161.971 140.931C163.331 140.451 164.801 140.211 166.381 140.211ZM190.819 143.031C190.819 142.451 190.759 142.011 190.639 141.711C190.519 141.411 190.279 141.201 189.919 141.081C189.559 140.961 189.009 140.901 188.269 140.901C188.209 140.901 188.179 140.841 188.179 140.721C188.179 140.601 188.209 140.541 188.269 140.541C188.769 140.541 189.339 140.561 189.979 140.601C190.639 140.621 191.399 140.631 192.259 140.631C192.959 140.631 193.649 140.621 194.329 140.601C195.009 140.561 195.599 140.541 196.099 140.541C196.159 140.541 196.189 140.601 196.189 140.721C196.189 140.841 196.159 140.901 196.099 140.901C195.399 140.901 194.869 140.961 194.509 141.081C194.169 141.181 193.939 141.381 193.819 141.681C193.699 141.961 193.639 142.391 193.639 142.971V156.861C193.639 157.441 193.699 157.881 193.819 158.181C193.939 158.481 194.169 158.681 194.509 158.781C194.869 158.881 195.399 158.931 196.099 158.931C196.159 158.931 196.189 158.991 196.189 159.111C196.189 159.231 196.159 159.291 196.099 159.291C195.599 159.291 195.009 159.281 194.329 159.261C193.649 159.241 192.959 159.231 192.259 159.231C191.399 159.231 190.639 159.241 189.979 159.261C189.339 159.281 188.769 159.291 188.269 159.291C188.209 159.291 188.179 159.231 188.179 159.111C188.179 158.991 188.209 158.931 188.269 158.931C189.009 158.931 189.559 158.881 189.919 158.781C190.279 158.681 190.519 158.481 190.639 158.181C190.759 157.881 190.819 157.441 190.819 156.861V143.031ZM178.969 149.931V149.151H192.109V149.931H178.969ZM177.649 156.861V142.971C177.649 142.391 177.589 141.961 177.469 141.681C177.349 141.381 177.119 141.181 176.779 141.081C176.439 140.961 175.919 140.901 175.219 140.901C175.179 140.901 175.159 140.841 175.159 140.721C175.159 140.601 175.179 140.541 175.219 140.541C175.739 140.541 176.319 140.561 176.959 140.601C177.599 140.621 178.269 140.631 178.969 140.631C179.829 140.631 180.589 140.621 181.249 140.601C181.909 140.561 182.499 140.541 183.019 140.541C183.059 140.541 183.079 140.601 183.079 140.721C183.079 140.841 183.059 140.901 183.019 140.901C182.299 140.901 181.759 140.961 181.399 141.081C181.039 141.201 180.799 141.411 180.679 141.711C180.559 142.011 180.499 142.451 180.499 143.031V156.861C180.499 157.441 180.559 157.881 180.679 158.181C180.799 158.481 181.039 158.681 181.399 158.781C181.779 158.881 182.319 158.931 183.019 158.931C183.059 158.931 183.079 158.991 183.079 159.111C183.079 159.231 183.059 159.291 183.019 159.291C182.479 159.291 181.879 159.281 181.219 159.261C180.579 159.241 179.829 159.231 178.969 159.231C178.269 159.231 177.589 159.241 176.929 159.261C176.269 159.281 175.689 159.291 175.189 159.291C175.149 159.291 175.129 159.231 175.129 159.111C175.129 158.991 175.149 158.931 175.189 158.931C175.889 158.931 176.409 158.881 176.749 158.781C177.089 158.681 177.319 158.481 177.439 158.181C177.579 157.881 177.649 157.441 177.649 156.861Z" fill="white"/>
<defs>
<linearGradient id="paint0_linear_1436_7086" x1="133.02" y1="61.1944" x2="256.968" y2="61.1944" gradientUnits="userSpaceOnUse">
<stop stop-color="#E58D42"/>
<stop offset="1" stop-color="#EFDC6D"/>
</linearGradient>
<linearGradient id="paint1_linear_1436_7086" x1="133.019" y1="195.39" x2="256.967" y2="195.39" gradientUnits="userSpaceOnUse">
<stop stop-color="#AD3DD7"/>
<stop offset="1" stop-color="#C93D90"/>
</linearGradient>
<linearGradient id="paint2_linear_1436_7086" x1="0" y1="61.1944" x2="123.937" y2="61.1944" gradientUnits="userSpaceOnUse">
<stop stop-color="#B1D03D"/>
<stop offset="1" stop-color="#76CC8F"/>
</linearGradient>
<linearGradient id="paint3_linear_1436_7086" x1="0" y1="195.39" x2="123.937" y2="195.39" gradientUnits="userSpaceOnUse">
<stop stop-color="#66ADE1"/>
<stop offset="1" stop-color="#5088D5"/>
</linearGradient>
<linearGradient id="paint4_linear_1436_7086" x1="132.812" y1="64.3359" x2="250.945" y2="64.3359" gradientUnits="userSpaceOnUse">
<stop stop-color="#E58D42"/>
<stop offset="1" stop-color="#EFDC6D"/>
</linearGradient>
<linearGradient id="paint5_linear_1436_7086" x1="132.813" y1="192.248" x2="250.945" y2="192.248" gradientUnits="userSpaceOnUse">
<stop stop-color="#AD3DD7"/>
<stop offset="1" stop-color="#C93D90"/>
</linearGradient>
<linearGradient id="paint6_linear_1436_7086" x1="112.308" y1="116.736" x2="41.4551" y2="37.8288" gradientUnits="userSpaceOnUse">
<stop stop-color="#B1D03D"/>
<stop offset="1" stop-color="#76CC8F"/>
</linearGradient>
<linearGradient id="paint7_linear_1436_7086" x1="6.02344" y1="192.248" x2="124.156" y2="192.248" gradientUnits="userSpaceOnUse">
<stop stop-color="#66ADE1"/>
<stop offset="1" stop-color="#5088D5"/>
</linearGradient>
</defs>
</svg>
