<svg preserveAspectRatio="none" width="100%" height="100%" overflow="visible" style="display: block;" viewBox="0 0 40 40" fill="none" xmlns="http://www.w3.org/2000/svg">
<g id="01.facebook">
<path id="Vector" d="M20 0.75C25.1054 0.75 30.0013 2.7786 33.6113 6.38867C37.2214 9.99875 39.25 14.8946 39.25 20C39.25 23.8072 38.1209 27.5288 36.0059 30.6943C33.8906 33.86 30.8837 36.3282 27.3662 37.7852C23.8489 39.242 19.9781 39.6226 16.2441 38.8799C12.5102 38.1371 9.08073 36.3034 6.38867 33.6113C3.69661 30.9193 1.86293 27.4898 1.12012 23.7559C0.37739 20.0219 0.758045 16.1511 2.21484 12.6338C3.67183 9.11631 6.14002 6.10936 9.30566 3.99414C12.4712 1.87905 16.1928 0.750002 20 0.75Z" stroke="var(--stroke-0, white)" stroke-width="1.5"/>
<path id="Vector_2" d="M24.7367 20.8921L25.0682 18.1053C25.0771 18.0323 25.0705 17.9584 25.0491 17.8881C25.0276 17.8179 24.9917 17.7529 24.9436 17.6974C24.8955 17.6419 24.8363 17.597 24.7699 17.5658C24.7034 17.5345 24.6311 17.5175 24.5577 17.5158H21.3156V15.1868C21.3156 14.1289 21.5946 13.4211 23.0735 13.3974H24.4393C24.5789 13.3974 24.7128 13.3419 24.8115 13.2432C24.9102 13.1445 24.9656 13.0106 24.9656 12.8711V10.5263C24.9656 10.3867 24.9102 10.2529 24.8115 10.1542C24.7128 10.0555 24.5789 10 24.4393 10H22.2103C19.4919 10 17.6314 11.7 17.6314 14.8237V17.5237H15.4551C15.3155 17.5237 15.1816 17.5791 15.0829 17.6778C14.9842 17.7765 14.9288 17.9104 14.9288 18.05V20.8342C14.9288 20.9738 14.9842 21.1077 15.0829 21.2064C15.1816 21.3051 15.3155 21.3605 15.4551 21.3605H17.6472L17.6314 29.6211C17.6307 29.6701 17.6397 29.7189 17.6578 29.7645C17.676 29.8101 17.7029 29.8517 17.7371 29.8868C17.7713 29.922 17.8121 29.9501 17.8572 29.9696C17.9023 29.989 17.9507 29.9993 17.9998 30H20.9472C21.0458 29.9986 21.1399 29.9583 21.209 29.8878C21.278 29.8173 21.3163 29.7223 21.3156 29.6237V21.3605H24.2103C24.3405 21.3613 24.4663 21.3139 24.5634 21.2274C24.6606 21.1409 24.7224 21.0214 24.7367 20.8921Z" fill="var(--fill-0, white)"/>
</g>
</svg>
