<svg preserveAspectRatio="none" width="100%" height="100%" overflow="visible" style="display: block;" viewBox="0 0 40 40" fill="none" xmlns="http://www.w3.org/2000/svg">
<path id="Vector" d="M20 0.75C25.1054 0.75 30.0013 2.7786 33.6113 6.38867C37.2214 9.99875 39.25 14.8946 39.25 20C39.25 23.8072 38.1209 27.5288 36.0059 30.6943C33.8906 33.86 30.8837 36.3282 27.3662 37.7852C23.8489 39.242 19.9781 39.6226 16.2441 38.8799C12.5102 38.1371 9.08073 36.3034 6.38867 33.6113C3.69661 30.9193 1.86293 27.4898 1.12012 23.7559C0.37739 20.0219 0.758045 16.1511 2.21484 12.6338C3.67183 9.11631 6.14002 6.10936 9.30566 3.99414C12.4712 1.87905 16.1928 0.750002 20 0.75Z" stroke="var(--stroke-0, white)" stroke-width="1.5"/>
</svg>
