<svg preserveAspectRatio="none" width="100%" height="100%" overflow="visible" style="display: block;" viewBox="0 0 20 20" fill="none" xmlns="http://www.w3.org/2000/svg">
<g id="Layer_1">
<path id="Vector" d="M1.49417 8.61201C1.17668 7.75292 0.952573 6.87516 1.0086 5.94137C1.04595 5.36241 1.27006 4.87684 1.69961 4.46598C2.14783 4.03643 2.59605 3.56954 3.04427 3.13999C3.62322 2.56104 4.37025 2.56104 4.9492 3.13999C5.30404 3.49483 5.67756 3.86835 6.0324 4.22319C6.38724 4.57803 6.74208 4.9142 7.07824 5.26904C7.69454 5.88534 7.69454 6.61369 7.07824 7.23C6.6487 7.67822 6.20048 8.10776 5.75226 8.5373C5.6402 8.64936 5.62153 8.74274 5.67755 8.89215C5.97637 9.60183 6.38724 10.2181 6.87281 10.8158C7.82527 11.9923 8.92715 13.0382 10.2158 13.8599C10.4959 14.028 10.7947 14.1587 11.0935 14.3081C11.2429 14.3828 11.3363 14.3642 11.4671 14.2334C11.8966 13.7852 12.3448 13.337 12.793 12.8888C13.372 12.3098 14.119 12.3098 14.698 12.8888C15.4077 13.5985 16.136 14.3081 16.8457 15.0365C17.4433 15.6341 17.4433 16.3811 16.8457 16.9788C16.4348 17.3896 16.0053 17.7818 15.6318 18.2114C15.0715 18.8277 14.3805 19.0331 13.5774 18.9958C12.4195 18.9397 11.3363 18.5475 10.3092 18.0433C8.01203 16.9227 6.0324 15.3727 4.38892 13.4117C3.15632 11.9737 2.14783 10.3862 1.49417 8.61201ZM19.0034 9.0057C18.5771 4.79862 15.239 1.44897 11.0371 1.00494C10.5299 0.95133 10.085 1.34102 10.085 1.85111V1.86742C10.085 2.30435 10.4163 2.66744 10.8508 2.71322C14.2372 3.07001 16.9477 5.76557 17.309 9.16344C17.3556 9.60144 17.7237 9.93388 18.1642 9.92904C18.6591 9.92361 19.0533 9.49811 19.0034 9.0057ZM10.085 5.07512V5.08704C10.085 5.49425 10.3703 5.85617 10.7717 5.92491C11.5965 6.06619 12.3595 6.46029 12.9611 7.06191C13.5628 7.66354 13.9568 8.42658 14.0981 9.25139C14.1669 9.65275 14.5288 9.93799 14.936 9.93799H14.9435C15.4687 9.93799 15.8766 9.46566 15.7847 8.9485C15.3583 6.54728 13.4605 4.64892 11.0711 4.23333C10.555 4.14355 10.085 4.55126 10.085 5.07512Z" fill="var(--fill-0, #4DBFD9)"/>
</g>
</svg>
