<svg preserveAspectRatio="none" width="100%" height="100%" overflow="visible" style="display: block;" viewBox="0 0 40 40" fill="none" xmlns="http://www.w3.org/2000/svg">
<g id="Frame" clip-path="url(#clip0_0_29)">
<g id="Vector">
<path fill-rule="evenodd" clip-rule="evenodd" d="M29.9397 24.1228C29.8913 25.1873 29.722 25.9141 29.4749 26.5503C28.9554 27.8935 27.8935 28.9554 26.5503 29.4749C25.9144 29.722 25.1873 29.891 24.1231 29.9397C23.0567 29.9883 22.716 30 20.0003 30C17.2842 30 16.9438 29.9883 15.8772 29.9397C14.8129 29.891 14.0859 29.722 13.45 29.4749C12.7825 29.2238 12.1782 28.8303 11.6786 28.3214C11.17 27.8221 10.7765 27.2175 10.5254 26.5503C10.2782 25.9144 10.1089 25.1873 10.0606 24.1231C10.0114 23.0564 10 22.7158 10 20C10 17.2842 10.0114 16.9436 10.0603 15.8772C10.1087 14.8127 10.2777 14.0859 10.5248 13.4497C10.7759 12.7825 11.1697 12.1779 11.6786 11.6786C12.1779 11.1697 12.7825 10.7762 13.4497 10.5251C14.0859 10.278 14.8127 10.1089 15.8772 10.0603C16.9436 10.0117 17.2842 10 20 10C22.7158 10 23.0564 10.0117 24.1228 10.0606C25.1873 10.1089 25.9141 10.278 26.5503 10.5248C27.2175 10.7759 27.8221 11.1697 28.3216 11.6786C28.8303 12.1782 29.2241 12.7825 29.4749 13.4497C29.7223 14.0859 29.8913 14.8127 29.9399 15.8772C29.9886 16.9436 30 17.2842 30 20C30 22.7158 29.9886 23.0564 29.9397 24.1228ZM27.0475 12.9525C27.3796 13.2751 27.6353 13.6682 27.7955 14.1024C27.9326 14.4547 28.0955 14.9843 28.1399 15.9593C28.188 17.0137 28.1981 17.3299 28.1981 20.0003C28.1981 22.6703 28.188 22.9866 28.1399 24.0412C28.0952 25.0162 27.9323 25.5455 27.7955 25.8979C27.4591 26.77 26.7698 27.4593 25.8976 27.7958C25.5453 27.9329 25.0157 28.0958 24.0407 28.1401C22.9866 28.1882 22.6703 28.1983 19.9997 28.1983C17.3294 28.1983 17.0134 28.1882 15.959 28.1401C14.9841 28.0958 14.4545 27.9329 14.1021 27.7958C13.6676 27.6355 13.2749 27.3799 12.9523 27.0477C12.6201 26.7251 12.3647 26.3324 12.2042 25.8979C12.0674 25.5455 11.9045 25.0162 11.8601 24.0412C11.812 22.9866 11.8017 22.6703 11.8017 20.0003C11.8017 17.3299 11.812 17.0137 11.8601 15.9593C11.9045 14.9843 12.0674 14.4547 12.2042 14.1024C12.3647 13.6679 12.6204 13.2751 12.9525 12.9525C13.2749 12.6204 13.6679 12.3647 14.1024 12.2045C14.4545 12.0677 14.9841 11.9048 15.959 11.8601C17.0134 11.812 17.3297 11.8019 20 11.8019C22.6701 11.8019 22.9863 11.8123 24.041 11.8604C25.0159 11.9048 25.5453 12.0677 25.8976 12.2045C26.3321 12.3647 26.7249 12.6204 27.0475 12.9525Z" fill="white"/>
<path d="M25.338 15.862C24.6753 15.862 24.138 15.3247 24.138 14.662C24.138 13.9993 24.6753 13.4619 25.338 13.4619C26.0007 13.4619 26.5381 13.9993 26.5381 14.662C26.5378 15.3247 26.0007 15.862 25.338 15.862Z" fill="white"/>
<path fill-rule="evenodd" clip-rule="evenodd" d="M29.4749 26.5503C29.722 25.9141 29.8913 25.1873 29.9397 24.1228C29.9886 23.0564 30 22.7158 30 20C30 17.2842 29.9886 16.9436 29.9399 15.8772C29.8913 14.8127 29.7223 14.0859 29.4749 13.4497C29.2241 12.7825 28.8303 12.1782 28.3216 11.6786C27.8221 11.1697 27.2175 10.7759 26.5503 10.5248C25.9141 10.278 25.1873 10.1089 24.1228 10.0606C23.0564 10.0117 22.7158 10 20 10C17.2842 10 16.9436 10.0117 15.8772 10.0603C14.8127 10.1089 14.0859 10.278 13.4497 10.5251C12.7825 10.7762 12.1779 11.1697 11.6786 11.6786C11.1697 12.1779 10.7759 12.7825 10.5248 13.4497C10.2777 14.0859 10.1087 14.8127 10.0603 15.8772C10.0114 16.9436 10 17.2842 10 20C10 22.7158 10.0114 23.0564 10.0606 24.1231C10.1089 25.1873 10.2782 25.9144 10.5254 26.5503C10.7765 27.2175 11.17 27.8221 11.6786 28.3214C12.1782 28.8303 12.7825 29.2238 13.45 29.4749C14.0859 29.722 14.8129 29.891 15.8772 29.9397C16.9438 29.9883 17.2842 30 20.0003 30C22.716 30 23.0567 29.9883 24.1231 29.9397C25.1873 29.891 25.9144 29.722 26.5503 29.4749C27.8935 28.9554 28.9554 27.8935 29.4749 26.5503ZM27.0475 12.9525C27.3796 13.2751 27.6353 13.6682 27.7955 14.1024C27.9326 14.4547 28.0955 14.9843 28.1399 15.9593C28.188 17.0137 28.1981 17.3299 28.1981 20.0003C28.1981 22.6703 28.188 22.9866 28.1399 24.0412C28.0952 25.0162 27.9323 25.5455 27.7955 25.8979C27.4591 26.77 26.7698 27.4593 25.8976 27.7958C25.5453 27.9329 25.0157 28.0958 24.0407 28.1401C22.9866 28.1882 22.6703 28.1983 19.9997 28.1983C17.3294 28.1983 17.0134 28.1882 15.959 28.1401C14.9841 28.0958 14.4545 27.9329 14.1021 27.7958C13.6676 27.6355 13.2749 27.3799 12.9523 27.0477C12.6201 26.7251 12.3647 26.3324 12.2042 25.8979C12.0674 25.5455 11.9045 25.0162 11.8601 24.0412C11.812 22.9866 11.8017 22.6703 11.8017 20.0003C11.8017 17.3299 11.812 17.0137 11.8601 15.9593C11.9045 14.9843 12.0674 14.4547 12.2042 14.1024C12.3647 13.6679 12.6204 13.2751 12.9525 12.9525C13.2749 12.6204 13.6679 12.3647 14.1024 12.2045C14.4545 12.0677 14.9841 11.9048 15.959 11.8601C17.0134 11.812 17.3297 11.8019 20 11.8019C22.6701 11.8019 22.9863 11.8123 24.041 11.8604C25.0159 11.9048 25.5453 12.0677 25.8976 12.2045C26.3321 12.3647 26.7249 12.6204 27.0475 12.9525ZM25.338 15.862C24.6753 15.862 24.138 15.3247 24.138 14.662C24.138 13.9993 24.6753 13.4619 25.338 13.4619C26.0007 13.4619 26.5381 13.9993 26.5381 14.662C26.5378 15.3247 26.0007 15.862 25.338 15.862Z" fill="var(--fill-0, white)"/>
<path fill-rule="evenodd" clip-rule="evenodd" d="M20 25.135C17.1638 25.135 14.8647 22.8361 14.8647 20C14.8647 17.1638 17.1638 14.865 20 14.865C22.8359 14.865 25.135 17.1638 25.135 20C25.135 22.8361 22.8359 25.135 20 25.135ZM20 23.3333C21.841 23.3333 23.3333 21.841 23.3333 20C23.3333 18.159 21.841 16.6667 20 16.6667C18.159 16.6667 16.6667 18.159 16.6667 20C16.6667 21.841 18.159 23.3333 20 23.3333Z" fill="var(--fill-0, white)"/>
</g>
<path id="Vector_2" d="M20 0.75C25.1054 0.75 30.0013 2.7786 33.6113 6.38867C37.2214 9.99875 39.25 14.8946 39.25 20C39.25 23.8072 38.1209 27.5288 36.0059 30.6943C33.8906 33.86 30.8837 36.3282 27.3662 37.7852C23.8489 39.242 19.9781 39.6226 16.2441 38.8799C12.5102 38.1371 9.08073 36.3034 6.38867 33.6113C3.69661 30.9193 1.86293 27.4898 1.12012 23.7559C0.37739 20.0219 0.758045 16.1511 2.21484 12.6338C3.67183 9.11631 6.14002 6.10936 9.30566 3.99414C12.4712 1.87905 16.1928 0.750002 20 0.75Z" stroke="var(--stroke-0, white)" stroke-width="1.5"/>
</g>
<defs>
<clipPath id="clip0_0_29">
<rect width="40" height="40" fill="white"/>
</clipPath>
</defs>
</svg>
