<svg preserveAspectRatio="none" width="100%" height="100%" overflow="visible" style="display: block;" viewBox="0 0 40 40" fill="none" xmlns="http://www.w3.org/2000/svg">
<g id="Capa_1" clip-path="url(#clip0_0_17)">
<g id="Vector">
<path d="M29.5652 18.0308V15.3503L29.5651 14.3557L29.5549 14.3566C28.3103 14.3566 27.1621 13.9285 26.2399 13.2063C25.1823 12.3783 24.4224 11.1639 24.1541 9.76414C24.0876 9.41832 24.0519 9.06143 24.0484 8.69565H20.4932V18.7828L20.4889 24.3079C20.4889 25.7851 19.5625 27.0376 18.2783 27.4781C17.9056 27.6058 17.5031 27.6664 17.084 27.6425C16.549 27.6121 16.0477 27.4444 15.6119 27.1738C14.6847 26.5979 14.056 25.5533 14.039 24.3583C14.0121 22.4906 15.4662 20.968 17.2637 20.968C17.6185 20.968 17.9592 21.028 18.2783 21.1373V18.3803V17.3892C17.9418 17.3375 17.5994 17.3105 17.253 17.3105C15.2856 17.3105 13.4456 18.1596 12.1303 19.6894C11.1362 20.8454 10.5399 22.3203 10.4479 23.8669C10.3273 25.8986 11.0433 27.8299 12.4319 29.2549C12.6359 29.4641 12.8502 29.6583 13.0742 29.8374C14.2647 30.7887 15.7201 31.3043 17.253 31.3043C17.5994 31.3043 17.9418 31.2778 18.2783 31.2261C19.7104 31.0058 21.0316 30.3252 22.0743 29.2549C23.3555 27.94 24.0634 26.1944 24.0711 24.3365L24.0528 16.0858C24.664 16.5754 25.3323 16.9805 26.0496 17.2949C27.1651 17.7836 28.3479 18.0313 29.5652 18.0308Z" fill="white"/>
</g>
<path id="Vector_2" d="M20 0.75C25.1054 0.75 30.0013 2.7786 33.6113 6.38867C37.2214 9.99875 39.25 14.8946 39.25 20C39.25 23.8072 38.1209 27.5288 36.0059 30.6943C33.8906 33.86 30.8837 36.3282 27.3662 37.7852C23.8489 39.242 19.9781 39.6226 16.2441 38.8799C12.5102 38.1371 9.08073 36.3034 6.38867 33.6113C3.69661 30.9193 1.86293 27.4898 1.12012 23.7559C0.37739 20.0219 0.758045 16.1511 2.21484 12.6338C3.67183 9.11631 6.14002 6.10936 9.30566 3.99414C12.4712 1.87905 16.1928 0.750002 20 0.75Z" stroke="var(--stroke-0, white)" stroke-width="1.5"/>
</g>
<defs>
<clipPath id="clip0_0_17">
<rect width="40" height="40" fill="white"/>
</clipPath>
</defs>
</svg>
