<svg width="56" height="64" viewBox="0 0 56 64" fill="none" xmlns="http://www.w3.org/2000/svg">
<path d="M24.0309 2.26806C26.4903 0.862658 29.5097 0.862657 31.9691 2.26806L51.9691 13.6966C54.4617 15.121 56 17.7717 56 20.6426V43.3574C56 46.2283 54.4617 48.879 51.9691 50.3034L31.9691 61.7319C29.5097 63.1373 26.4904 63.1373 24.0309 61.7319L4.03089 50.3034C1.53829 48.879 0 46.2283 0 43.3574V20.6426C0 17.7717 1.53829 15.121 4.03089 13.6966L24.0309 2.26806Z" fill="#0C608F"/>
<path fill-rule="evenodd" clip-rule="evenodd" d="M32.367 19.8602C33.5391 20.1392 34.6588 20.6039 35.6848 21.2357L37.8407 20.2782L40.3816 22.8191L39.4244 24.9743C40.0564 26.0005 40.5211 27.1205 40.8001 28.293L42.9996 29.1396V32.733L40.7996 33.5798C40.5206 34.752 40.0559 35.8715 39.4242 36.8975L40.3817 39.0535L37.8408 41.5944L35.6856 40.6372C34.6594 41.2692 33.5394 41.7339 32.3669 42.0128L31.5203 44.2123H30.2259C29.2695 41.3905 27.0294 39.2108 24.2497 38.2937C24.5036 38.1213 24.7417 37.9274 24.9613 37.7145C26.3085 38.6628 27.9509 39.2199 29.7236 39.2199C34.2986 39.2199 38.0073 35.5112 38.0073 30.9363C38.0073 26.3613 34.2986 22.6527 29.7236 22.6527C25.9256 22.6527 22.7248 25.2088 21.7472 28.6947C19.4731 28.503 17.3348 29.7895 16.4476 31.8977V29.1397L18.6474 28.2928C18.9264 27.1206 19.3911 26.0008 20.023 24.9748L19.0656 22.8192L21.6065 20.2782L23.7624 21.2357C24.7884 20.6039 25.908 20.1392 27.0801 19.8602L27.927 17.6602H31.5203L32.367 19.8602ZM20.6981 38.8226L19.2946 43.2357C19.2602 43.3438 19.2834 43.4533 19.3586 43.5383L21.1583 45.5703C21.2331 45.6548 21.3649 45.6548 21.4398 45.5703L23.2394 43.5383C23.3147 43.4533 23.3379 43.3438 23.3035 43.2357L21.8999 38.8226H20.6981ZM21.2991 29.678C18.9469 29.678 17.04 31.5848 17.04 33.937C17.04 36.2892 18.9469 38.1961 21.2991 38.1961C23.6513 38.1961 25.5581 36.2892 25.5581 33.937C25.5581 31.5848 23.6513 29.678 21.2991 29.678ZM13.5016 46.34L20.5129 46.3399C20.476 46.3074 20.4409 46.2724 20.4078 46.235L18.6081 44.203C18.2988 43.8538 18.1978 43.3763 18.3392 42.9318L19.5909 38.996C16.2389 39.6863 13.6144 42.3682 13.0081 45.7502C12.9527 46.0593 13.1876 46.34 13.5016 46.34ZM22.0851 46.3399H29.0964C29.4104 46.3399 29.6453 46.0593 29.5898 45.7502C28.9835 42.3683 26.3589 39.6865 23.007 38.996L24.2588 42.9319C24.4002 43.3764 24.2991 43.8539 23.9899 44.2031L22.1902 46.2351C22.1571 46.2725 22.122 46.3074 22.0851 46.3399ZM29.7235 24.9502C26.9537 24.9502 24.6237 26.8315 23.9406 29.3859C25.5073 30.2972 26.5606 31.994 26.5606 33.937C26.5606 34.5903 26.4412 35.2156 26.2236 35.7928C27.2079 36.5033 28.4167 36.9224 29.7235 36.9224C33.0296 36.9224 35.7096 34.2423 35.7096 30.9363C35.7096 27.6302 33.0296 24.9502 29.7235 24.9502ZM30.2248 34.3423V34.7243C30.2248 35.0011 30.0003 35.2255 29.7235 35.2255C29.4467 35.2255 29.2223 35.0011 29.2223 34.7243V34.3328C28.3101 34.1723 27.5484 33.5921 27.3175 32.666C27.2516 32.3978 27.4155 32.1269 27.6836 32.0609C27.9518 31.9949 28.2227 32.1589 28.2887 32.427C28.4567 33.1008 29.1469 33.3936 29.7899 33.3782C30.3147 33.3657 31.1596 33.1358 31.1441 32.4867C31.1265 31.7224 30.2551 31.5077 29.6487 31.4081C28.6059 31.2368 27.5618 30.7525 27.5035 29.5517C27.4523 28.4967 28.2398 27.7444 29.2216 27.5467L29.2223 27.5466V27.1482C29.2223 26.8714 29.4467 26.647 29.7235 26.647C30.0003 26.647 30.2248 26.8714 30.2248 27.1482V27.5391C30.2742 27.5485 30.3234 27.5593 30.3723 27.5717C31.0323 27.739 31.6326 28.1728 31.9479 28.9239C32.055 29.1791 31.9349 29.4728 31.6797 29.5798C31.4245 29.6869 31.1308 29.5668 31.0238 29.3116C30.7529 28.6665 30.0778 28.3928 29.4174 28.5257C28.9277 28.6243 28.4755 28.9572 28.5021 29.5047C28.5332 30.1453 29.2916 30.3363 29.8093 30.4213C30.9633 30.6107 32.1109 31.1249 32.1428 32.4633C32.1693 33.5747 31.2178 34.1913 30.2248 34.3423Z" fill="white"/>
</svg>
