<svg preserveAspectRatio="none" width="100%" height="100%" overflow="visible" style="display: block;" viewBox="0 0 25.125 150" fill="none" xmlns="http://www.w3.org/2000/svg">
<g id="Group">
<path id="Vector" d="M0.5625 0C0.5625 18.75 24.5625 18.75 24.5625 37.5C24.5625 56.25 0.5625 56.25 0.5625 75C0.5625 93.75 24.5625 93.75 24.5625 112.5C24.5625 131.25 0.5625 131.25 0.5625 150" stroke="var(--stroke-0, #4DBFD9)" stroke-width="1.125"/>
<path id="Vector_2" d="M24.5625 0C24.5625 18.75 0.5625 18.75 0.5625 37.5C0.5625 56.25 24.5625 56.25 24.5625 75C24.5625 93.75 0.5625 93.75 0.5625 112.5C0.5625 131.25 24.5625 131.25 24.5625 150" stroke="var(--stroke-0, #4DBFD9)" stroke-width="1.125"/>
<path id="Vector_3" d="M3.5625 9H21.5625" stroke="var(--stroke-0, #4DBFD9)" stroke-width="1.125"/>
<path id="Vector_4" d="M5.0625 16.5H20.0625" stroke="var(--stroke-0, #4DBFD9)" stroke-width="1.125"/>
<path id="Vector_5" d="M3.5625 25.5H21.5625" stroke="var(--stroke-0, #4DBFD9)" stroke-width="1.125"/>
<path id="Vector_6" d="M5.0625 46.5H20.0625" stroke="var(--stroke-0, #4DBFD9)" stroke-width="1.125"/>
<path id="Vector_7" d="M3.5625 54H21.5625" stroke="var(--stroke-0, #4DBFD9)" stroke-width="1.125"/>
<path id="Vector_8" d="M5.0625 63H20.0625" stroke="var(--stroke-0, #4DBFD9)" stroke-width="1.125"/>
<path id="Vector_9" d="M3.5625 84H21.5625" stroke="var(--stroke-0, #4DBFD9)" stroke-width="1.125"/>
<path id="Vector_10" d="M5.0625 91.5H20.0625" stroke="var(--stroke-0, #4DBFD9)" stroke-width="1.125"/>
<path id="Vector_11" d="M3.5625 100.5H21.5625" stroke="var(--stroke-0, #4DBFD9)" stroke-width="1.125"/>
<path id="Vector_12" d="M5.0625 121.5H20.0625" stroke="var(--stroke-0, #4DBFD9)" stroke-width="1.125"/>
<path id="Vector_13" d="M3.5625 129H21.5625" stroke="var(--stroke-0, #4DBFD9)" stroke-width="1.125"/>
<path id="Vector_14" d="M5.0625 138H20.0625" stroke="var(--stroke-0, #4DBFD9)" stroke-width="1.125"/>
</g>
</svg>
