<svg preserveAspectRatio="none" width="100%" height="100%" overflow="visible" style="display: block;" viewBox="0 0 110.156 118.359" fill="none" xmlns="http://www.w3.org/2000/svg">
<g id="Group">
<path id="Vector" d="M55.0781 79.6875C61.5502 79.6875 66.7969 74.4408 66.7969 67.9688C66.7969 61.4967 61.5502 56.25 55.0781 56.25C48.606 56.25 43.3594 61.4967 43.3594 67.9688C43.3594 74.4408 48.606 79.6875 55.0781 79.6875Z" fill="var(--fill-0, #4DBFD9)"/>
<path id="Vector_2" d="M8.20312 33.9844C12.7336 33.9844 16.4062 30.3117 16.4062 25.7812C16.4062 21.2508 12.7336 17.5781 8.20312 17.5781C3.67266 17.5781 0 21.2508 0 25.7812C0 30.3117 3.67266 33.9844 8.20312 33.9844Z" fill="var(--fill-0, #4DBFD9)"/>
<path id="Vector_3" d="M101.953 33.9844C106.484 33.9844 110.156 30.3117 110.156 25.7812C110.156 21.2508 106.484 17.5781 101.953 17.5781C97.4227 17.5781 93.75 21.2508 93.75 25.7812C93.75 30.3117 97.4227 33.9844 101.953 33.9844Z" fill="var(--fill-0, #4DBFD9)"/>
<path id="Vector_4" d="M8.20312 118.359C12.7336 118.359 16.4062 114.687 16.4062 110.156C16.4062 105.626 12.7336 101.953 8.20312 101.953C3.67266 101.953 0 105.626 0 110.156C0 114.687 3.67266 118.359 8.20312 118.359Z" fill="var(--fill-0, #4DBFD9)"/>
<path id="Vector_5" d="M101.953 118.359C106.484 118.359 110.156 114.687 110.156 110.156C110.156 105.626 106.484 101.953 101.953 101.953C97.4227 101.953 93.75 105.626 93.75 110.156C93.75 114.687 97.4227 118.359 101.953 118.359Z" fill="var(--fill-0, #4DBFD9)"/>
<path id="Vector_6" d="M55.0781 14.0625C58.9614 14.0625 62.1094 10.9145 62.1094 7.03125C62.1094 3.148 58.9614 0 55.0781 0C51.1949 0 48.0469 3.148 48.0469 7.03125C48.0469 10.9145 51.1949 14.0625 55.0781 14.0625Z" fill="var(--fill-0, #4DBFD9)"/>
</g>
</svg>
