<svg width="220" height="150" viewBox="0 0 220 150" fill="none" xmlns="http://www.w3.org/2000/svg">
<path d="M150 75L103.125 32.8125" stroke="#4DBFD9" stroke-width="3.51562"/>
<path d="M150 75L196.875 32.8125" stroke="#4DBFD9" stroke-width="3.51562"/>
<path d="M150 75L103.125 117.188" stroke="#4DBFD9" stroke-width="3.51562"/>
<path d="M150 75L196.875 117.188" stroke="#4DBFD9" stroke-width="3.51562"/>
<path d="M150 75V14.0625" stroke="#4DBFD9" stroke-width="3.51562"/>
<path d="M150 86.7188C156.472 86.7188 161.719 81.4721 161.719 75C161.719 68.5279 156.472 63.2812 150 63.2812C143.528 63.2812 138.281 68.5279 138.281 75C138.281 81.4721 143.528 86.7188 150 86.7188Z" fill="#4DBFD9"/>
<path d="M103.125 41.0156C107.655 41.0156 111.328 37.343 111.328 32.8125C111.328 28.282 107.655 24.6094 103.125 24.6094C98.5945 24.6094 94.9219 28.282 94.9219 32.8125C94.9219 37.343 98.5945 41.0156 103.125 41.0156Z" fill="#4DBFD9"/>
<path d="M196.875 41.0156C201.405 41.0156 205.078 37.343 205.078 32.8125C205.078 28.282 201.405 24.6094 196.875 24.6094C192.345 24.6094 188.672 28.282 188.672 32.8125C188.672 37.343 192.345 41.0156 196.875 41.0156Z" fill="#4DBFD9"/>
<path d="M103.125 125.391C107.655 125.391 111.328 121.718 111.328 117.188C111.328 112.657 107.655 108.984 103.125 108.984C98.5945 108.984 94.9219 112.657 94.9219 117.188C94.9219 121.718 98.5945 125.391 103.125 125.391Z" fill="#4DBFD9"/>
<path d="M196.875 125.391C201.405 125.391 205.078 121.718 205.078 117.188C205.078 112.657 201.405 108.984 196.875 108.984C192.345 108.984 188.672 112.657 188.672 117.188C188.672 121.718 192.345 125.391 196.875 125.391Z" fill="#4DBFD9"/>
<path d="M150 21.0938C153.883 21.0938 157.031 17.9458 157.031 14.0625C157.031 10.1792 153.883 7.03125 150 7.03125C146.117 7.03125 142.969 10.1792 142.969 14.0625C142.969 17.9458 146.117 21.0938 150 21.0938Z" fill="#4DBFD9"/>
</svg>
