<svg preserveAspectRatio="none" width="100%" height="100%" overflow="visible" style="display: block;" viewBox="0 0 40 40" fill="none" xmlns="http://www.w3.org/2000/svg">
<g id="Layer_1" clip-path="url(#clip0_0_31)">
<g id="Group">
<path id="Vector" d="M39.2 6.32C39.2 3.28 36.72 0.88 33.76 0.88C30.72 0.88 28.32 3.36 28.32 6.32C28.32 9.36 33.76 16.24 33.76 16.24C33.76 16.24 39.2 9.36 39.2 6.32ZM30.96 6.4C30.96 4.88 32.16 3.68 33.68 3.68C35.2 3.68 36.4 4.88 36.4 6.4C36.4 7.92 35.2 9.12 33.68 9.12C32.24 9.12 30.96 7.92 30.96 6.4Z" fill="var(--fill-0, #0C608F)"/>
<path id="Vector_2" d="M16.16 3.36C10.88 4.16 6.32 7.2 3.6 11.52H11.2C12.32 7.6 14.08 4.72 16.16 3.36Z" fill="var(--fill-0, #0C608F)"/>
<path id="Vector_3" d="M33.76 18.24C33.76 18.24 27.04 9.6 27.04 6.32C27.04 5.92 27.04 5.52 27.12 5.12C25.36 4.24 23.44 3.6 21.44 3.28C23.52 4.64 25.36 7.6 26.4 11.52H27.36C27.68 11.52 28 11.84 28 12.16C28 12.48 27.68 12.8 27.36 12.8H26.72C27.28 15.12 27.6 17.76 27.6 20.64H36.96C36.88 18.8 36.56 17.04 36 15.36C35.44 16.08 33.76 18.24 33.76 18.24Z" fill="var(--fill-0, #0C608F)"/>
<path id="Vector_4" d="M27.52 24.64C27.52 24.96 27.2 25.2 26.88 25.2H26.8C26.48 25.2 26.24 24.88 26.24 24.56C26.32 23.68 26.32 22.8 26.4 21.92H17.36C17.04 21.92 16.72 21.6 16.72 21.28C16.72 20.96 17.04 20.64 17.36 20.64H26.4C26.32 17.84 26 15.2 25.44 12.8H12.24C11.84 14.4 11.52 16.16 11.36 18C11.36 18.32 11.04 18.56 10.72 18.56C10.4 18.56 10.16 18.24 10.16 17.92C10.32 16.08 10.56 14.4 10.96 12.8H2.88C1.6 15.12 0.88 17.76 0.8 20.64H5.76C6.08 20.64 6.4 20.96 6.4 21.28C6.4 21.6 6.08 21.92 5.76 21.92H0.8C0.88 24.72 1.6 27.36 2.88 29.76H7.12C7.44 29.76 7.76 30.08 7.76 30.4C7.76 30.72 7.52 31.04 7.12 31.04H3.6C6.32 35.36 10.88 38.48 16.16 39.28C14.8 38.4 13.52 36.8 12.56 34.64C12.4 34.32 12.56 33.92 12.88 33.84C13.2 33.68 13.6 33.84 13.68 34.16C15.12 37.2 16.96 38.88 18.8 38.88C20.72 38.88 22.56 37.2 23.92 34.16C24.08 33.84 24.48 33.76 24.72 33.84C25.04 34 25.2 34.32 25.04 34.64C24 36.88 22.72 38.4 21.36 39.28C26.72 38.56 31.36 35.44 34.08 31.04H31.52C31.2 31.04 30.88 30.72 30.88 30.4C30.88 30.08 31.2 29.76 31.52 29.76H34.8C36.08 27.44 36.8 24.8 36.88 21.92H27.6C27.6 22.8 27.6 23.76 27.52 24.64ZM11.52 32.56C11.52 32.56 7.12 27.04 7.12 24.56C7.12 22.16 9.12 20.16 11.52 20.16C13.92 20.16 15.92 22.16 15.92 24.56C15.92 27.04 11.52 32.56 11.52 32.56ZM22.48 30.88H16C15.68 30.88 15.36 30.56 15.36 30.24C15.36 29.92 15.6 29.6 16 29.6H22.48C22.8 29.6 23.12 29.92 23.12 30.24C23.04 30.64 22.8 30.88 22.48 30.88ZM29.44 29.28C29.44 30.64 27.04 33.68 27.04 33.68C27.04 33.68 24.56 30.64 24.56 29.28C24.56 27.92 25.68 26.8 27.04 26.8C28.4 26.88 29.44 27.92 29.44 29.28Z" fill="var(--fill-0, #0C608F)"/>
<path id="Vector_5" d="M12.56 11.52H25.12C23.76 6.88 21.44 3.68 18.88 3.68C16.24 3.76 13.92 6.88 12.56 11.52Z" fill="var(--fill-0, #0C608F)"/>
<path id="Vector_6" d="M11.52 26.88C12.7571 26.88 13.76 25.8771 13.76 24.64C13.76 23.4029 12.7571 22.4 11.52 22.4C10.2829 22.4 9.28 23.4029 9.28 24.64C9.28 25.8771 10.2829 26.88 11.52 26.88Z" fill="var(--fill-0, #0C608F)"/>
</g>
<path id="Vector_7" d="M20 20.88C20.486 20.88 20.88 20.486 20.88 20C20.88 19.514 20.486 19.12 20 19.12C19.514 19.12 19.12 19.514 19.12 20C19.12 20.486 19.514 20.88 20 20.88Z" fill="var(--fill-0, #0C608F)"/>
</g>
<defs>
<clipPath id="clip0_0_31">
<rect width="40" height="40" fill="white"/>
</clipPath>
</defs>
</svg>
