<svg preserveAspectRatio="none" width="100%" height="100%" overflow="visible" style="display: block;" viewBox="0 0 52 52" fill="none" xmlns="http://www.w3.org/2000/svg">
<g id="Layer_1">
<circle id="Ellipse 12" cx="29.7917" cy="18.4167" r="18.4167" fill="var(--fill-0, #C0EAFF)"/>
<path id="Vector" d="M25.9997 0.763672C36.9998 0.763672 45.9488 9.71297 45.9489 20.7129C45.9489 26.1053 43.7964 31.003 40.3083 34.5967L45.7527 44.0264C45.9218 44.3193 45.903 44.6844 45.7058 44.959C45.5083 45.2336 45.1681 45.3677 44.8366 45.3008L37.8454 43.8887L35.572 50.6494C35.4642 50.9702 35.1782 51.1969 34.8415 51.2305L34.8425 51.2314C34.8133 51.2344 34.7838 51.2363 34.7556 51.2363C34.4504 51.2362 34.1653 51.0736 34.0105 50.8057L28.0896 40.5508C27.4027 40.6227 26.7056 40.6621 25.9997 40.6621C25.2934 40.6621 24.5962 40.6228 23.9089 40.5508L18.1989 50.4424C18.0441 50.7104 17.7589 50.8729 17.4538 50.873L17.3679 50.8691C17.0313 50.8354 16.7453 50.6069 16.6374 50.2861L14.364 43.5264L7.37277 44.9375C7.0412 45.0045 6.70107 44.8712 6.50363 44.5967C6.30607 44.3219 6.28768 43.9561 6.45676 43.6631L11.6911 34.5967C8.20327 31.0029 6.05051 26.1051 6.05051 20.7129C6.05066 9.71301 14.9998 0.763822 25.9997 0.763672ZM39.0202 35.8105C36.4662 38.0162 33.3498 39.5851 29.9167 40.2715L34.5476 48.291L36.4558 42.6211C36.5941 42.21 37.0169 41.9659 37.4421 42.0518L43.3064 43.2344L39.0202 35.8105ZM8.90109 42.8721L14.7673 41.6885C15.1922 41.6031 15.6151 41.8466 15.7536 42.2578L17.6609 47.9287L22.0818 40.2715C18.649 39.5849 15.533 38.0161 12.9792 35.8105L8.90109 42.8721ZM25.9997 2.48633C15.9496 2.48648 7.77331 10.6627 7.77316 20.7129C7.77316 30.7632 15.9495 38.9403 25.9997 38.9404C36.0501 38.9404 44.2273 30.7633 44.2273 20.7129C44.2271 10.6626 36.05 2.48633 25.9997 2.48633ZM25.9997 5.85645C34.1919 5.85645 40.8571 12.5207 40.8571 20.7129C40.8571 28.9052 34.1919 35.5703 25.9997 35.5703C17.8077 35.5702 11.1433 28.9051 11.1433 20.7129C11.1434 12.5208 17.8077 5.8566 25.9997 5.85645ZM25.9997 7.57812C18.7574 7.57828 12.8651 13.4705 12.865 20.7129C12.865 27.9554 18.7573 33.8475 25.9997 33.8477C33.2423 33.8477 39.1355 27.9554 39.1355 20.7129C39.1353 13.4705 33.2422 7.57812 25.9997 7.57812ZM25.9997 11.4004C26.3535 11.4004 26.6718 11.6172 26.8015 11.9463L28.9861 17.4941L34.9392 17.8584C35.2922 17.88 35.5964 18.1158 35.7058 18.4521C35.8149 18.7883 35.7071 19.157 35.4343 19.3818L30.8318 23.1748L32.3259 28.9492C32.4145 29.2916 32.2847 29.6534 31.9988 29.8613C31.8483 29.9707 31.6697 30.0254 31.4919 30.0254C31.3316 30.0253 31.1713 29.9806 31.03 29.8906L25.9997 26.6855L20.9704 29.8906C20.6723 30.0807 20.2879 30.0693 20.0017 29.8613C19.7156 29.6534 19.5859 29.2916 19.6745 28.9492L21.1677 23.1748L16.5661 19.3828C16.2931 19.1578 16.1855 18.7885 16.2946 18.4521C16.4039 18.1156 16.7083 17.8799 17.0613 17.8584L23.0124 17.4941L25.1989 11.9463C25.3286 11.6173 25.6461 11.4005 25.9997 11.4004ZM24.4148 18.6367C24.2921 18.948 23.9996 19.1603 23.6657 19.1807L19.3464 19.4434L22.6863 22.1953C22.9443 22.408 23.056 22.7514 22.9724 23.0752L21.8884 27.2627L25.5368 24.9395H25.5378C25.6788 24.8497 25.839 24.8047 25.9997 24.8047C26.1606 24.8047 26.3216 24.8496 26.4626 24.9395L30.1111 27.2637L29.0271 23.0752C28.9436 22.7514 29.055 22.408 29.3132 22.1953L32.6511 19.4443L28.3337 19.1807C27.9997 19.1603 27.7073 18.9481 27.5847 18.6367L25.9997 14.6113L24.4148 18.6367Z" fill="var(--fill-0, #0A293A)" stroke="var(--stroke-0, #0A293A)" stroke-width="0.3"/>
</g>
</svg>
