<svg preserveAspectRatio="none" width="100%" height="100%" overflow="visible" style="display: block;" viewBox="0 0 52 52" fill="none" xmlns="http://www.w3.org/2000/svg">
<g id="Layer_1" clip-path="url(#clip0_0_17)">
<circle id="Ellipse 12" cx="29.7917" cy="18.4167" r="18.4167" fill="var(--fill-0, #C0EAFF)"/>
<g id="Layer_1_2">
<path id="Vector" d="M11.321 20.4936C11.2963 21.0251 10.8456 21.4359 10.3141 21.4112C9.7826 21.3866 9.37178 20.9358 9.39646 20.4043C9.42114 19.8729 9.87187 19.462 10.4034 19.4867C10.9348 19.5113 11.3456 19.9621 11.321 20.4936ZM49.7653 36.521L46.8746 37.6416C46.6146 37.7425 46.3432 37.7927 46.0718 37.7927C45.7656 37.7927 45.4596 37.7287 45.1703 37.6011C44.6247 37.3604 44.2061 36.9229 43.9916 36.3694L43.7394 35.7189L41.3867 36.7005C41.5002 37.3671 41.3911 38.0599 41.0601 38.6616C40.6676 39.3754 40.0174 39.8926 39.2294 40.1181C39.197 40.1273 39.1644 40.1362 39.1318 40.1443C39.3893 40.9197 39.3377 41.793 38.9175 42.5569C38.2974 43.6845 37.0608 44.2626 35.8555 44.1027C35.8916 44.6576 35.7764 45.2271 35.4909 45.7461C35.0995 46.4577 34.4518 46.9741 33.6672 47.1999C33.1767 47.3411 32.6716 47.3572 32.1892 47.2525C32.2049 47.7754 32.0861 48.3081 31.8175 48.7965C31.426 49.5084 30.7506 50.043 29.9645 50.2633C29.6931 50.3394 29.4178 50.377 29.1452 50.377C28.6346 50.377 28.1331 50.245 27.6819 49.9858L26.885 49.5282C26.4898 50.0844 25.9242 50.4932 25.2576 50.6953C24.9586 50.7859 24.6532 50.8308 24.3498 50.8308C23.8472 50.8308 23.3501 50.7075 22.8959 50.4646C22.222 50.1041 21.7245 49.5224 21.4639 48.8436C20.6224 49.2019 19.6353 49.1852 18.7825 48.7293C18.1787 48.4062 17.7143 47.8996 17.4369 47.3039C16.5497 47.784 15.4478 47.8255 14.4961 47.3164C13.7678 46.927 13.2341 46.2748 12.9933 45.4802C12.8563 45.0281 12.8238 44.5618 12.8929 44.1096C12.3711 44.1214 11.8438 44.0025 11.3643 43.746C10.636 43.3565 10.1023 42.7044 9.86152 41.9098C9.62071 41.1151 9.70267 40.2764 10.0922 39.5482L10.8701 38.0938C10.6962 37.6803 10.6105 37.2284 10.5284 36.7866C10.3794 35.9854 10.2633 35.4891 9.90915 35.3516C9.69963 35.2702 9.15799 35.0346 8.22656 34.6195L7.91405 35.3267C7.67406 35.8696 7.23562 36.2873 6.67956 36.5025C6.41743 36.6039 6.14433 36.6545 5.87204 36.6545C5.56664 36.6545 5.26226 36.5909 4.97514 36.4641L2.13962 35.2108C1.59666 34.9709 1.17904 34.5325 0.963828 33.9763C0.748617 33.4202 0.762227 32.8148 1.00222 32.2719L7.51278 17.5419C7.75267 16.9989 8.19112 16.5813 8.74727 16.3661C9.30343 16.151 9.90874 16.1646 10.4517 16.4046L13.2872 17.6578C14.411 18.1545 14.9212 19.4729 14.4246 20.5967L13.9363 21.7015L15.782 22.553C15.8017 22.5621 15.8211 22.5721 15.8401 22.5826C16.8543 23.1534 17.9134 22.9052 19.2542 22.5911C21.0046 22.1811 23.1586 21.6774 25.6719 23.1539C29.1439 21.0073 31.8114 22.0953 33.7805 22.9001C35.2481 23.4999 36.1213 23.8171 37.004 23.3579L38.6134 22.4964L38.1703 21.3537C37.7262 20.2081 38.297 18.9147 39.4425 18.4707L42.3331 17.35C42.8865 17.1354 43.4917 17.1498 44.0374 17.3905C44.583 17.6313 45.0016 18.0687 45.2161 18.6222L51.0373 33.638C51.4816 34.7834 50.9108 36.0768 49.7653 36.521ZM12.9384 19.9395C13.0728 19.6352 12.9346 19.2782 12.6304 19.1437L9.79479 17.8904C9.71811 17.8566 9.63645 17.8396 9.55429 17.8396C9.48015 17.8396 9.4055 17.8535 9.3337 17.8812C9.18237 17.9398 9.06354 18.0524 8.99905 18.1984L2.48859 32.9285C2.42409 33.0745 2.42084 33.2382 2.47934 33.3895C2.53795 33.5408 2.65058 33.6597 2.79652 33.7241L5.63215 34.9775C5.7782 35.042 5.94191 35.0453 6.09314 34.9868C6.24447 34.9282 6.3634 34.8155 6.42789 34.6696L12.9384 19.9395ZM13.7347 42.1744L15.5917 38.9606C15.8975 38.2579 15.6134 37.4318 14.9357 37.07C14.2171 36.6865 13.3203 36.9579 12.9366 37.6753L11.5251 40.3144C11.3403 40.6599 11.3018 41.0592 11.4167 41.4383C11.5316 41.8174 11.7852 42.1281 12.1308 42.313C12.6455 42.5884 13.2759 42.5301 13.7347 42.1744ZM17.2658 45.269L19.3174 41.2962C19.4412 40.6663 19.1358 40.0064 18.5687 39.7037C18.0491 39.4264 17.4144 39.4873 16.9551 39.8492L14.6569 43.8851C14.4721 44.2306 14.4337 44.6297 14.5485 45.0088C14.6635 45.3881 14.9171 45.6987 15.2626 45.8835C15.9797 46.2669 16.8783 45.9915 17.2658 45.269ZM21.4185 46.8886L23.2379 43.3918C23.3611 42.7622 23.0557 42.1028 22.489 41.8005C21.9241 41.4988 21.2102 41.6074 20.7558 42.0524L18.7737 45.8908C18.735 46.4679 19.0362 47.0219 19.549 47.2962C20.1869 47.6375 20.9819 47.4607 21.4185 46.8886ZM25.661 48.4261L27.0144 45.8954C27.2809 45.3971 27.2346 44.7782 26.8967 44.3184C26.7675 44.1426 26.6034 44.0009 26.409 43.897C25.8439 43.595 25.1296 43.7043 24.675 44.1504L22.8913 47.5788C22.8311 48.1737 23.1314 48.7477 23.6625 49.0317C24.0081 49.2166 24.4073 49.255 24.7864 49.1401C25.1656 49.0252 25.4761 48.7716 25.661 48.4261ZM29.835 46.0902C29.7912 46.0656 28.7956 45.4866 28.7956 45.4866C28.759 45.8922 28.6448 46.2927 28.4474 46.6618L27.6742 48.1075L28.4912 48.5768C28.802 48.7553 29.1696 48.7985 29.5259 48.6987C29.8947 48.5953 30.211 48.3456 30.3937 48.0135C30.7669 47.3348 30.5163 46.4721 29.835 46.0902ZM39.6626 36.589C39.5334 36.3229 39.3284 36.1044 39.0697 35.9569L31.3816 31.5749C30.0761 30.8308 28.4452 31.491 26.5568 32.2554C25.145 32.8269 23.5581 33.4691 21.9502 33.4693C20.3791 33.4694 18.788 32.8566 17.3187 30.966C17.126 30.7186 17.0519 30.4114 17.1111 30.1016C17.171 29.7906 17.354 29.5322 17.6268 29.3731C19.7947 28.1078 21.6258 26.7266 23.0691 25.2681C23.4446 24.8887 23.8232 24.5398 24.2022 24.2223C22.5387 23.4914 21.1162 23.8237 19.6248 24.173C18.1515 24.5182 16.6283 24.875 15.0731 24.0153L13.2793 23.1877L8.88357 33.1331C9.77326 33.5297 10.3156 33.7662 10.4972 33.8367C11.5806 34.2572 11.8882 35.2917 12.0632 36.1613C13.0048 35.2365 14.4763 34.9831 15.7009 35.6367C16.6081 36.1209 17.1808 37.0009 17.3112 37.9576C17.9871 37.8331 18.7009 37.9325 19.3338 38.2703C20.0943 38.6762 20.6269 39.3614 20.8525 40.146C21.6293 39.899 22.494 39.9614 23.2541 40.367C24.0146 40.7729 24.5471 41.4579 24.7727 42.2425C25.5499 41.9953 26.4147 42.0578 27.1747 42.4639C27.5376 42.6578 27.8507 42.9153 28.1078 43.2302L32.1553 45.5211C32.4788 45.7008 32.856 45.7425 33.2176 45.6384C33.5838 45.533 33.8854 45.2932 34.067 44.963C34.4381 44.2883 34.1856 43.4272 33.5041 43.0436C33.4599 43.0187 33.4193 42.9899 33.3818 42.9585L27.8246 39.8315C27.4335 39.6114 27.2948 39.116 27.5149 38.725C27.735 38.3339 28.2304 38.1953 28.6214 38.4153L35.5788 42.3301C36.2601 42.7046 37.1192 42.4551 37.4938 41.7739C37.8649 41.0993 37.6126 40.2386 36.9313 39.8547C34.9625 38.752 33.3221 37.8316 31.6344 36.8655C31.245 36.6425 31.11 36.1461 31.3329 35.7567C31.5559 35.3673 32.0523 35.2323 32.4417 35.4553C34.1237 36.4181 35.7609 37.3367 37.7264 38.4377C38.0469 38.6172 38.4221 38.6593 38.7825 38.5561C39.1508 38.4506 39.4541 38.21 39.6364 37.8787C39.8565 37.4781 39.866 37.0083 39.6626 36.589ZM43.1518 34.2033L39.2051 24.0226L37.7623 24.7949C36.1603 25.6282 34.6379 25.006 33.1655 24.404C31.1727 23.5895 29.112 22.7472 26.1419 24.7848C25.5095 25.217 24.8646 25.7639 24.2242 26.411C22.8079 27.8422 21.0541 29.197 19.0044 30.4438C21.109 32.7078 23.3624 31.7956 25.947 30.7492C28.0361 29.9034 30.1963 29.0289 32.1863 30.163L39.8744 34.5451C40.1899 34.7249 40.4678 34.9555 40.6987 35.2269L43.1518 34.2033ZM49.5224 34.2252L43.7012 19.2094C43.6435 19.0606 43.53 18.9426 43.3815 18.8771C43.3024 18.8422 43.2188 18.8246 43.1355 18.8246C43.0627 18.8246 42.99 18.838 42.9206 18.8649L40.0299 19.9856C39.7198 20.1058 39.5653 20.456 39.6854 20.7663L45.5067 35.7821C45.5644 35.9309 45.6779 36.0489 45.8263 36.1144C45.9748 36.18 46.1384 36.1843 46.2872 36.1266L49.1779 35.006C49.4881 34.8856 49.6426 34.5354 49.5224 34.2252ZM42.2386 20.4313C41.7081 20.4313 41.2753 20.8641 41.2753 21.3946C41.2753 21.9252 41.7081 22.358 42.2386 22.358C42.7692 22.358 43.2019 21.9253 43.2019 21.3946C43.2019 20.8641 42.7692 20.4313 42.2386 20.4313ZM15.7933 8.58315C15.9566 8.08041 16.4033 7.73896 16.9312 7.71327L22.7525 7.4296L24.8213 1.98088C25.0084 1.48779 25.4712 1.16919 26.0002 1.16919C26.5292 1.16919 26.9921 1.48779 27.1792 1.98098L29.2479 7.4296L35.0692 7.71327C35.597 7.73896 36.0437 8.08052 36.2071 8.58315C36.3704 9.08578 36.2099 9.62457 35.7979 9.95577L31.2551 13.607L32.7842 19.2311C32.9228 19.741 32.7361 20.2714 32.3086 20.582C32.0861 20.7436 31.8271 20.825 31.5678 20.825C31.3286 20.825 31.0889 20.7559 30.8767 20.6171L26.0002 17.4249L21.1239 20.6172C20.6815 20.9067 20.1194 20.8929 19.6919 20.5821C19.2643 20.2715 19.0776 19.7412 19.2162 19.2312L20.7453 13.6071L16.2025 9.95587C15.7905 9.62467 15.63 9.08588 15.7933 8.58315ZM25.66 2.55755C25.6602 2.55816 25.6604 2.55866 25.6607 2.55927L25.66 2.55755C25.66 2.55765 25.66 2.55765 25.66 2.55755ZM17.9676 9.28982L21.9491 12.4899C22.3459 12.8087 22.5095 13.3121 22.376 13.8035L21.0359 18.7327L25.3096 15.9351C25.7356 15.6562 26.265 15.6561 26.691 15.9351L30.9647 18.7327L29.6247 13.8037C29.491 13.3123 29.6546 12.8089 30.0516 12.4899L34.033 9.28992L28.931 9.0412C28.4227 9.01662 27.9943 8.70553 27.8135 8.22941L26.0004 3.45384L24.1871 8.2291C24.0063 8.70523 23.578 9.01641 23.0693 9.04109L17.9676 9.28982Z" fill="var(--fill-0, #0A293A)"/>
</g>
</g>
<defs>
<clipPath id="clip0_0_17">
<rect width="52" height="52" fill="white"/>
</clipPath>
</defs>
</svg>
