<svg preserveAspectRatio="none" width="100%" height="100%" overflow="visible" style="display: block;" viewBox="0 0 50.75 50.7502" fill="none" xmlns="http://www.w3.org/2000/svg">
<g id="Group">
<g id="Group_2">
<path id="Vector" d="M13.1875 31.875C15.625 39.1875 19.6875 41.625 23.75 41.625C27.8125 41.625 31.875 39.1875 34.3125 31.875C34.3125 31.875 37.5625 31.0625 37.5625 27V26.9902C37.5604 26.1744 37.2712 25.3853 36.7456 24.7614C36.22 24.1374 35.4915 23.7184 34.6879 23.5777C32.3002 23.1522 30.0218 22.253 27.987 20.9333C25.9522 19.6135 24.2022 17.8998 22.84 15.8931" stroke="var(--stroke-0, #0A293A)" stroke-width="2" stroke-linecap="round" stroke-linejoin="round"/>
<path id="Vector_2" d="M21.3125 13.1875C21.7395 14.1333 22.2507 15.0389 22.84 15.8931C22.0362 17.9641 20.6872 19.7791 18.9358 21.1459C17.1844 22.5126 15.096 23.3801 12.8918 23.6566C12.0772 23.7579 11.3277 24.1529 10.7838 24.7676C10.2399 25.3823 9.93894 26.1743 9.9375 26.9951V27C9.9375 31.0625 13.1875 31.875 13.1875 31.875" stroke="var(--stroke-0, #0A293A)" stroke-width="2" stroke-linecap="round" stroke-linejoin="round"/>
<path id="Vector_3" d="M29.4456 39.6588C29.5675 47.3775 32.72 48.9538 34.3125 49.75" stroke="var(--stroke-0, #0A293A)" stroke-width="2" stroke-linecap="round" stroke-linejoin="round"/>
<path id="Vector_4" d="M13.1875 49.75C14.78 48.9538 17.9325 47.3775 18.0544 39.6588" stroke="var(--stroke-0, #0A293A)" stroke-width="2" stroke-linecap="round" stroke-linejoin="round"/>
<path id="Vector_5" d="M11.3269 24.2781C11.3106 24.1725 11.2944 24.0587 11.27 23.945C10.933 22.0021 10.759 20.0344 10.75 18.0625C10.75 11.5625 16.4375 7.5 23.75 7.5C31.0625 7.5 36.75 11.5625 36.75 18.0625C36.7414 20.1281 36.5511 22.189 36.1812 24.2212" stroke="var(--stroke-0, #0A293A)" stroke-width="2" stroke-linecap="round" stroke-linejoin="round"/>
<path id="Vector_6" d="M15.8688 9.42562C13.8781 3.81125 18.4606 1 23.75 1C29.0394 1 33.6219 3.81125 31.6313 9.42562" stroke="var(--stroke-0, #0A293A)" stroke-width="2" stroke-linecap="round" stroke-linejoin="round"/>
</g>
<path id="Vector_7" d="M20.9063 35.9375L20.916 35.9489C20.916 35.9489 21.6245 36.75 23.75 36.75C25.8755 36.75 26.584 35.9489 26.584 35.9489L26.5938 35.9375" stroke="var(--stroke-0, #0A293A)" stroke-width="1.983" stroke-linecap="round" stroke-linejoin="round"/>
<path id="Vector_8" d="M1 40C2.03246 39.7574 2.95877 39.1874 3.64063 38.375C4.39986 37.1382 4.88474 35.7528 5.0625 34.3125C5.24026 35.7528 5.72514 37.1382 6.48438 38.375C7.16623 39.1874 8.09254 39.7574 9.125 40C8.09254 40.2426 7.16623 40.8126 6.48438 41.625C5.72514 42.8618 5.24026 44.2472 5.0625 45.6875C4.87397 44.3786 4.46519 43.1111 3.8535 41.9386C3.18791 40.9486 2.16557 40.2541 1 40Z" stroke="var(--stroke-0, #0A293A)" stroke-width="2" stroke-linecap="round" stroke-linejoin="round"/>
<path id="Vector_9" d="M41.625 22.9375C42.6386 22.6965 43.551 22.1431 44.2331 21.3556C44.8604 20.5431 45.2739 19.3178 45.6875 17.25C45.8653 18.6903 46.3501 20.0757 47.1094 21.3125C47.7912 22.1249 48.7175 22.6949 49.75 22.9375C48.3054 23.4193 47.4311 23.9003 46.7901 25.0589C46.249 26.1869 45.8775 27.3885 45.6875 28.625C45.5016 27.2693 45.0669 25.9595 44.4054 24.7616C43.731 23.8359 42.7426 23.1875 41.625 22.9375Z" stroke="var(--stroke-0, #0A293A)" stroke-width="2" stroke-linecap="round" stroke-linejoin="round"/>
<path id="Vector_10" d="M26.9902 27.8076L27 27.8125C27 27.8125 28.625 29.4375 31.0625 27.8125H31.875" stroke="var(--stroke-0, #0A293A)" stroke-width="2" stroke-linecap="round" stroke-linejoin="round"/>
<path id="Vector_11" d="M20.5089 27.8076L20.5 27.8125C20.5 27.8125 18.875 29.4375 16.4375 27.8125H15.625" stroke="var(--stroke-0, #0A293A)" stroke-width="2" stroke-linecap="round" stroke-linejoin="round"/>
</g>
</svg>
