<svg preserveAspectRatio="none" width="100%" height="100%" overflow="visible" style="display: block;" viewBox="0 0 52 52" fill="none" xmlns="http://www.w3.org/2000/svg">
<g id="Layer_1" clip-path="url(#clip0_0_22)">
<circle id="Ellipse 12" cx="29.7917" cy="18.4167" r="18.4167" fill="var(--fill-0, #C0EAFF)"/>
<g id="a" clip-path="url(#clip1_0_22)">
<g id="Vector">
<mask id="path-2-outside-1_0_22" maskUnits="userSpaceOnUse" x="-0.261078" y="1.95913" width="53" height="48" fill="black">
<rect fill="white" x="-0.261078" y="1.95913" width="53" height="48"/>
<path d="M21.2812 25.264C20.75 25.1914 20.2226 25.3301 19.7958 25.6544C18.9149 26.3236 18.7425 27.5849 19.4118 28.466C19.8061 28.9849 20.4056 29.2579 21.0119 29.2579C21.435 29.2579 21.8614 29.125 22.2235 28.8498C23.1044 28.1804 23.2767 26.9191 22.6074 26.0382C22.2831 25.6114 21.8121 25.3365 21.2812 25.264ZM21.4862 27.8794C21.1404 28.1423 20.6452 28.0745 20.3823 27.7288C20.1196 27.3829 20.1871 26.8877 20.533 26.6248C20.6716 26.5196 20.837 26.4641 21.008 26.4641C21.0438 26.4641 21.08 26.4666 21.1161 26.4716C21.3246 26.5 21.5096 26.608 21.6368 26.7755C21.8996 27.1213 21.832 27.6166 21.4862 27.8794Z"/>
<path d="M14.6232 33.7641C13.7423 34.4335 13.57 35.6948 14.2393 36.5758C14.5636 37.0026 15.0347 37.2775 15.5656 37.35C15.6578 37.3626 15.7498 37.3689 15.8413 37.3689C16.2767 37.3689 16.6982 37.2276 17.051 36.9597C17.4777 36.6355 17.7527 36.1645 17.8252 35.6334C17.8977 35.1023 17.7591 34.5748 17.4349 34.1481C16.7657 33.2672 15.5043 33.095 14.6232 33.7641ZM16.6177 35.4685C16.5893 35.677 16.4813 35.8618 16.3137 35.9892C16.1461 36.1165 15.9388 36.1707 15.7306 36.1424C15.5221 36.114 15.3371 36.006 15.2099 35.8385C14.9471 35.4926 15.0146 34.9974 15.3605 34.7346C15.5027 34.6266 15.67 34.5744 15.8362 34.5744C16.0741 34.5744 16.3097 34.6817 16.4644 34.8854C16.5917 35.0529 16.6463 35.2599 16.6177 35.4685Z"/>
<path d="M21.2812 38.1387C20.75 38.066 20.2226 38.2049 19.7958 38.5292C19.369 38.8532 19.094 39.3243 19.0215 39.8555C18.949 40.3865 19.0876 40.914 19.4118 41.3408C19.8061 41.8597 20.4056 42.1327 21.0119 42.1327C21.435 42.1327 21.8614 41.9997 22.2235 41.7246C23.1044 41.0552 23.2767 39.7939 22.6074 38.913C22.2831 38.4862 21.8121 38.2113 21.2812 38.1387ZM21.4863 40.7542C21.1404 41.0169 20.6452 40.9494 20.3824 40.6035C20.2552 40.436 20.2006 40.2289 20.2292 40.0203C20.2577 39.8118 20.3656 39.6269 20.5332 39.4996C20.6718 39.3944 20.8372 39.3389 21.0082 39.3389C21.044 39.3389 21.0802 39.3414 21.1163 39.3463C21.3248 39.3748 21.5098 39.4827 21.637 39.6503C21.8998 39.9961 21.8321 40.4913 21.4863 40.7542Z"/>
<path d="M51.172 40.0056C52.3819 35.749 51.9051 31.9519 51.2921 29.516C50.6264 26.871 49.6786 25.2413 49.6386 25.1733C49.4357 24.8029 48.8687 24.7679 48.6266 25.1154C48.6135 25.1326 47.2468 26.8591 41.7253 29.5991C40.9357 29.9909 40.2061 30.4088 39.5351 30.8514C38.3313 30.1391 37.0397 29.6486 35.7403 29.321L30.4807 20.2137V18.9968C30.4807 18.6603 30.2078 18.3874 29.8713 18.3874C29.5348 18.3874 29.2619 18.6603 29.2619 18.9968V20.3771C29.2619 20.4841 29.2901 20.5892 29.3436 20.6819L34.1449 28.9956C33.6352 28.9149 33.1296 28.8557 32.6328 28.8143L27.9614 20.7256C27.8526 20.5372 27.6515 20.421 27.4337 20.421H16.2862C16.0685 20.421 15.8674 20.5372 15.7585 20.7256L3.60877 41.7637C3.32592 42.2537 3.17642 42.8115 3.17642 43.3771C3.17642 45.1562 4.62369 46.6035 6.40266 46.6035H31.6921C32.37 47.0439 33.0912 47.4504 33.8551 47.8222H6.40266C3.95165 47.8222 1.95767 45.8281 1.95767 43.3771C1.95767 42.5979 2.16364 41.8291 2.55344 41.1542L14.3765 20.6818C14.4301 20.5891 14.4582 20.484 14.4582 20.377V12.2171C14.6715 12.2471 14.889 12.2637 15.1104 12.2637H28.6097C28.8311 12.2637 29.0487 12.2471 29.2619 12.2171V14.3248C29.2619 14.6613 29.5348 14.9342 29.8713 14.9342C30.2078 14.9342 30.4807 14.6613 30.4807 14.3248V11.8695C32.1167 11.1479 33.262 9.51133 33.262 7.6115C33.262 5.04613 31.175 2.95913 28.6097 2.95913H15.1105C12.5453 2.95913 10.4583 5.04613 10.4583 7.6115C10.4583 9.51143 11.6036 11.1479 13.2395 11.8695V20.2137L1.4981 40.5447C1.00146 41.4047 0.738922 42.3841 0.738922 43.3771C0.738922 46.5002 3.27971 49.041 6.40266 49.041C6.60984 49.0407 37.1316 49.0415 37.3223 49.0408C38.2029 49.0324 40.4902 48.9224 43.0075 48.0886C47.2404 46.6865 50.0621 43.8956 51.1685 40.0175L51.1694 40.0144C51.1702 40.0115 51.1711 40.0084 51.172 40.0056ZM11.677 7.6114C11.677 5.71807 13.2173 4.17777 15.1105 4.17777H28.6098C30.503 4.17777 32.0433 5.71807 32.0433 7.6114C32.0433 9.50473 30.503 11.0449 28.6098 11.0449H15.1105C13.2173 11.0449 11.677 9.50462 11.677 7.6114ZM50.0753 39.3892C47.287 40.5067 44.6107 40.9227 43.1422 41.0755C44.9185 38.1551 46.2275 35.4162 47.1444 33.2341C48.2078 30.7029 48.8847 28.6139 49.2746 27.2659C50.1783 29.5094 51.4922 34.0839 50.0753 39.3892ZM42.2671 30.691C45.0949 29.2877 46.8872 28.1293 47.9924 27.2968C47.5962 28.6204 46.9569 30.537 46.0084 32.7911C44.403 36.6064 41.5716 42.1618 37.0967 47.354C35.2216 43.571 34.7194 40.2494 35.6058 37.471C36.4797 34.7317 38.721 32.4506 42.2671 30.691ZM32.2793 45.5437C29.1899 43.5208 27.0936 40.7299 26.101 37.2369C25.3939 34.7629 25.4226 32.5082 25.5323 31.2177C27.2745 32.8263 31.2489 36.3974 34.1523 38.2575C33.6398 40.9328 34.1689 43.9724 35.7309 47.3246C34.4664 46.8141 33.3146 46.2209 32.2793 45.5437ZM32.2441 30.0204V35.379C29.9754 33.6036 27.6055 31.4685 26.3692 30.3296C27.6359 30.1177 29.8238 29.855 32.2441 30.0204ZM34.4747 37.0119C34.1489 36.7944 33.81 36.5561 33.4629 36.3027V30.1398C35.1395 30.3565 36.8699 30.8062 38.4414 31.636C36.4761 33.172 35.1472 34.9708 34.4747 37.0119ZM6.40266 45.3846C5.29573 45.3846 4.39517 44.4841 4.39517 43.377C4.39517 43.0251 4.4882 42.678 4.66421 42.3731L16.638 21.6395H27.082L31.1826 28.74C27.8082 28.6718 25.132 29.3214 24.9335 29.3711C24.7071 29.4277 24.5328 29.6087 24.4848 29.8372C24.4546 29.9817 23.7568 33.4203 24.9144 37.5201C25.5968 39.9371 26.7853 42.0786 28.4471 43.8848C28.9343 44.4143 29.4637 44.9137 30.0317 45.3845L6.40266 45.3846ZM42.6582 46.9202C40.9939 47.4756 39.411 47.6908 38.3424 47.7728C39.8569 45.9792 41.1807 44.1502 42.3322 42.3669C43.2935 42.3131 46.2487 42.0575 49.5812 40.8779C48.3936 43.7513 46.0706 45.7812 42.6582 46.9202Z"/>
<path d="M40.9816 25.6859C41.0958 25.8769 41.2979 25.9828 41.5054 25.9828C41.6116 25.9828 41.7194 25.955 41.8173 25.8965C42.1062 25.724 42.2005 25.3497 42.0279 25.0608L41.5057 24.1865C41.3331 23.8977 40.9593 23.8035 40.67 23.9759C40.3811 24.1484 40.2868 24.5227 40.4594 24.8116L40.9816 25.6859Z"/>
<path d="M39.0127 27.5376L40.0002 27.7864C40.3179 27.869 40.6591 27.6733 40.74 27.3443C40.8223 27.018 40.6244 26.6867 40.298 26.6045L39.3105 26.3557C38.984 26.273 38.6529 26.4714 38.5707 26.7978C38.4885 27.1241 38.6863 27.4554 39.0127 27.5376Z"/>
<path d="M43.6673 25.5959C43.9848 25.6785 44.3261 25.4828 44.407 25.1539L44.656 24.1664C44.7382 23.84 44.5404 23.5088 44.214 23.4265C43.8875 23.3438 43.5564 23.5422 43.4742 23.8685L43.2253 24.856C43.143 25.1824 43.3408 25.5136 43.6673 25.5959Z"/>
<path d="M29.8714 17.27C30.208 17.27 30.4808 16.9972 30.4808 16.6606C30.4808 16.3241 30.208 16.0512 29.8714 16.0512C29.5349 16.0512 29.262 16.3241 29.262 16.6606C29.262 16.9972 29.5349 17.27 29.8714 17.27Z"/>
</mask>
<path d="M21.2812 25.264C20.75 25.1914 20.2226 25.3301 19.7958 25.6544C18.9149 26.3236 18.7425 27.5849 19.4118 28.466C19.8061 28.9849 20.4056 29.2579 21.0119 29.2579C21.435 29.2579 21.8614 29.125 22.2235 28.8498C23.1044 28.1804 23.2767 26.9191 22.6074 26.0382C22.2831 25.6114 21.8121 25.3365 21.2812 25.264ZM21.4862 27.8794C21.1404 28.1423 20.6452 28.0745 20.3823 27.7288C20.1196 27.3829 20.1871 26.8877 20.533 26.6248C20.6716 26.5196 20.837 26.4641 21.008 26.4641C21.0438 26.4641 21.08 26.4666 21.1161 26.4716C21.3246 26.5 21.5096 26.608 21.6368 26.7755C21.8996 27.1213 21.832 27.6166 21.4862 27.8794Z" fill="var(--fill-0, #0A293A)"/>
<path d="M14.6232 33.7641C13.7423 34.4335 13.57 35.6948 14.2393 36.5758C14.5636 37.0026 15.0347 37.2775 15.5656 37.35C15.6578 37.3626 15.7498 37.3689 15.8413 37.3689C16.2767 37.3689 16.6982 37.2276 17.051 36.9597C17.4777 36.6355 17.7527 36.1645 17.8252 35.6334C17.8977 35.1023 17.7591 34.5748 17.4349 34.1481C16.7657 33.2672 15.5043 33.095 14.6232 33.7641ZM16.6177 35.4685C16.5893 35.677 16.4813 35.8618 16.3137 35.9892C16.1461 36.1165 15.9388 36.1707 15.7306 36.1424C15.5221 36.114 15.3371 36.006 15.2099 35.8385C14.9471 35.4926 15.0146 34.9974 15.3605 34.7346C15.5027 34.6266 15.67 34.5744 15.8362 34.5744C16.0741 34.5744 16.3097 34.6817 16.4644 34.8854C16.5917 35.0529 16.6463 35.2599 16.6177 35.4685Z" fill="var(--fill-0, #0A293A)"/>
<path d="M21.2812 38.1387C20.75 38.066 20.2226 38.2049 19.7958 38.5292C19.369 38.8532 19.094 39.3243 19.0215 39.8555C18.949 40.3865 19.0876 40.914 19.4118 41.3408C19.8061 41.8597 20.4056 42.1327 21.0119 42.1327C21.435 42.1327 21.8614 41.9997 22.2235 41.7246C23.1044 41.0552 23.2767 39.7939 22.6074 38.913C22.2831 38.4862 21.8121 38.2113 21.2812 38.1387ZM21.4863 40.7542C21.1404 41.0169 20.6452 40.9494 20.3824 40.6035C20.2552 40.436 20.2006 40.2289 20.2292 40.0203C20.2577 39.8118 20.3656 39.6269 20.5332 39.4996C20.6718 39.3944 20.8372 39.3389 21.0082 39.3389C21.044 39.3389 21.0802 39.3414 21.1163 39.3463C21.3248 39.3748 21.5098 39.4827 21.637 39.6503C21.8998 39.9961 21.8321 40.4913 21.4863 40.7542Z" fill="var(--fill-0, #0A293A)"/>
<path d="M51.172 40.0056C52.3819 35.749 51.9051 31.9519 51.2921 29.516C50.6264 26.871 49.6786 25.2413 49.6386 25.1733C49.4357 24.8029 48.8687 24.7679 48.6266 25.1154C48.6135 25.1326 47.2468 26.8591 41.7253 29.5991C40.9357 29.9909 40.2061 30.4088 39.5351 30.8514C38.3313 30.1391 37.0397 29.6486 35.7403 29.321L30.4807 20.2137V18.9968C30.4807 18.6603 30.2078 18.3874 29.8713 18.3874C29.5348 18.3874 29.2619 18.6603 29.2619 18.9968V20.3771C29.2619 20.4841 29.2901 20.5892 29.3436 20.6819L34.1449 28.9956C33.6352 28.9149 33.1296 28.8557 32.6328 28.8143L27.9614 20.7256C27.8526 20.5372 27.6515 20.421 27.4337 20.421H16.2862C16.0685 20.421 15.8674 20.5372 15.7585 20.7256L3.60877 41.7637C3.32592 42.2537 3.17642 42.8115 3.17642 43.3771C3.17642 45.1562 4.62369 46.6035 6.40266 46.6035H31.6921C32.37 47.0439 33.0912 47.4504 33.8551 47.8222H6.40266C3.95165 47.8222 1.95767 45.8281 1.95767 43.3771C1.95767 42.5979 2.16364 41.8291 2.55344 41.1542L14.3765 20.6818C14.4301 20.5891 14.4582 20.484 14.4582 20.377V12.2171C14.6715 12.2471 14.889 12.2637 15.1104 12.2637H28.6097C28.8311 12.2637 29.0487 12.2471 29.2619 12.2171V14.3248C29.2619 14.6613 29.5348 14.9342 29.8713 14.9342C30.2078 14.9342 30.4807 14.6613 30.4807 14.3248V11.8695C32.1167 11.1479 33.262 9.51133 33.262 7.6115C33.262 5.04613 31.175 2.95913 28.6097 2.95913H15.1105C12.5453 2.95913 10.4583 5.04613 10.4583 7.6115C10.4583 9.51143 11.6036 11.1479 13.2395 11.8695V20.2137L1.4981 40.5447C1.00146 41.4047 0.738922 42.3841 0.738922 43.3771C0.738922 46.5002 3.27971 49.041 6.40266 49.041C6.60984 49.0407 37.1316 49.0415 37.3223 49.0408C38.2029 49.0324 40.4902 48.9224 43.0075 48.0886C47.2404 46.6865 50.0621 43.8956 51.1685 40.0175L51.1694 40.0144C51.1702 40.0115 51.1711 40.0084 51.172 40.0056ZM11.677 7.6114C11.677 5.71807 13.2173 4.17777 15.1105 4.17777H28.6098C30.503 4.17777 32.0433 5.71807 32.0433 7.6114C32.0433 9.50473 30.503 11.0449 28.6098 11.0449H15.1105C13.2173 11.0449 11.677 9.50462 11.677 7.6114ZM50.0753 39.3892C47.287 40.5067 44.6107 40.9227 43.1422 41.0755C44.9185 38.1551 46.2275 35.4162 47.1444 33.2341C48.2078 30.7029 48.8847 28.6139 49.2746 27.2659C50.1783 29.5094 51.4922 34.0839 50.0753 39.3892ZM42.2671 30.691C45.0949 29.2877 46.8872 28.1293 47.9924 27.2968C47.5962 28.6204 46.9569 30.537 46.0084 32.7911C44.403 36.6064 41.5716 42.1618 37.0967 47.354C35.2216 43.571 34.7194 40.2494 35.6058 37.471C36.4797 34.7317 38.721 32.4506 42.2671 30.691ZM32.2793 45.5437C29.1899 43.5208 27.0936 40.7299 26.101 37.2369C25.3939 34.7629 25.4226 32.5082 25.5323 31.2177C27.2745 32.8263 31.2489 36.3974 34.1523 38.2575C33.6398 40.9328 34.1689 43.9724 35.7309 47.3246C34.4664 46.8141 33.3146 46.2209 32.2793 45.5437ZM32.2441 30.0204V35.379C29.9754 33.6036 27.6055 31.4685 26.3692 30.3296C27.6359 30.1177 29.8238 29.855 32.2441 30.0204ZM34.4747 37.0119C34.1489 36.7944 33.81 36.5561 33.4629 36.3027V30.1398C35.1395 30.3565 36.8699 30.8062 38.4414 31.636C36.4761 33.172 35.1472 34.9708 34.4747 37.0119ZM6.40266 45.3846C5.29573 45.3846 4.39517 44.4841 4.39517 43.377C4.39517 43.0251 4.4882 42.678 4.66421 42.3731L16.638 21.6395H27.082L31.1826 28.74C27.8082 28.6718 25.132 29.3214 24.9335 29.3711C24.7071 29.4277 24.5328 29.6087 24.4848 29.8372C24.4546 29.9817 23.7568 33.4203 24.9144 37.5201C25.5968 39.9371 26.7853 42.0786 28.4471 43.8848C28.9343 44.4143 29.4637 44.9137 30.0317 45.3845L6.40266 45.3846ZM42.6582 46.9202C40.9939 47.4756 39.411 47.6908 38.3424 47.7728C39.8569 45.9792 41.1807 44.1502 42.3322 42.3669C43.2935 42.3131 46.2487 42.0575 49.5812 40.8779C48.3936 43.7513 46.0706 45.7812 42.6582 46.9202Z" fill="var(--fill-0, #0A293A)"/>
<path d="M40.9816 25.6859C41.0958 25.8769 41.2979 25.9828 41.5054 25.9828C41.6116 25.9828 41.7194 25.955 41.8173 25.8965C42.1062 25.724 42.2005 25.3497 42.0279 25.0608L41.5057 24.1865C41.3331 23.8977 40.9593 23.8035 40.67 23.9759C40.3811 24.1484 40.2868 24.5227 40.4594 24.8116L40.9816 25.6859Z" fill="var(--fill-0, #0A293A)"/>
<path d="M39.0127 27.5376L40.0002 27.7864C40.3179 27.869 40.6591 27.6733 40.74 27.3443C40.8223 27.018 40.6244 26.6867 40.298 26.6045L39.3105 26.3557C38.984 26.273 38.6529 26.4714 38.5707 26.7978C38.4885 27.1241 38.6863 27.4554 39.0127 27.5376Z" fill="var(--fill-0, #0A293A)"/>
<path d="M43.6673 25.5959C43.9848 25.6785 44.3261 25.4828 44.407 25.1539L44.656 24.1664C44.7382 23.84 44.5404 23.5088 44.214 23.4265C43.8875 23.3438 43.5564 23.5422 43.4742 23.8685L43.2253 24.856C43.143 25.1824 43.3408 25.5136 43.6673 25.5959Z" fill="var(--fill-0, #0A293A)"/>
<path d="M29.8714 17.27C30.208 17.27 30.4808 16.9972 30.4808 16.6606C30.4808 16.3241 30.208 16.0512 29.8714 16.0512C29.5349 16.0512 29.262 16.3241 29.262 16.6606C29.262 16.9972 29.5349 17.27 29.8714 17.27Z" fill="var(--fill-0, #0A293A)"/>
<path d="M21.2812 25.264C20.75 25.1914 20.2226 25.3301 19.7958 25.6544C18.9149 26.3236 18.7425 27.5849 19.4118 28.466C19.8061 28.9849 20.4056 29.2579 21.0119 29.2579C21.435 29.2579 21.8614 29.125 22.2235 28.8498C23.1044 28.1804 23.2767 26.9191 22.6074 26.0382C22.2831 25.6114 21.8121 25.3365 21.2812 25.264ZM21.4862 27.8794C21.1404 28.1423 20.6452 28.0745 20.3823 27.7288C20.1196 27.3829 20.1871 26.8877 20.533 26.6248C20.6716 26.5196 20.837 26.4641 21.008 26.4641C21.0438 26.4641 21.08 26.4666 21.1161 26.4716C21.3246 26.5 21.5096 26.608 21.6368 26.7755C21.8996 27.1213 21.832 27.6166 21.4862 27.8794Z" stroke="var(--stroke-0, #0A293A)" stroke-width="0.6" mask="url(#path-2-outside-1_0_22)"/>
<path d="M14.6232 33.7641C13.7423 34.4335 13.57 35.6948 14.2393 36.5758C14.5636 37.0026 15.0347 37.2775 15.5656 37.35C15.6578 37.3626 15.7498 37.3689 15.8413 37.3689C16.2767 37.3689 16.6982 37.2276 17.051 36.9597C17.4777 36.6355 17.7527 36.1645 17.8252 35.6334C17.8977 35.1023 17.7591 34.5748 17.4349 34.1481C16.7657 33.2672 15.5043 33.095 14.6232 33.7641ZM16.6177 35.4685C16.5893 35.677 16.4813 35.8618 16.3137 35.9892C16.1461 36.1165 15.9388 36.1707 15.7306 36.1424C15.5221 36.114 15.3371 36.006 15.2099 35.8385C14.9471 35.4926 15.0146 34.9974 15.3605 34.7346C15.5027 34.6266 15.67 34.5744 15.8362 34.5744C16.0741 34.5744 16.3097 34.6817 16.4644 34.8854C16.5917 35.0529 16.6463 35.2599 16.6177 35.4685Z" stroke="var(--stroke-0, #0A293A)" stroke-width="0.6" mask="url(#path-2-outside-1_0_22)"/>
<path d="M21.2812 38.1387C20.75 38.066 20.2226 38.2049 19.7958 38.5292C19.369 38.8532 19.094 39.3243 19.0215 39.8555C18.949 40.3865 19.0876 40.914 19.4118 41.3408C19.8061 41.8597 20.4056 42.1327 21.0119 42.1327C21.435 42.1327 21.8614 41.9997 22.2235 41.7246C23.1044 41.0552 23.2767 39.7939 22.6074 38.913C22.2831 38.4862 21.8121 38.2113 21.2812 38.1387ZM21.4863 40.7542C21.1404 41.0169 20.6452 40.9494 20.3824 40.6035C20.2552 40.436 20.2006 40.2289 20.2292 40.0203C20.2577 39.8118 20.3656 39.6269 20.5332 39.4996C20.6718 39.3944 20.8372 39.3389 21.0082 39.3389C21.044 39.3389 21.0802 39.3414 21.1163 39.3463C21.3248 39.3748 21.5098 39.4827 21.637 39.6503C21.8998 39.9961 21.8321 40.4913 21.4863 40.7542Z" stroke="var(--stroke-0, #0A293A)" stroke-width="0.6" mask="url(#path-2-outside-1_0_22)"/>
<path d="M51.172 40.0056C52.3819 35.749 51.9051 31.9519 51.2921 29.516C50.6264 26.871 49.6786 25.2413 49.6386 25.1733C49.4357 24.8029 48.8687 24.7679 48.6266 25.1154C48.6135 25.1326 47.2468 26.8591 41.7253 29.5991C40.9357 29.9909 40.2061 30.4088 39.5351 30.8514C38.3313 30.1391 37.0397 29.6486 35.7403 29.321L30.4807 20.2137V18.9968C30.4807 18.6603 30.2078 18.3874 29.8713 18.3874C29.5348 18.3874 29.2619 18.6603 29.2619 18.9968V20.3771C29.2619 20.4841 29.2901 20.5892 29.3436 20.6819L34.1449 28.9956C33.6352 28.9149 33.1296 28.8557 32.6328 28.8143L27.9614 20.7256C27.8526 20.5372 27.6515 20.421 27.4337 20.421H16.2862C16.0685 20.421 15.8674 20.5372 15.7585 20.7256L3.60877 41.7637C3.32592 42.2537 3.17642 42.8115 3.17642 43.3771C3.17642 45.1562 4.62369 46.6035 6.40266 46.6035H31.6921C32.37 47.0439 33.0912 47.4504 33.8551 47.8222H6.40266C3.95165 47.8222 1.95767 45.8281 1.95767 43.3771C1.95767 42.5979 2.16364 41.8291 2.55344 41.1542L14.3765 20.6818C14.4301 20.5891 14.4582 20.484 14.4582 20.377V12.2171C14.6715 12.2471 14.889 12.2637 15.1104 12.2637H28.6097C28.8311 12.2637 29.0487 12.2471 29.2619 12.2171V14.3248C29.2619 14.6613 29.5348 14.9342 29.8713 14.9342C30.2078 14.9342 30.4807 14.6613 30.4807 14.3248V11.8695C32.1167 11.1479 33.262 9.51133 33.262 7.6115C33.262 5.04613 31.175 2.95913 28.6097 2.95913H15.1105C12.5453 2.95913 10.4583 5.04613 10.4583 7.6115C10.4583 9.51143 11.6036 11.1479 13.2395 11.8695V20.2137L1.4981 40.5447C1.00146 41.4047 0.738922 42.3841 0.738922 43.3771C0.738922 46.5002 3.27971 49.041 6.40266 49.041C6.60984 49.0407 37.1316 49.0415 37.3223 49.0408C38.2029 49.0324 40.4902 48.9224 43.0075 48.0886C47.2404 46.6865 50.0621 43.8956 51.1685 40.0175L51.1694 40.0144C51.1702 40.0115 51.1711 40.0084 51.172 40.0056ZM11.677 7.6114C11.677 5.71807 13.2173 4.17777 15.1105 4.17777H28.6098C30.503 4.17777 32.0433 5.71807 32.0433 7.6114C32.0433 9.50473 30.503 11.0449 28.6098 11.0449H15.1105C13.2173 11.0449 11.677 9.50462 11.677 7.6114ZM50.0753 39.3892C47.287 40.5067 44.6107 40.9227 43.1422 41.0755C44.9185 38.1551 46.2275 35.4162 47.1444 33.2341C48.2078 30.7029 48.8847 28.6139 49.2746 27.2659C50.1783 29.5094 51.4922 34.0839 50.0753 39.3892ZM42.2671 30.691C45.0949 29.2877 46.8872 28.1293 47.9924 27.2968C47.5962 28.6204 46.9569 30.537 46.0084 32.7911C44.403 36.6064 41.5716 42.1618 37.0967 47.354C35.2216 43.571 34.7194 40.2494 35.6058 37.471C36.4797 34.7317 38.721 32.4506 42.2671 30.691ZM32.2793 45.5437C29.1899 43.5208 27.0936 40.7299 26.101 37.2369C25.3939 34.7629 25.4226 32.5082 25.5323 31.2177C27.2745 32.8263 31.2489 36.3974 34.1523 38.2575C33.6398 40.9328 34.1689 43.9724 35.7309 47.3246C34.4664 46.8141 33.3146 46.2209 32.2793 45.5437ZM32.2441 30.0204V35.379C29.9754 33.6036 27.6055 31.4685 26.3692 30.3296C27.6359 30.1177 29.8238 29.855 32.2441 30.0204ZM34.4747 37.0119C34.1489 36.7944 33.81 36.5561 33.4629 36.3027V30.1398C35.1395 30.3565 36.8699 30.8062 38.4414 31.636C36.4761 33.172 35.1472 34.9708 34.4747 37.0119ZM6.40266 45.3846C5.29573 45.3846 4.39517 44.4841 4.39517 43.377C4.39517 43.0251 4.4882 42.678 4.66421 42.3731L16.638 21.6395H27.082L31.1826 28.74C27.8082 28.6718 25.132 29.3214 24.9335 29.3711C24.7071 29.4277 24.5328 29.6087 24.4848 29.8372C24.4546 29.9817 23.7568 33.4203 24.9144 37.5201C25.5968 39.9371 26.7853 42.0786 28.4471 43.8848C28.9343 44.4143 29.4637 44.9137 30.0317 45.3845L6.40266 45.3846ZM42.6582 46.9202C40.9939 47.4756 39.411 47.6908 38.3424 47.7728C39.8569 45.9792 41.1807 44.1502 42.3322 42.3669C43.2935 42.3131 46.2487 42.0575 49.5812 40.8779C48.3936 43.7513 46.0706 45.7812 42.6582 46.9202Z" stroke="var(--stroke-0, #0A293A)" stroke-width="0.6" mask="url(#path-2-outside-1_0_22)"/>
<path d="M40.9816 25.6859C41.0958 25.8769 41.2979 25.9828 41.5054 25.9828C41.6116 25.9828 41.7194 25.955 41.8173 25.8965C42.1062 25.724 42.2005 25.3497 42.0279 25.0608L41.5057 24.1865C41.3331 23.8977 40.9593 23.8035 40.67 23.9759C40.3811 24.1484 40.2868 24.5227 40.4594 24.8116L40.9816 25.6859Z" stroke="var(--stroke-0, #0A293A)" stroke-width="0.6" mask="url(#path-2-outside-1_0_22)"/>
<path d="M39.0127 27.5376L40.0002 27.7864C40.3179 27.869 40.6591 27.6733 40.74 27.3443C40.8223 27.018 40.6244 26.6867 40.298 26.6045L39.3105 26.3557C38.984 26.273 38.6529 26.4714 38.5707 26.7978C38.4885 27.1241 38.6863 27.4554 39.0127 27.5376Z" stroke="var(--stroke-0, #0A293A)" stroke-width="0.6" mask="url(#path-2-outside-1_0_22)"/>
<path d="M43.6673 25.5959C43.9848 25.6785 44.3261 25.4828 44.407 25.1539L44.656 24.1664C44.7382 23.84 44.5404 23.5088 44.214 23.4265C43.8875 23.3438 43.5564 23.5422 43.4742 23.8685L43.2253 24.856C43.143 25.1824 43.3408 25.5136 43.6673 25.5959Z" stroke="var(--stroke-0, #0A293A)" stroke-width="0.6" mask="url(#path-2-outside-1_0_22)"/>
<path d="M29.8714 17.27C30.208 17.27 30.4808 16.9972 30.4808 16.6606C30.4808 16.3241 30.208 16.0512 29.8714 16.0512C29.5349 16.0512 29.262 16.3241 29.262 16.6606C29.262 16.9972 29.5349 17.27 29.8714 17.27Z" stroke="var(--stroke-0, #0A293A)" stroke-width="0.6" mask="url(#path-2-outside-1_0_22)"/>
</g>
</g>
</g>
<defs>
<clipPath id="clip0_0_22">
<rect width="52" height="52" fill="white"/>
</clipPath>
<clipPath id="clip1_0_22">
<rect width="52" height="52" fill="white" transform="translate(0.333008)"/>
</clipPath>
</defs>
</svg>
